<svg height="36" viewBox="0 0 36 36" width="36" xmlns="http://www.w3.org/2000/svg"><circle cx="18" cy="18" fill="none" r="18"/><path d="m11.146 13.075a3.646 3.646 0 0 0 2.325-3.555c0-3.392-2.527-4.218-5.443-4.218h-8.028v17.025h8.254c3.094 0 6-1.484 6-4.943a4.1 4.1 0 0 0 -3.108-4.309zm-7.4-4.867h3.508c1.35 0 2.565.38 2.565 1.946 0 1.446-.946 2.027-2.282 2.027h-3.8v-3.973zm4 11.227h-4v-4.689h4.075c1.648 0 2.69.687 2.69 2.431 0 1.72-1.244 2.258-2.767 2.258zm17.221-11.563h-6.9v-1.672h6.9zm2.7 8.47c0-3.646-2.133-6.687-6-6.687a6.2 6.2 0 0 0 -6.308 6.524c0 3.839 2.416 6.471 6.308 6.471a5.5 5.5 0 0 0 5.77-4.146h-2.984a2.8 2.8 0 0 1 -2.676 1.609c-1.984 0-3.027-1.163-3.027-3.137h8.892c.015-.202.03-.418.03-.635zm-8.916-1.5a2.646 2.646 0 0 1 2.81-2.633 2.524 2.524 0 0 1 2.7 2.633z" transform="translate(4 3.698)"/></svg>