<?xml version="1.0" encoding="utf-8"?>
<!-- Generator: Adobe Adobe Illustrator 24.2.0, SVG Export Plug-In . SVG Version: 6.00 Build 0)  -->
<svg version="1.1" id="Layer_1" xmlns="http://www.w3.org/2000/svg" xmlns:xlink="http://www.w3.org/1999/xlink" x="0px" y="0px"
	 width="194.9px" height="80.6px" viewBox="0 0 194.9 80.6" style="enable-background:new 0 0 194.9 80.6;" xml:space="preserve">
<style type="text/css">
	.st0{fill:#FFFFFF;}
	.st1{enable-background:new    ;}
	.st2{fill:#1F1F1F;}
	.st3{fill:none;}
</style>
<path d="M3.2,73.7V43c0-3.8,3.1-6.9,6.9-6.9h43.7c3.8,0,6.9,3.1,6.9,6.9v30.7c0,3.8-3.1,6.9-6.9,6.9H10.1
	C6.3,80.6,3.2,77.5,3.2,73.7z"/>
<g id="Logo" transform="translate(421.415 41)">
	<g class="st1">
		<path class="st2" d="M-420.7-37.5h17.9c0.4,0,0.7,0.3,0.7,0.7v3.4c0,0.4-0.3,0.7-0.7,0.7h0c-3.3,0-5.9,2.6-5.9,5.9v13.5
			c0,0.4-0.3,0.7-0.7,0.7h-4.7c-0.4,0-0.7-0.3-0.7-0.7v-18.6c0-0.4-0.3-0.7-0.7-0.7h-5.2c-0.4,0-0.7-0.3-0.7-0.7v-3.4
			C-421.4-37.2-421.1-37.5-420.7-37.5z"/>
		<path class="st2" d="M-397.9-38.8h3.7c0.7,0,1.2,0.5,1.2,1.2l0,5.2c0,1,1.1,1.5,1.9,1c1.2-0.7,2.6-1.1,4.2-1.1
			c4.5,0,7.5,3.1,7.5,8.5v10.4c0,0.7-0.5,1.2-1.2,1.2h-3.7c-0.7,0-1.2-0.5-1.2-1.2v-9.6c0-2.7-1.5-4.2-3.8-4.2
			c-2.3,0-3.8,1.5-3.8,4.2v9.6c0,0.7-0.5,1.2-1.2,1.2h-3.7c-0.7,0-1.2-0.5-1.2-1.2v-23.9C-399.1-38.3-398.6-38.8-397.9-38.8z"/>
		<path class="st2" d="M-366.4-12.3c-5.8,0-10-3.9-10-10.2c0-6.3,4.1-10.2,10-10.2c5.8,0,9.9,3.8,9.9,9.9c0,0.4,0,0.7,0,1.1
			c0,0.4-0.3,0.6-0.7,0.6l-12.3,0c-0.5,0-0.8,0.4-0.7,0.9c0.5,2,1.9,2.9,3.6,2.9c1.5,0,2.5-0.7,3-1.6c0.1-0.2,0.3-0.3,0.6-0.3l5.1,0
			c0.5,0,0.8,0.5,0.7,1C-358.5-14.8-361.8-12.3-366.4-12.3z M-369.4-24.4c1.5,0,4.6,0,6,0c0.4,0,0.7-0.3,0.6-0.8
			c-0.3-1.7-1.9-2.7-3.7-2.7c-1.7,0-3.1,0.9-3.6,2.5C-370.2-24.8-369.9-24.4-369.4-24.4z"/>
		<path class="st2" d="M-331-29.6l-5.4,0c-0.2,0-0.5-0.1-0.6-0.3c-1-1.5-2.6-2.2-4.7-2.2c-3.9,0-6.5,2.8-6.5,7.1
			c0,4.6,2.6,7.3,7,7.3c2.6,0,4.6-1.2,5.6-3.4c0.2-0.5-0.1-1-0.6-1l-5.9,0c-0.4,0-0.7-0.3-0.7-0.7v-3.1c0-0.4,0.3-0.7,0.7-0.7h11.8
			c0.4,0,0.7,0.3,0.7,0.7l0,4.8c0,0.1,0,0.1,0,0.2c-1.5,4.8-6.5,9.5-14.5,8.3c-5.4-0.9-9.6-5.4-10.1-10.9
			c-0.8-8.3,4.6-14.3,12.6-14.3c5.6,0,9.7,2.7,11.3,7.2C-330.2-30.1-330.5-29.6-331-29.6z"/>
		<path class="st2" d="M-318.7-32.7c2.1,0,3.8,0.7,4.9,1.7c0.5,0.4,1.2,0.1,1.2-0.5v-0.2c0-0.4,0.3-0.7,0.7-0.7h4.7
			c0.4,0,0.7,0.3,0.7,0.7v18.4c0,0.4-0.3,0.7-0.7,0.7h-4.7c-0.4,0-0.7-0.3-0.7-0.7v-2.1c-1.1,1.7-3.2,3.1-6.1,3.1
			c-4.8,0-8.7-4-8.7-10.2C-327.4-28.8-323.6-32.7-318.7-32.7z M-316.9-27.4c-2.3,0-4.3,1.7-4.3,4.9s2.1,4.9,4.3,4.9
			c2.3,0,4.3-1.7,4.3-4.9S-314.6-27.4-316.9-27.4z"/>
		<path class="st2" d="M-302.7-37.7c0-1.8,1.5-3.3,3.6-3.3c2.1,0,3.6,1.5,3.6,3.3c0,1.8-1.5,3.3-3.6,3.3
			C-301.2-34.4-302.7-35.9-302.7-37.7z M-300.3-32.4h2.3c1,0,1.9,0.8,1.9,1.9v16.1c0,1-0.8,1.9-1.9,1.9h-2.3c-1,0-1.9-0.8-1.9-1.9
			v-16.1C-302.1-31.5-301.3-32.4-300.3-32.4z"/>
		<path class="st2" d="M-290.8-38.8h3.8c0.6,0,1.1,0.5,1.1,1.1v24c0,0.6-0.5,1.1-1.1,1.1h-3.8c-0.6,0-1.1-0.5-1.1-1.1v-24
			C-291.9-38.3-291.4-38.8-290.8-38.8z"/>
		<path class="st2" d="M-273.7-32.7c2.1,0,3.8,0.7,4.9,1.7c0.5,0.4,1.2,0.1,1.2-0.5v-0.2c0-0.4,0.3-0.7,0.7-0.7h4.7
			c0.4,0,0.7,0.3,0.7,0.7v18.4c0,0.4-0.3,0.7-0.7,0.7h-4.7c-0.4,0-0.7-0.3-0.7-0.7v-2.1c-1.1,1.7-3.2,3.1-6.1,3.1
			c-4.8,0-8.7-4-8.7-10.2C-282.4-28.8-278.5-32.7-273.7-32.7z M-271.9-27.4c-2.3,0-4.3,1.7-4.3,4.9s2.1,4.9,4.3,4.9
			c2.3,0,4.3-1.7,4.3-4.9S-269.6-27.4-271.9-27.4z"/>
		<path class="st2" d="M-243.4-23.3c0-2.7-1.5-4.2-3.8-4.2c-2.3,0-3.8,1.5-3.8,4.2v10.1c0,0.4-0.3,0.7-0.7,0.7h-4.7
			c-0.4,0-0.7-0.3-0.7-0.7v-18.4c0-0.4,0.3-0.7,0.7-0.7h4.7c0.4,0,0.7,0.3,0.7,0.7v0.2c0,0.6,0.7,0.9,1.2,0.5c1.2-1,2.9-1.6,4.8-1.6
			c4.6,0,7.6,3.1,7.6,8.5v10.9c0,0.4-0.3,0.7-0.7,0.7h-4.6c-0.4,0-0.7-0.3-0.7-0.7V-23.3z"/>
		<path class="st2" d="M-233.7-37.7c0-1.8,1.5-3.3,3.6-3.3c2.1,0,3.6,1.5,3.6,3.3c0,1.8-1.5,3.3-3.6,3.3
			C-232.3-34.4-233.7-35.9-233.7-37.7z M-228.8-32.4L-228.8-32.4c0.9,0,1.7,0.8,1.7,1.7v16.4c0,0.9-0.8,1.7-1.7,1.7h-2.7
			c-0.9,0-1.7-0.8-1.7-1.7V-28C-233.2-30.4-231.2-32.4-228.8-32.4z"/>
	</g>
</g>
<g>
	<path class="st0" d="M18.4,52.7c1.6,0,3,0.4,4.1,1.2c1.1,0.8,1.6,2,1.5,3.6c-0.1,1.9-1.1,3.6-2.9,5c-1.8,1.4-4.1,2.7-6.7,3.9
		l-0.2,1.2c-0.1,0.4-0.3,0.7-0.7,0.9c-0.4,0.2-0.9,0.4-1.3,0.4c-0.3,0-0.5-0.1-0.7-0.2s-0.2-0.3-0.2-0.6c0.1-0.4,0.1-0.8,0.2-1
		c-0.2-0.2-0.3-0.3-0.3-0.5s0.1-0.4,0.2-0.6l0.2-0.3l0.1-0.1c0.8-4.6,1.4-8,1.8-10.3C13.2,55.1,13,55,13,54.8c0-0.3,0.2-0.5,0.5-0.7
		c0.4-2.8,0.8-5.4,1.1-7.7c0.1-0.3,0.3-0.6,0.7-0.8c0.4-0.2,0.9-0.3,1.3-0.3c0.3,0,0.5,0.1,0.6,0.2c0.1,0.1,0.2,0.3,0.2,0.5
		l-1.1,7.2C17.1,52.8,17.8,52.7,18.4,52.7z M21.4,57.7c0-1-0.4-1.7-1.2-2.3c-0.8-0.6-1.7-0.9-2.8-0.9c-0.4,0-0.8,0.1-1.3,0.2
		c-0.1,0.5-0.1,0.8-0.2,1.1c-0.5,3.1-0.9,5.9-1.3,8.4c0.6-0.3,1.4-0.7,2.2-1.2c1.1-0.7,2-1.3,2.7-1.9s1.3-1.3,1.5-2
		C21.3,58.7,21.4,58.2,21.4,57.7z"/>
	<path class="st0" d="M27.3,44.8c0.4-0.2,0.8-0.3,1.2-0.3c0.3,0,0.5,0.1,0.6,0.2c0.1,0.1,0.2,0.3,0.2,0.5c-0.5,4.5-1,9-1.5,13.4
		L27,65.3c0,0.3-0.3,0.6-0.7,0.8c-0.4,0.2-0.9,0.4-1.3,0.4c-0.6,0-0.8-0.2-0.8-0.7l1.2-10.1c0.5-4.7,0.9-8.1,1.2-10.1
		C26.7,45.3,26.9,45,27.3,44.8z"/>
	<path class="st0" d="M40.5,54.6c0.3,0.7,0.5,1.5,0.5,2.3c0,1.2-0.3,2.4-1,3.6c-0.5,0.8-1.1,1.7-2,2.6c-0.9,0.9-1.9,1.7-3,2.3
		c-1.1,0.6-2.1,0.9-3.1,0.9c-0.6,0-1.2-0.1-1.8-0.4c-1.2-0.6-1.8-1.8-1.8-3.4c0-1.2,0.3-2.5,0.8-3.9c0.5-1.4,1.1-2.6,1.7-3.6
		c1.5-2.3,3-3.8,4.6-4.4c0.4-0.2,0.9-0.3,1.4-0.3c0.6,0,1.1,0.2,1.5,0.5c0.4,0.3,0.7,0.8,0.7,1.4v0.1c0,0.1,0,0.1-0.1,0.2
		C39.7,53.2,40.2,53.9,40.5,54.6z M35.2,53c-0.5,0.4-1.1,1-1.6,1.8c-0.7,0.9-1.2,2-1.6,3.2c-0.2,0.5-0.3,1.1-0.5,1.9
		c-0.2,0.8-0.2,1.5-0.2,2.2c0,0.7,0.1,1.3,0.3,1.7c0.2,0.4,0.5,0.6,1,0.6c0.4,0,0.8-0.1,1.3-0.4c1.3-0.8,2.4-1.7,3.3-2.9
		s1.3-2.4,1.3-3.8C38.4,55.5,37.3,54,35.2,53z"/>
	<path class="st0" d="M51.8,52.3c0.2,0.4,0.3,0.9,0.3,1.4c0,0.5-0.1,1.5-0.4,2.8c-0.8,3.5-1.4,6.8-1.8,9.7c-0.5,2.9-0.8,5.8-1,8.6
		c0,0.2,0,0.5-0.1,0.6c0,0.2-0.1,0.4-0.2,0.7c-0.2,0.4-0.5,0.7-0.9,1c-0.4,0.3-0.8,0.5-1.1,0.5c-0.3,0-0.6-0.1-0.7-0.4L45,75.9
		c-1.1-1.9-2-3.4-2.8-4.6c-0.1-0.1-0.1-0.2-0.1-0.3c0-0.3,0.2-0.6,0.6-0.8s0.9-0.4,1.3-0.4s0.8,0.1,0.9,0.4c0.2,0.4,0.5,0.9,0.8,1.4
		l0.5,0.9c0.4-3,0.8-5.9,1.3-8.6c-0.8,1.1-1.6,2-2.5,2.8c-0.9,0.8-1.7,1.2-2.4,1.2c-0.6,0-1.1-0.3-1.5-0.8c-0.3-0.4-0.5-1-0.5-1.9
		c0-0.4,0-0.9,0.1-1.3s0.2-1,0.4-1.8l0.2-0.6c0.5-2.3,1.3-4.6,2.3-6.8c0.5-1,1-1.9,1.5-2.5s1.1-1.2,1.9-1.5c0.5-0.2,1-0.3,1.5-0.3
		c0.8,0,1.5,0.3,1.9,0.8l0.2,0.1C51.2,51.6,51.6,51.9,51.8,52.3z M47.1,60.6c0.4-0.9,0.9-1.9,1.4-3.2c0.5-1.3,0.7-2.3,0.7-3.1
		c0-0.3,0-0.5-0.1-0.6c-0.5,0-0.8-0.1-0.9-0.5c-0.1-0.4-0.2-0.6-0.4-0.6c-0.1,0-0.2,0.1-0.3,0.2c-0.1,0.1-0.2,0.4-0.4,0.7
		c-0.2,0.4-0.5,0.9-0.8,1.5c-0.6,1.2-1,2.4-1.4,3.5c-0.4,1.2-0.7,2.3-1,3.2s-0.4,1.9-0.4,2.8c0,0.4,0,0.7,0.1,1.1l0.5-0.6
		c0.3-0.4,0.7-0.8,1.1-1.3C46,62.6,46.6,61.6,47.1,60.6z"/>
</g>
<rect x="80.5" y="68.3" class="st3" width="0.5" height="0.2"/>
</svg>
