<svg enable-background="new 0 0 701 610" height="610" viewBox="0 0 701 610" width="701" xmlns="http://www.w3.org/2000/svg" xmlns:xlink="http://www.w3.org/1999/xlink"><linearGradient id="a" gradientTransform="matrix(9.0788 346.2019 520.1439 -6.0426 505594.4062 -3897.4153)" gradientUnits="userSpaceOnUse" x1="-8.118" x2="-9.0505" y1="-970.7974" y2="-970.8219"><stop offset="0" stop-color="#deff7d"/><stop offset=".582" stop-color="#ff5283"/><stop offset="1" stop-color="#0df"/></linearGradient><linearGradient id="b" gradientUnits="userSpaceOnUse" x1="543.8853" x2="419.2026" y1="-670.1097" y2="-869.4753"><stop offset="0" stop-color="#ffbc70"/><stop offset="1" stop-color="#6be1ff"/></linearGradient><linearGradient id="c" gradientUnits="userSpaceOnUse" x1="386.9077" x2="578.1716" y1="-1013.1894" y2="-717.2462"><stop offset="0" stop-color="#c9fffe"/><stop offset="1" stop-color="#ffcb6b"/></linearGradient><path d="m442.56 82.91c-18.44-5.11-103.41-55.46-163.44-63.6-81.29-11.03-96.38 25.55-156 75.19-48.12 40.08-103.76 71.67-107 128.18-3.68 64.23 58.9 117.59 71.16 162.03 10.65 38.56 17.36 102.02 41.7 131.26 50.84 61.08 86.65 86.75 149.17 73.89 53.46-10.99 98.78-61.58 151.43-75.99 84.1-23.01 132.11 3.53 186.09-50.44 49.66-49.66 65.47-127.75 59.46-197.72s-46.87-138.61-110.8-167.68c-53.53-24.34-68.83-.45-121.77-15.12z" fill="#d5ebe3"/><g stroke="#000" stroke-linejoin="round" transform="matrix(.01745241 -.9998477 .9998477 .01745241 1042.073 703.067)"><path d="m491.96-1006.59c0-.25 35.06 17.18 51.11 53.01 9.37 20.92-6.65 23.72-13.87 17.47-4.7-4.07-24.37-42.66-82.59-69.69.1-.07-38.7-12.18-94.55 1.65 2.79 1.73 72.94 21.23 112.99 86.41 11.29 27.95-8.62 31.28-16.61 16.5s-47.35-64.85-134.16-91.38c-1.27.66-13.56-7.67-68.03 20.51 0-.22 98.5 22.56 150.68 116.84 6.82 13.87-9.66 20.59-17.92 7.91s-101.88-98.74-173.86-107.59c-.29.17-14.62 2.69-54.85 39.49-.19-2.06 112.06 29.75 163.98 113.07 8.87 16.83-7.6 33.94-20.54 15.29s-74.85-85.24-172.05-101.62c.12.48-62.84 64.08 6.53 141.35s133.48 82.85 133.48 82.85 17.32-8.31 129.77-99.26c45.7-36.96 185.71-151.15 218.18-193.33 4.79-6.21 7.15-11.05 5.85-13.37.59.25-52.46-30.56-123.54-36.11z" fill="url(#a)" stroke-width="5"/><path d="m659.35-830.45c.25.04-6.09-21.92-38.59-43.96-18.98-12.87-24.92 3.43-20.01 11.63 3.19 5.34 38.99 25.19 55.49 87.25.77-.74.6 49.42-25.75 108.8-1.21-3.05-.54-96.03-62.43-135.01-25.57-15.99-25.51 9.15-12.35 19.59s52.29 50.79 63.31 140.91c-.87 1.14-4.41 32.36-41.65 81.1.21.04 9.43-71.29-40.53-115.21-10.67-9.15-24.51 1.94-13.46 12.29s43.35 50.31 39.54 122.75c-.22.26-11.44 19.7-54.68 52.92 2 .54-3.57-121.31-76.6-186.96-15.04-11.67-34.76 1.58-18.64 17.57s70.94 88.56 70.16 187.15c-.45-.21-74.05 50.75-138.1-31.03s-49.23-140.69-49.23-140.69 9.12-18.65 117.2-112.98c83.71-71.21 196.36-193.21 225.61-190.35-.14-.62 27.62 43.25 20.71 114.23z" fill="#fff" stroke-miterlimit="4.001" stroke-width="5.0013"/></g><g stroke="#000" stroke-linejoin="round" transform="matrix(-.259 -.966 .966 -.259 1485.566 498.648)"><path d="m542.43-693.77c0 .11 14.46-20.93 11.85-31.1-.25-1.56-1.72-2.62-3.28-2.36-.69.11-1.32.47-1.76 1.01-1.99 1.72-11.89 30.85-24.17 32.4-12.66 1.28-25.44.37-37.79-2.7 1.18-.73 22.35-11.15 39.9-38.42 5.04-7.16-3.88-10.82-6.99-6.95s-22.38 30.31-46.72 39.63c-.54-.28-15.44 1.63-38.54-10.33 0 .09 31.55-4.79 64.37-47.82 3.03-5.13-4.23-10.47-9.12-4.17-4.9 6.3-35.38 41.31-69.54 43.87-.12-.07-12.36-1.31-29.43-16.92 2.67-.97 26.7-.15 69.17-43.86 3.32-3.72-1.32-10.22-6.96-6.1-5.65 4.12-30.9 34.37-71.47 40.8.05-.2-26.66-27.19 2.77-59.97s56.62-35.14 56.62-35.14 7.35 3.53 55.05 42.11c22.52 18.21 98.61 78.52 95.04 87.69.26-.12-12.28 17.37-49 18.33z" fill="url(#b)" stroke-miterlimit="4.0005" stroke-width="4.0005"/><path d="m613.32-781.48c.1-.02-7.43 16.02-21.22 25.37-8.05 5.46-12.54-2.12-9.5-5.92 3.82-3.2 19.59-15.03 25.89-34.11.33.31 4.2-14.95-6.98-40.15-.52 1.29-5.09 37.33-30.3 57.39-10.85 6.78-16.43-.81-8.12-7.2 8.32-6.39 31.28-40.21 29.6-67.02-.37-.48-1.87-13.73-17.67-34.41.09-.02 4 30.24-17.19 48.87-4.53 3.88-10.4-.83-5.71-5.21 4.69-4.39 18.39-21.34 16.77-52.07-.09-.11-4.85-8.36-23.2-22.45.85-.23-1.51 51.47-32.5 79.31-6.38 4.95-14.75-.67-7.91-7.45s30.09-37.57 29.77-79.4c-.19.09-31.42-21.53-58.59 13.16s-20.89 59.68-20.89 59.68 3.87 7.91 49.72 47.93c35.51 30.21 90.87 86.51 97.84 79.96-.03.3 13.11-26.17 10.19-56.28z" fill="url(#c)" stroke-miterlimit="4.0015" stroke-width="4.0015"/></g><g transform="translate(24.705 12)"><path d="m95.25 114.35h470c3.87 0 7 3.13 7 7v266c0 3.87-3.13 7-7 7h-470c-3.87 0-7-3.13-7-7v-266c0-3.87 3.13-7 7-7z" fill="#fff" stroke="#000" stroke-linecap="round" stroke-linejoin="round" stroke-width="7"/><path d="m198.53 184.73v-10.77c0-5.31 4.31-9.62 9.62-9.62h244.59c5.31 0 9.62 4.31 9.62 9.62v10.77c0 5.31-4.31 9.62-9.62 9.62h-244.59c-5.31 0-9.62-4.31-9.62-9.62z" fill="#ebebeb"/><path d="m90.75 140.85h478" fill="none" stroke="#000" stroke-linecap="round" stroke-width="7"/><g transform="translate(0 16)"><g transform="translate(1203 312)"><path d="m-983.75-113.65h223c14.36 0 26 11.64 26 26v280c0 19.88-16.12 36-36 36h-239v-316c0-14.36 11.64-26 26-26z" fill="#fff"/><path d="m-983.75-110.15h223c12.43 0 22.5 10.07 22.5 22.5v280c0 17.95-14.55 32.5-32.5 32.5h-232c-1.93 0-3.5-1.57-3.5-3.5v-309c0-12.43 10.07-22.5 22.5-22.5z" fill="none" stroke="#000" stroke-linecap="round" stroke-linejoin="round" stroke-width="7"/></g><g fill="none" stroke="#000" stroke-linecap="round" stroke-width="7"><path d="m234.92 259.44 12.47-14.28 13.83 14.28 15.03-14.28 15.07 14.28 14.06-14.28 13.64 14.28 15.42-14.28 14.15 14.28" stroke-linejoin="round"/><path d="m234.75 297.85h190"/><path d="m234.75 332.85h190"/><path d="m234.75 367.85h152"/><path d="m234.75 401.85h185"/><path d="m234.75 436.85h178"/></g><g transform="translate(1167 582)"><path d="m-973.75-113.65h239v72h-239c-19.88 0-36-16.12-36-36 0-19.89 16.12-36 36-36z" fill="#fff"/><path d="m-973.75-110.15h232c1.93 0 3.5 1.57 3.5 3.5v58c0 1.93-1.57 3.5-3.5 3.5h-232c-17.95 0-32.5-14.55-32.5-32.5 0-17.95 14.55-32.5 32.5-32.5z" fill="none" stroke="#000" stroke-width="7"/></g><g transform="translate(1406 582)"><path d="m-973.75-45.15c-4.39 0-8.64-.86-12.65-2.55-3.87-1.64-7.35-3.98-10.33-6.97-2.99-2.99-5.33-6.46-6.97-10.33-1.69-4-2.55-8.26-2.55-12.65 0-2.37.26-4.74.77-7.02.5-2.26 1.27-4.52 2.28-6.72 1.13-2.47 2.63-4.82 4.45-7 1.84-2.2 3.96-4.17 6.31-5.85 2.6-1.86 5.49-3.32 8.61-4.33 3.25-1.05 6.64-1.58 10.09-1.58 3.48 0 6.86.55 10.32 1.68 3.4 1.11 6.83 2.97 9.91 5.38 1.77 1.38 3.34 2.91 4.93 4.82 2.28 2.73 4.08 5.86 5.34 9.31 1.33 3.62 2 7.43 2 11.31 0 4.39-.86 8.64-2.55 12.65-1.64 3.87-3.98 7.35-6.97 10.33-2.99 2.99-6.46 5.33-10.33 6.97-4.02 1.69-8.27 2.55-12.66 2.55z" fill="#fff"/><path d="m-973.75-106.65c-6.01 0-11.93 1.87-16.65 5.26-4.18 3-7.6 7.07-9.61 11.47-1.84 4-2.73 8.02-2.73 12.28 0 15.99 13.01 29 29 29s29-13.01 29-29c0-6.82-2.32-13.35-6.53-18.38-1.43-1.71-2.83-3.08-4.4-4.31-2.76-2.16-5.82-3.82-8.84-4.81-3.11-1.02-6.13-1.51-9.24-1.51m0-7c3.87 0 7.61.61 11.41 1.86 3.78 1.24 7.57 3.29 10.97 5.94 1.92 1.5 3.68 3.21 5.46 5.33 4.98 5.94 8.16 14.03 8.16 22.87 0 19.88-16.12 36-36 36s-36-16.12-36-36c0-5.32 1.15-10.37 3.37-15.2 2.53-5.51 6.68-10.5 11.9-14.24 5.68-4.08 12.91-6.56 20.73-6.56z"/></g></g><g transform="translate(1505 408)"><path d="m-996.75-113.65h81c7.18 0 13 5.82 13 13v97c0 22.09-17.91 40-40 40h-27c-22.09 0-40-17.91-40-40v-97c0-7.18 5.82-13 13-13z" fill="#fff"/><path d="m-996.75-110.15h68.37 5.7 6.93c5.25 0 9.5 4.25 9.5 9.5v97c0 20.16-16.34 36.5-36.5 36.5h-27c-20.16 0-36.5-16.34-36.5-36.5v-97c0-5.25 4.25-9.5 9.5-9.5z" fill="none" stroke="#000" stroke-width="7"/></g><path d="m638.25 384.85h-16c-1.93 0-3.5 1.57-3.5 3.5v16c0-1.93 1.57-3.5 3.5-3.5h11c.28 0 .5.22.5.5v42c0 4.14-3.36 7.5-7.5 7.5h-4c-1.93 0-3.5-1.57-3.5-3.5v17c0 1.93 1.57 3.5 3.5 3.5h8c9.11 0 16.5-7.39 16.5-16.5v-58c0-4.7-3.81-8.5-8.5-8.5z" fill="#fff" stroke="#000" stroke-width="7" transform="translate(-20 -61)"/><g transform="translate(-65 -5)"><path d="m597.71 300.06v37" fill="none" stroke="#000" stroke-linecap="round" stroke-width="5"/><g transform="translate(1590 442)"><path d="m-984.75-81.15h-15c-4.14 0-7.5-3.36-7.5-7.5v-15c0-4.14 3.36-7.5 7.5-7.5h15c4.14 0 7.5 3.36 7.5 7.5v15c0 4.13-3.37 7.5-7.5 7.5z" fill="#fff"/><path d="m-999.75-108.65c-2.76 0-5 2.24-5 5v15c0 2.76 2.24 5 5 5h15c2.76 0 5-2.24 5-5v-15c0-2.76-2.24-5-5-5zm0-5h15c5.52 0 10 4.48 10 10v15c0 5.52-4.48 10-10 10h-15c-5.52 0-10-4.48-10-10v-15c0-5.53 4.47-10 10-10z"/></g><g fill="none" stroke="#000" stroke-miterlimit="4.0005" stroke-width="3.0004" transform="matrix(.966 -.259 .259 .966 -59.956 434.975)"><path d="m660.29 89.42c9.29-5.19-5.63-11.88-5.63-11.88s-3.65 17.07 5.63 11.88z"/><path d="m655.7 79.4 6.59 13.27" stroke-linecap="round"/></g></g><g fill="none"><circle cx="439.3" cy="179.35" r="8"/><circle cx="439.3" cy="179.35" r="6.5" stroke="#000" stroke-width="3"/><path d="m445.8 182.85 4 2" stroke="#000" stroke-linecap="round" stroke-width="3"/></g></g><path d="m643.69 114.05c3.62 4.88 6.44 10.26 8.4 16.01 2.08 6.13 3.25 12.53 4.11 18.93.17 1.27 2.1.73 1.93-.53-1.71-12.69-4.99-24.99-12.71-35.42-.76-1.03-2.5-.03-1.73 1.01z"/><path d="m659.62 161.23c1.52 9.03 1.2 18.29-.89 27.2-.29 1.25 1.63 1.79 1.93.53 2.18-9.28 2.47-18.87.89-28.27-.21-1.26-2.14-.72-1.93.54z"/><path d="m654.16 198.76c-2.27 8.16-5.8 15.89-10.47 22.96-.71 1.08 1.02 2.08 1.73 1.01 4.76-7.2 8.36-15.12 10.67-23.44.34-1.24-1.58-1.77-1.93-.53z"/><path d="m638.13 234.48c-4.16 9.9-10.19 18.96-17.66 26.66-.9.92.52 2.34 1.41 1.41 7.73-7.97 13.87-17.31 18.18-27.55.5-1.18-1.44-1.69-1.93-.52z"/><path d="m613.73 271.19c-4.24 5.18-9.16 9.78-14.65 13.61-1.05.73-.05 2.47 1.01 1.73 5.63-3.93 10.71-8.61 15.06-13.93.8-.99-.61-2.41-1.42-1.41z"/><path d="m667.2 259.31c-2.59 9.67-8.15 18.32-15.84 24.73-.99.82.43 2.23 1.41 1.41 7.94-6.61 13.68-15.64 16.36-25.61.33-1.25-1.6-1.78-1.93-.53z"/><path d="m642.4 292.62c-5.82 7.06-12.96 12.91-21.04 17.21-1.14.61-.13 2.33 1.01 1.73 8.21-4.38 15.52-10.34 21.45-17.52.81-.99-.6-2.41-1.42-1.42z"/><path d="m678.97 220.15c-.96 8.54-3.21 16.92-6.65 24.79-.51 1.17 1.21 2.19 1.73 1.01 3.59-8.23 5.91-16.89 6.92-25.8.15-1.28-1.86-1.27-2 0z"/><path d="m668.15 208.56c-2.24 8.42-6.62 16.14-12.71 22.36-.9.92.51 2.34 1.41 1.41 6.33-6.47 10.9-14.5 13.23-23.25.33-1.23-1.6-1.76-1.93-.52z"/><path d="m663.5 221.7c2.17 7.55 4.69 14.99 7.55 22.3.46 1.19 2.4.67 1.93-.53-2.86-7.31-5.38-14.75-7.55-22.3-.36-1.24-2.29-.72-1.93.53z"/><path d="m664.09 222.61c4.55 1.99 9.2 3.71 13.95 5.14 1.24.37 1.76-1.56.53-1.93-4.58-1.38-9.09-3.02-13.48-4.94-.5-.22-1.07-.14-1.37.36-.24.43-.12 1.16.37 1.37z"/><path d="m668.51 210.62c2.52 5.48 5.44 10.76 8.75 15.8.7 1.07 2.44.07 1.73-1.01-3.31-5.04-6.23-10.32-8.75-15.8-.54-1.16-2.26-.15-1.73 1.01z"/><path d="m650.2 222.42c1.29 0 1.29-2 0-2s-1.29 2 0 2z"/><path d="m652.19 218.55c1.29 0 1.29-2 0-2s-1.29 2 0 2z"/><path d="m654.3 214.56c1.29 0 1.29-2 0-2s-1.29 2 0 2z"/><path d="m655.96 210.68c1.29 0 1.29-2 0-2s-1.29 2 0 2z"/><path d="m657.4 207.25c1.29 0 1.29-2 0-2s-1.29 2 0 2z"/><path d="m651.97 226.59c4.69-6.97 8.22-14.65 10.48-22.74.35-1.24-1.58-1.77-1.93-.53-2.22 7.93-5.68 15.43-10.28 22.26-.72 1.07 1.01 2.08 1.73 1.01z"/><path d="m655.01 222.84c.09.07.19.14.28.21.07.05.08.07.01.01.05.04.09.07.14.11.2.15.39.31.59.46.38.3.76.6 1.13.91.75.62 1.49 1.24 2.21 1.88.39.35 1.03.42 1.41 0 .35-.38.42-1.04 0-1.41-1.54-1.36-3.13-2.65-4.76-3.9-.19-.15-.55-.16-.77-.1-.23.06-.48.24-.6.46-.27.53-.08 1.03.36 1.37z"/><path d="m657.28 217.11c1.67 1.36 3.35 2.72 5.02 4.08.41.33 1.02.43 1.41 0 .34-.37.43-1.06 0-1.41-1.67-1.36-3.35-2.72-5.02-4.08-.41-.33-1.02-.43-1.41 0-.34.36-.44 1.05 0 1.41z"/><path d="m659.45 211.31c1.95 1.35 3.76 2.71 5.56 4.16.41.33 1.02.43 1.41 0 .33-.36.43-1.06 0-1.41-1.93-1.56-3.92-3.06-5.96-4.47-.43-.3-1.13-.09-1.37.36-.27.51-.1 1.04.36 1.36z"/><path d="m675.36 245.26c3.58-2.81 7.22-5.54 10.91-8.21.44-.32.65-.87.36-1.37-.25-.43-.93-.68-1.37-.36-3.83 2.76-7.6 5.6-11.32 8.52-.43.33-.35 1.06 0 1.41.43.43 1 .34 1.42.01z"/><path d="m676.61 249.36c-.16.09-.32.18-.48.27.4.52.81 1.05 1.21 1.57 3.08-2.95 6.99-4.81 10.45-7.26-.4-.52-.81-1.05-1.21-1.57-.1.09-.21.19-.31.28-.96.86.46 2.27 1.41 1.41.1-.09.21-.19.31-.28.83-.75-.28-2.23-1.21-1.57-3.61 2.55-7.64 4.5-10.85 7.57-.83.8.23 2.12 1.21 1.57.16-.09.32-.18.48-.27 1.12-.62.11-2.35-1.01-1.72z"/><path d="m679.7 231.55c1.78-1.57 3.59-3.08 5.45-4.56-.47 0-.94 0-1.41 0 .01.01.02.03.03.04-.09-.15-.17-.29-.26-.44 0 .02.01.03.01.05 0-.18 0-.35 0-.53.02-.05.04-.09.06-.14l.36-.36c-.01.01-.03.02-.04.03-.46.26-.65.92-.36 1.37.3.46.88.64 1.37.36.67-.38.72-1.23.24-1.78-.38-.44-1.01-.32-1.41 0-1.86 1.47-3.67 2.99-5.45 4.56-.39.35-.38 1.06 0 1.41.42.37.99.36 1.41-.01z"/><path d="m658.28 278.9c.8 4.48 1.46 8.99 2 13.51.06.54.41.99 1 1 .49.01 1.06-.46 1-1-.55-4.7-1.24-9.38-2.07-14.04-.22-1.26-2.15-.73-1.93.53z"/><path d="m663.84 268.67c1.04 11.59 2.09 23.17 3.13 34.76.11 1.27 2.12 1.28 2 0-1.04-11.59-2.09-23.17-3.13-34.76-.12-1.27-2.12-1.28-2 0z"/><path d="m667.3 261.86c2.74 12.41 5.5 24.84 9.65 36.87.42 1.21 2.35.69 1.93-.53-4.15-12.03-6.91-24.46-9.65-36.87-.28-1.26-2.21-.73-1.93.53z"/><path d="m630.74 304.95c-1.7 9.91-3.14 19.87-4.33 29.86-.15 1.28 1.85 1.26 2 0 1.17-9.81 2.59-19.59 4.26-29.33.21-1.26-1.71-1.8-1.93-.53z"/><path d="m638.12 298.6c-1.49 12.82-2.67 25.68-3.53 38.57-.09 1.28 1.91 1.28 2 0 .86-12.88 2.03-25.74 3.53-38.57.15-1.27-1.85-1.26-2 0z"/><path d="m646.52 297.65c-1.23 13.24-2.58 26.48-4.05 39.7-.14 1.28 1.86 1.27 2 0 1.47-13.22 2.82-26.45 4.05-39.7.12-1.29-1.88-1.28-2 0z"/><path d="m654.04 306.79c-.94 9.39-1.89 18.79-2.83 28.18-.13 1.28 1.87 1.27 2 0 .94-9.39 1.89-18.79 2.83-28.18.12-1.28-1.88-1.27-2 0z"/><path d="m643.06 275.14c6.98-7.18 12.89-15.35 17.52-24.23.59-1.14-1.13-2.15-1.73-1.01-4.55 8.74-10.33 16.76-17.2 23.83-.9.92.51 2.33 1.41 1.41z"/><path d="m649.72 265.16c-.14 6.74.55 13.47 2.03 20.04.28 1.26 2.21.72 1.93-.53-1.44-6.41-2.09-12.95-1.96-19.51.02-1.29-1.98-1.29-2 0z"/><path d="m650.54 266.22c4.13 1.89 8.33 3.64 12.59 5.22 1.21.45 1.73-1.48.53-1.93-4.1-1.53-8.14-3.2-12.12-5.02-.49-.22-1.08-.14-1.37.36-.24.43-.12 1.14.37 1.37z"/><path d="m658.52 252.22c1.54 5.94 2.96 11.9 4.27 17.9.27 1.26 2.2.73 1.93-.53-1.31-5.99-2.73-11.96-4.27-17.9-.33-1.25-2.26-.72-1.93.53z"/><path d="m599.78 302.57c9.1-7.49 17.29-15.99 24.48-25.33.78-1.02-.95-2.02-1.73-1.01-7.08 9.19-15.21 17.55-24.16 24.92-1 .83.42 2.24 1.41 1.42z"/><path d="m604.44 290.17c1.29 0 1.29-2 0-2s-1.29 2 0 2z"/><path d="m608.96 286.02c1.29 0 1.29-2 0-2s-1.29 2 0 2z"/><path d="m614.37 281.14c1.29 0 1.29-2 0-2-1.28 0-1.29 2 0 2z"/><path d="m608.68 293.96c1.59 5.17 3.18 10.34 4.77 15.51.38 1.23 2.31.7 1.93-.53-1.59-5.17-3.18-10.34-4.77-15.51-.38-1.23-2.31-.71-1.93.53z"/><path d="m609.21 294.22c7.88 3.44 15.86 6.64 23.94 9.58 1.21.44 1.73-1.49.53-1.93-7.92-2.88-15.74-6-23.46-9.38-1.17-.51-2.19 1.22-1.01 1.73z"/><path d="m622.53 277.44c3.15 8.67 6.57 17.24 10.25 25.69.51 1.18 2.24.16 1.73-1.01-3.61-8.3-6.95-16.71-10.04-25.22-.44-1.19-2.38-.67-1.94.54z"/><path d="m676.85 168.07c-5.49 3.74-10.87 7.63-16.13 11.69-.43.33-.65.86-.36 1.37.24.42.94.69 1.37.36 5.26-4.05 10.64-7.95 16.13-11.69 1.05-.72.05-2.46-1.01-1.73z"/><path d="m661.5 181.48c8.79 7.09 16.88 14.99 24.18 23.61.83.98 2.24-.44 1.41-1.41-7.3-8.61-15.39-16.52-24.18-23.61-.99-.8-2.41.61-1.41 1.41z"/><path d="m652.72 160.06c.29 7.85.56 15.8-1.26 23.5-.3 1.25 1.63 1.79 1.93.53 1.87-7.88 1.63-16 1.34-24.03-.06-1.29-2.06-1.29-2.01 0z"/><path d="m643.23 157.66c1.07 8.02.45 16.15-1.84 23.91-.37 1.24 1.56 1.77 1.93.53 2.34-7.92 3-16.26 1.92-24.44-.17-1.26-2.18-1.28-2.01 0z"/><path d="m648.65 177.19c1.29 0 1.29-2 0-2-1.28 0-1.29 2 0 2z"/><path d="m649.16 172.24c1.29 0 1.29-2 0-2s-1.29 2 0 2z"/><path d="m649.54 167.16c1.29 0 1.29-2 0-2-1.28 0-1.29 2 0 2z"/><path d="m653.95 176.85c2.15.62 4.31 1.24 6.46 1.86.5.14 1.11-.18 1.23-.7.12-.53-.16-1.08-.7-1.23-2.15-.62-4.31-1.24-6.46-1.86-.5-.14-1.11.18-1.23.7-.12.54.16 1.08.7 1.23z"/><path d="m654.2 169.27c2.33.54 4.61 1.25 6.82 2.15.5.2 1.1-.22 1.23-.7.16-.57-.2-1.03-.7-1.23-2.22-.89-4.5-1.61-6.82-2.15-.53-.12-1.08.16-1.23.7-.14.51.17 1.11.7 1.23z"/><path d="m656.05 141.41c4.38.81 8.72 1.83 13 3.05 1.24.35 1.77-1.58.53-1.93-4.28-1.22-8.62-2.23-13-3.05-1.26-.23-1.8 1.7-.53 1.93z"/><path d="m653.02 130.78c3.45.46 6.89 1.02 10.31 1.68.53.1 1.08-.15 1.23-.7.13-.49-.17-1.13-.7-1.23-3.6-.69-7.21-1.27-10.84-1.75-.54-.07-1 .51-1 1 0 .6.46.93 1 1z"/><path d="m649.38 121.13c1.92.28 3.83.63 5.72 1.04.51.11 1.11-.15 1.23-.7.11-.5-.15-1.11-.7-1.23-1.89-.41-3.8-.76-5.72-1.04-.52-.08-1.1.13-1.23.7-.11.47.14 1.15.7 1.23z"/><path d="m629.78 261.32c1.29 0 1.29-2 0-2s-1.29 2 0 2z"/><path d="m633.48 255.61c1.29 0 1.29-2 0-2s-1.29 2 0 2z"/><path d="m637.84 248.55c1.29 0 1.29-2 0-2-1.28 0-1.28 2 0 2z"/><path d="m641.2 242.51c1.29 0 1.29-2 0-2-1.28 0-1.28 2 0 2z"/><path d="m646.59 240.44c-3.84 9.32-9.57 17.79-16.73 24.89-.92.91.5 2.32 1.41 1.41 7.42-7.35 13.26-16.12 17.24-25.77.5-1.18-1.43-1.7-1.92-.53z"/><path d="m636.66 260.34c3.52 2.81 7.1 5.55 10.74 8.2.44.32 1.12.07 1.37-.36.3-.51.08-1.05-.36-1.37-3.5-2.56-6.95-5.19-10.34-7.89-.42-.34-1-.41-1.41 0-.35.35-.43 1.08 0 1.42z"/><path d="m642.01 252.61c3.48 2.99 7.11 5.81 10.86 8.45.44.31 1.11.08 1.37-.36.29-.5.08-1.06-.36-1.37-3.61-2.55-7.1-5.26-10.45-8.14-.41-.35-1.01-.4-1.41 0-.37.37-.42 1.07-.01 1.42z"/><path d="m644.24 194.29c-3.72 7.9-8.11 15.46-13.12 22.6-.74 1.06.99 2.06 1.73 1.01 5.01-7.14 9.4-14.71 13.12-22.6.54-1.15-1.18-2.17-1.73-1.01z"/><path d="m627.51 229.31c-4.41 9.47-10.04 18.33-16.77 26.32-.82.98.58 2.4 1.41 1.41 6.84-8.12 12.6-17.09 17.08-26.72.55-1.16-1.18-2.17-1.72-1.01z"/><path d="m606.32 265.15c-2.51 2.51-5.03 5.03-7.54 7.54-.91.91.5 2.33 1.41 1.41l7.54-7.54c.92-.91-.5-2.32-1.41-1.41z"/><path d="m632.15 128.44c5.06 6.49 8.33 14.34 9.39 22.5.16 1.26 2.17 1.27 2 0-1.13-8.75-4.56-16.95-9.98-23.91-.78-1.02-2.19.41-1.41 1.41z"/><path d="m638.9 139.52c-5.52 1.89-11.05 3.79-16.57 5.68-1.21.41-.69 2.35.53 1.93 5.52-1.89 11.05-3.79 16.57-5.68 1.21-.41.69-2.35-.53-1.93z"/><path d="m638.32 152.46c-7.72 2.28-15.43 4.55-23.15 6.83-1.23.36-.71 2.29.53 1.93 7.72-2.28 15.43-4.55 23.15-6.83 1.23-.37.71-2.3-.53-1.93z"/><path d="m643.91 165.19c-11.92 3.67-23.95 6.99-35.87 10.66-1.23.38-.7 2.31.53 1.93 11.92-3.67 23.95-6.99 35.87-10.66 1.22-.38.7-2.31-.53-1.93z"/><path d="m631.44 181.63c-9.82 2.72-19.65 5.44-29.47 8.16-1.24.34-.71 2.27.53 1.93 9.82-2.72 19.65-5.44 29.47-8.16 1.24-.34.71-2.27-.53-1.93z"/><path d="m74.69 203.41c-4.58 5.47-8.55 11.41-11.83 17.75-.59 1.14 1.14 2.15 1.73 1.01 3.19-6.18 7.05-12 11.51-17.34.82-.99-.58-2.41-1.41-1.42z"/><path d="m76.9 217.57c-5.37 6.98-10.3 14.29-14.76 21.88-.65 1.11 1.07 2.12 1.73 1.01 4.46-7.6 9.39-14.9 14.76-21.88.78-1.02-.96-2.02-1.73-1.01z"/><path d="m79.6 228.71c-6.07 7.6-12.14 15.32-15.79 24.43-.48 1.19 1.46 1.71 1.93.53 3.51-8.76 9.44-16.24 15.28-23.55.79-.99-.61-2.41-1.42-1.41z"/><path d="m82.14 240.37c-6.17 7-11.69 14.54-16.47 22.55-.66 1.11 1.07 2.11 1.73 1.01 4.7-7.86 10.1-15.28 16.16-22.15.85-.96-.56-2.38-1.42-1.41z"/><path d="m85.43 248.7c-7.23 6.74-13.36 14.6-18.15 23.24-.62 1.13 1.1 2.14 1.73 1.01 4.71-8.51 10.72-16.21 17.83-22.84.94-.87-.47-2.29-1.41-1.41z"/><path d="m74.07 337.75c-3.22 6.46-5.96 13.16-8.17 20.04-.39 1.23 1.54 1.75 1.93.53 2.16-6.72 4.82-13.25 7.97-19.56.57-1.15-1.15-2.16-1.73-1.01z"/><path d="m78.98 348.4c-3.92 6.95-7.15 14.27-9.66 21.85-.41 1.22 1.52 1.75 1.93.53 2.46-7.42 5.62-14.56 9.46-21.37.63-1.12-1.1-2.13-1.73-1.01z"/><path d="m84.48 359.02c-4.75 6.82-8.6 14.22-11.5 22.01-.45 1.21 1.48 1.73 1.93.53 2.84-7.62 6.65-14.85 11.3-21.53.74-1.05-1-2.06-1.73-1.01z"/><path d="m88.98 367.31c-4.62 6.77-8.61 13.95-11.9 21.46-.51 1.17 1.21 2.19 1.73 1.01 3.3-7.51 7.28-14.69 11.9-21.46.72-1.06-1.01-2.07-1.73-1.01z"/><path d="m93.06 374.13c-4.95 7.3-9.06 15.12-12.29 23.33-.47 1.2 1.46 1.72 1.93.53 3.17-8.04 7.24-15.7 12.09-22.85.72-1.07-1.01-2.07-1.73-1.01z"/><path d="m108.09 446.58c-2.52 5.7-4.41 11.64-5.59 17.76-.24 1.26 1.68 1.8 1.93.53 1.15-5.94 2.95-11.75 5.39-17.28.51-1.17-1.21-2.19-1.73-1.01z"/><path d="m114.53 455.26c-2.44 6.09-4.6 12.28-6.49 18.57-.37 1.24 1.56 1.76 1.93.53 1.89-6.28 4.05-12.48 6.49-18.57.47-1.2-1.46-1.72-1.93-.53z"/><path d="m120.7 463.1c-2.52 6.27-4.67 12.68-6.44 19.2-.34 1.24 1.59 1.77 1.93.53 1.77-6.52 3.92-12.93 6.44-19.2.48-1.2-1.45-1.71-1.93-.53z"/><path d="m128.53 470.52c-2.38 6.41-4.76 12.83-7.14 19.24-.45 1.21 1.48 1.73 1.93.53 2.38-6.41 4.76-12.83 7.14-19.24.44-1.2-1.49-1.72-1.93-.53z"/><path d="m135.95 477.76c-3.15 6.36-5.68 13.01-7.54 19.86-.34 1.24 1.59 1.77 1.93.53 1.81-6.68 4.26-13.17 7.34-19.38.56-1.15-1.16-2.17-1.73-1.01z"/><path d="m177.4 522.65c-2.43 5.63-4.34 11.45-5.68 17.44-.28 1.25 1.65 1.79 1.93.53 1.3-5.81 3.12-11.49 5.48-16.96.5-1.17-1.22-2.19-1.73-1.01z"/><path d="m203.39 470.37c-1.91 3.52-3.83 7.04-5.74 10.56-.62 1.13 1.11 2.14 1.73 1.01 1.91-3.52 3.83-7.04 5.74-10.56.61-1.13-1.12-2.14-1.73-1.01z"/><path d="m211.41 475.24c-2.58 3.51-4.68 7.32-6.34 11.34-.21.5.22 1.1.7 1.23.57.16 1.02-.2 1.23-.7 1.59-3.86 3.67-7.51 6.14-10.87.32-.44.07-1.12-.36-1.37-.51-.29-1.05-.07-1.37.37z"/><path d="m217.9 482.42c-1.98 2.47-3.49 5.24-4.46 8.26-.16.51.19 1.09.7 1.23.54.15 1.06-.18 1.23-.7.86-2.67 2.19-5.19 3.94-7.38.34-.42.41-1 0-1.41-.35-.35-1.07-.43-1.41 0z"/><path d="m245.16 574.38c1.55-2.41 3.1-4.82 4.65-7.23.29-.45.09-1.1-.36-1.37-.48-.28-1.08-.1-1.37.36-1.55 2.41-3.1 4.82-4.65 7.23-.29.45-.09 1.1.36 1.37.48.28 1.07.09 1.37-.36z"/><path d="m257.3 576.95c2.92-3.18 5.83-6.35 8.75-9.53.87-.95-.54-2.36-1.41-1.41-2.92 3.18-5.83 6.35-8.75 9.53-.87.94.54 2.36 1.41 1.41z"/><path d="m151.07 419.34c2.96-3.6 6.3-6.86 9.98-9.71.43-.33.35-1.07 0-1.41-.42-.42-.99-.33-1.41 0-3.68 2.86-7.02 6.12-9.98 9.71-.34.42-.41 1.01 0 1.41.35.35 1.06.41 1.41 0z"/><path d="m168.06 414.45c-3.67 4.43-7.12 9.04-10.34 13.81-.72 1.07 1.01 2.07 1.73 1.01 3.12-4.63 6.46-9.11 10.02-13.41.82-.98-.59-2.4-1.41-1.41z"/><path d="m176.77 421.87c-3.77 4.44-7.06 9.27-9.79 14.42-.6 1.14 1.12 2.15 1.73 1.01 2.65-4.99 5.82-9.7 9.48-14.01.82-.98-.59-2.4-1.42-1.42z"/><path d="m111.65 102.67c-3.37-3.07-7.18-5.64-11.31-7.57-.49-.23-1.08-.14-1.37.36-.25.43-.13 1.14.36 1.37 3.98 1.86 7.66 4.29 10.9 7.26.95.87 2.37-.54 1.42-1.42z"/><path d="m106.86 111.04c-3.56-2.41-7.49-4.24-11.61-5.43-1.24-.36-1.77 1.57-.53 1.93 3.97 1.15 7.71 2.91 11.13 5.23 1.07.72 2.07-1.02 1.01-1.73z"/><path d="m103.66 118.22c-3.71-1.49-7.53-2.69-11.42-3.59-1.25-.29-1.79 1.64-.53 1.93 3.89.9 7.71 2.1 11.42 3.59.5.2 1.1-.22 1.23-.7.16-.57-.2-1.03-.7-1.23z"/><path d="m101.08 125.38c-3.85-1.01-7.82-1.53-11.8-1.56-1.29-.01-1.29 1.99 0 2 3.81.03 7.58.53 11.27 1.49 1.24.33 1.78-1.6.53-1.93z"/><path d="m99.36 132.9c-4.23.09-8.49.26-12.44 1.93-.5.21-.61.94-.36 1.37.3.52.87.57 1.37.36 3.59-1.52 7.6-1.58 11.43-1.66 1.29-.02 1.29-2.02 0-2z"/><path d="m137.88 79.02c-2.55-4.76-4.56-9.78-6.02-14.98-.35-1.24-2.28-.71-1.93.53 1.5 5.36 3.59 10.55 6.22 15.46.62 1.14 2.34.13 1.73-1.01z"/><path d="m148.66 74.88c-1.64-5.17-2.65-10.51-2.96-15.93-.08-1.28-2.08-1.29-2 0 .33 5.59 1.34 11.12 3.03 16.46.39 1.22 2.32.7 1.93-.53z"/><path d="m158.38 72.57c-.97-5.26-1.23-10.63-.81-15.97.1-1.28-1.9-1.28-2 0-.43 5.52-.12 11.06.88 16.5.23 1.27 2.16.73 1.93-.53z"/><path d="m168.5 71.78c1.46-5.85 3.67-11.47 6.61-16.73.63-1.13-1.1-2.14-1.73-1.01-3.01 5.41-5.31 11.2-6.81 17.21-.31 1.24 1.62 1.78 1.93.53z"/><path d="m296.2 67.33c6.61-3.82 13.77-6.55 21.24-8.13 1.26-.27.73-2.19-.53-1.93-7.63 1.61-14.97 4.43-21.72 8.33-1.11.64-.11 2.37 1.01 1.73z"/><path d="m286.36 60.61c5.77-3.3 11.91-5.84 18.32-7.58 1.24-.34.71-2.27-.53-1.93-6.57 1.78-12.89 4.4-18.8 7.78-1.12.64-.11 2.37 1.01 1.73z"/><path d="m274.87 54.48c4.17-3.31 8.95-5.81 14.03-7.39 1.22-.38.7-2.31-.53-1.93-5.43 1.69-10.46 4.37-14.91 7.9-.43.34-.35 1.06 0 1.41.41.43.99.35 1.41.01z"/><path d="m265.15 50.76c4.04-2.9 8.44-5.27 13.1-7.01 1.2-.45.68-2.38-.53-1.93-4.83 1.8-9.4 4.21-13.58 7.21-.44.32-.64.87-.36 1.37.25.44.94.68 1.37.36z"/><path d="m394.92 120.01c10.02-3.48 20.42-5.76 30.98-6.73 1.27-.12 1.28-2.12 0-2-10.74.99-21.32 3.26-31.51 6.8-1.21.42-.69 2.35.53 1.93z"/><path d="m382.57 111.41c4.38-1.71 8.76-3.42 13.13-5.12 4.21-1.64 8.42-3.41 12.9-4.17 1.27-.21.73-2.14-.53-1.93-4.48.76-8.69 2.53-12.9 4.17-4.38 1.71-8.76 3.42-13.13 5.12-1.19.47-.67 2.4.53 1.93z"/><path d="m370.26 103.4c7.19-3.77 14.65-6.97 22.34-9.59 1.21-.41.69-2.35-.53-1.93-7.84 2.67-15.47 5.94-22.81 9.79-1.15.6-.14 2.32 1 1.73z"/><path d="m112.67 442.22c3.22 0 3.22-5 0-5-3.21 0-3.22 5 0 5z"/><path d="m118.37 449.63c3.22 0 3.22-5 0-5-3.21 0-3.22 5 0 5z"/><path d="m125.21 457.89c3.22 0 3.22-5 0-5s-3.22 5 0 5z"/><path d="m132.05 466.15c3.22 0 3.22-5 0-5s-3.22 5 0 5z"/><path d="m139.17 472.99c3.22 0 3.22-5 0-5s-3.22 5 0 5z"/><path d="m145.72 478.41c3.22 0 3.22-5 0-5-3.21 0-3.22 5 0 5z"/><path d="m79.54 335.51c3.22 0 3.22-5 0-5s-3.22 5 0 5z"/><path d="m83.81 345.19c3.22 0 3.22-5 0-5-3.21 0-3.22 5 0 5z"/><path d="m88.94 355.17c3.22 0 3.22-5 0-5-3.21 0-3.22 5 0 5z"/><path d="m94.36 363.71c3.22 0 3.22-5 0-5s-3.23 5 0 5z"/><path d="m98.91 370.55c3.22 0 3.22-5 0-5-3.21 0-3.22 5 0 5z"/><path d="m81.87 198.02c3.22 0 3.22-5 0-5s-3.22 5 0 5z"/><path d="m83.01 207.13c3.22 0 3.22-5 0-5s-3.22 5 0 5z"/><path d="m84.72 217.11c3.22 0 3.22-5 0-5s-3.22 5 0 5z"/><path d="m86.43 227.65c3.22 0 3.22-5 0-5s-3.23 5 0 5z"/><path d="m89.85 239.04c3.22 0 3.22-5 0-5s-3.23 5 0 5z"/><path d="m91.84 246.74c3.22 0 3.22-5 0-5s-3.22 5 0 5z"/><path d="m116.66 110.34c3.22 0 3.22-5 0-5s-3.23 5 0 5z"/><path d="m112.95 118.32c3.22 0 3.22-5 0-5-3.21 0-3.22 5 0 5z"/><path d="m111.24 126.29c3.22 0 3.22-5 0-5-3.21 0-3.22 5 0 5z"/><path d="m109.25 133.99c3.22 0 3.22-5 0-5s-3.22 5 0 5z"/><path d="m180.08 517.9c3.22 0 3.22-5 0-5s-3.23 5 0 5z"/><path d="m208.08 466.09c3.22 0 3.22-5 0-5s-3.22 5 0 5z"/><path d="m215.78 471.34c3.22 0 3.22-5 0-5-3.21 0-3.22 5 0 5z"/><path d="m179.93 415.49c3.22 0 3.22-5 0-5s-3.22 5 0 5z"/><path d="m141.04 90.44c3.22 0 3.22-5 0-5s-3.22 5 0 5z"/><path d="m150.38 86.28c3.22 0 3.22-5 0-5-3.21 0-3.22 5 0 5z"/><path d="m162.15 82.82c3.22 0 3.22-5 0-5s-3.22 5 0 5z"/><path d="m155.92 106.09c3.22 0 3.22-5 0-5s-3.22 5 0 5z"/><path d="m168.38 100.56c3.22 0 3.22-5 0-5s-3.23 5 0 5z"/><path d="m182.22 98.83c3.22 0 3.22-5 0-5s-3.22 5 0 5z"/><path d="m196.06 96.75c3.22 0 3.22-5 0-5s-3.22 5 0 5z"/><path d="m208.17 97.79c3.22 0 3.22-5 0-5s-3.22 5 0 5z"/><path d="m219.24 100.56c3.22 0 3.22-5 0-5-3.21 0-3.22 5 0 5z"/><path d="m230.32 104.02c3.22 0 3.22-5 0-5s-3.23 5 0 5z"/><path d="m243.47 109.21c3.22 0 3.22-5 0-5s-3.23 5 0 5z"/><path d="m245.63 56.18c3.22 0 3.22-5 0-5s-3.22 5 0 5z"/><path d="m257.39 59.64c3.22 0 3.22-5 0-5-3.21 0-3.22 5 0 5z"/><path d="m267.77 64.48c3.22 0 3.22-5 0-5-3.21 0-3.22 5 0 5z"/><path d="m277.46 69.67c3.22 0 3.22-5 0-5-3.21 0-3.22 5 0 5z"/><path d="m285.77 74.87c3.22 0 3.22-5 0-5s-3.22 5 0 5z"/><path d="m340.7 101.39c3.22 0 3.22-5 0-5s-3.22 5 0 5z"/><path d="m352.32 106.46c3.22 0 3.22-5 0-5s-3.23 5 0 5z"/><path d="m362.15 111.82c3.22 0 3.22-5 0-5s-3.22 5 0 5z"/><path d="m372.28 118.67c3.22 0 3.22-5 0-5s-3.23 5 0 5z"/><path d="m380.62 124.63c3.22 0 3.22-5 0-5s-3.22 5 0 5z"/><path d="m72.2 331.5c4.71 14.05 11.2 27.49 19.35 39.87 2.35 3.57 4.83 7.04 7.44 10.43.77 1.01 2.51.01 1.73-1.01-11.55-15-20.57-31.87-26.59-49.82-.41-1.21-2.34-.69-1.93.53z"/><path d="m74.23 193.69c1.98 16.79 4 33.8 9.66 49.82 1.58 4.47 3.45 8.83 5.63 13.04.59 1.14 2.32.13 1.73-1.01-7.67-14.8-11-31.31-13.25-47.7-.65-4.71-1.21-9.43-1.76-14.14-.16-1.27-2.16-1.28-2.01-.01z"/><path d="m115.58 95.68c-10.41 13.69-16.7 30.27-18.07 47.4-.1 1.28 1.9 1.28 2 0 1.35-16.79 7.61-33 17.8-46.4.78-1.01-.96-2.01-1.73-1z"/><path d="m130.28 85.29c13.21-8.18 28.54-12.57 44.08-12.61 1.29 0 1.29-2 0-2-15.87.03-31.59 4.52-45.09 12.88-1.09.68-.09 2.41 1.01 1.73z"/><path d="m251.08 117.4c-5.25-4.52-11.47-7.58-17.93-9.99-6.99-2.6-14.23-4.66-21.56-6.03-13.96-2.6-28.61-2.46-42.03 2.55-6.93 2.59-13.36 6.39-18.77 11.45-.94.88.47 2.29 1.41 1.41 9.43-8.81 22.05-13.59 34.79-14.78 14.52-1.36 29.1 1.61 42.79 6.31 7.11 2.44 14.13 5.53 19.88 10.48.97.85 2.39-.56 1.42-1.4z"/><path d="m245.95 47.05c16.94 2.39 33.17 8.95 47.03 18.99 3.97 2.88 7.72 6.06 11.25 9.47.92.9 2.34-.52 1.41-1.41-12.51-12.13-27.99-21.08-44.72-25.91-4.73-1.36-9.56-2.39-14.43-3.07-1.27-.17-1.82 1.76-.54 1.93z"/><path d="m340.95 91.63c17.46 5.48 33.9 14.16 48.25 25.52 4.02 3.18 7.87 6.58 11.54 10.15.92.9 2.34-.51 1.41-1.41-13.3-12.94-28.96-23.43-46.02-30.75-4.79-2.06-9.68-3.87-14.65-5.43-1.23-.4-1.76 1.54-.53 1.92z"/><path d="m104.02 440.33c9.23 13.75 20.09 26.4 32.33 37.56 3.49 3.18 7.08 6.23 10.78 9.17 1 .79 2.42-.61 1.41-1.41-12.85-10.2-24.48-21.92-34.54-34.88-2.89-3.72-5.63-7.54-8.26-11.45-.71-1.06-2.44-.06-1.72 1.01z"/><path d="m171.15 517.54c4.18 3.99 8.85 7.46 13.89 10.3 1.12.63 2.13-1.1 1.01-1.73-4.9-2.75-9.42-6.1-13.48-9.98-.93-.9-2.35.51-1.42 1.41z"/><path d="m199.02 466.49c6.91 5.54 14.46 10.19 22.54 13.82 1.16.52 2.18-1.2 1.01-1.73-7.91-3.56-15.36-8.09-22.13-13.51-1-.79-2.42.62-1.42 1.42z"/><path d="m164.68 409.46c4.6 7.4 11.78 12.52 18.8 17.43 1.06.74 2.06-.99 1.01-1.73-6.73-4.71-13.67-9.62-18.08-16.71-.68-1.09-2.41-.09-1.73 1.01z"/><path d="m98.28 456.85c6.93 14.8 16.34 28.42 27.73 40.15 3.22 3.32 6.61 6.47 10.13 9.47.97.83 2.4-.58 1.41-1.41-12.32-10.49-22.87-23-31.08-36.95-2.35-3.98-4.5-8.08-6.46-12.27-.55-1.17-2.27-.15-1.73 1.01z"/><path d="m111.32 425.54c7.93 14.38 18.09 27.52 30.04 38.78 3.38 3.19 6.91 6.22 10.55 9.1 1 .79 2.42-.62 1.41-1.41-12.76-10.07-23.96-22.09-33.03-35.58-2.59-3.86-5.01-7.83-7.25-11.9-.62-1.13-2.34-.12-1.72 1.01z"/><path d="m141.83 410.13c4.21 6.81 9.69 12.69 15.16 18.49 5.1 5.41 10.47 10.81 17.3 13.96 1.16.54 2.18-1.19 1.01-1.73-6.69-3.09-11.91-8.36-16.9-13.65-5.35-5.68-10.72-11.41-14.84-18.08-.68-1.09-2.41-.09-1.73 1.01z"/><path d="m164.48 535.1c11.37 10.62 24.25 19.61 38.12 26.67 13.87 7.05 28.71 12.22 43.98 15.22 8.59 1.69 17.31 2.7 26.06 3.01 1.29.05 1.29-1.95 0-2-15.32-.54-30.51-3.28-45.08-8.03-14.63-4.77-28.6-11.57-41.37-20.15-7.18-4.82-13.96-10.22-20.29-16.13-.95-.89-2.36.52-1.42 1.41z"/><path d="m176.17 506.45c3.8 3.23 7.96 5.98 12.44 8.18 1.15.57 2.17-1.16 1.01-1.73-4.32-2.12-8.37-4.75-12.03-7.87-.99-.82-2.41.59-1.42 1.42z"/><path d="m191.29 477.18c8.36 6.79 17.32 12.78 26.8 17.89 1.13.61 2.14-1.12 1.01-1.73-9.33-5.02-18.17-10.9-26.39-17.57-1-.81-2.42.6-1.42 1.41z"/><path d="m206.27 454.92c3.64 3.18 7.74 5.78 12.18 7.69.5.21 1.07.15 1.37-.36.25-.42.14-1.15-.36-1.37-4.28-1.83-8.26-4.31-11.77-7.37-.97-.85-2.39.56-1.42 1.41z"/><path d="m63.79 350.35c2.77 16.07 8.27 31.65 16.21 45.9 2.28 4.08 4.76 8.05 7.42 11.9.73 1.05 2.46.05 1.73-1.01-9.24-13.33-16.18-28.19-20.45-43.84-1.21-4.44-2.2-8.94-2.98-13.48-.22-1.26-2.14-.73-1.93.53z"/><path d="m80.24 316.68c3.19 14.64 9.12 28.67 17.42 41.14 2.32 3.5 4.84 6.86 7.51 10.1.82.99 2.23-.43 1.41-1.41-9.32-11.31-16.52-24.35-21.11-38.26-1.31-3.97-2.41-8.02-3.3-12.1-.28-1.26-2.21-.72-1.93.53z"/><path d="m63.57 206.73c-2.8 18.6-2.28 37.63 1.58 56.05 1.1 5.26 2.48 10.46 4.12 15.58.39 1.22 2.32.7 1.93-.53-5.65-17.66-8.12-36.27-7.25-54.79.25-5.28.76-10.54 1.55-15.77.19-1.27-1.74-1.81-1.93-.54z"/><path d="m86.6 181.61c.1 16.89 2.38 33.77 6.82 50.08 1.28 4.7 2.74 9.35 4.36 13.94.43 1.21 2.36.69 1.93-.53-5.6-15.84-9.17-32.38-10.5-49.13-.38-4.78-.58-9.56-.61-14.35-.01-1.29-2.01-1.3-2-.01z"/><path d="m103.46 87.35c-9.24 13.62-15.08 29.41-17.02 45.74-.56 4.71-.78 9.46-.68 14.21.03 1.29 2.03 1.29 2 0-.36-16.23 3.25-32.48 10.47-47.04 2.04-4.12 4.38-8.1 6.96-11.91.73-1.06-1.01-2.06-1.73-1z"/><path d="m124.72 108.23c-4.9 6.28-8.16 13.69-9.36 21.57-.19 1.26 1.74 1.8 1.93.53 1.14-7.52 4.16-14.68 8.84-20.69.79-1-.62-2.42-1.41-1.41z"/><path d="m91.48 482.03c3.15-.81 6.34-1.5 9.54-2.06 1.61-.28 3.22-.53 4.84-.75 1.55-.21 3.16-.5 4.7-.11 1.25.32 1.78-1.61.53-1.93-1.62-.41-3.22-.22-4.85-.01-1.67.22-3.34.46-5 .74-3.46.58-6.9 1.32-10.3 2.19-1.24.32-.71 2.25.54 1.93z"/><path d="m109.82 479.06c.42 10.11-.07 20.25-1.49 30.27-.18 1.26 1.75 1.8 1.93.53 1.45-10.2 1.99-20.51 1.56-30.81-.05-1.28-2.05-1.28-2 .01z"/><path d="m110.06 510.13c5.83-4.23 12.32-7.4 18.78-10.54 1.16-.56.14-2.29-1.01-1.73-6.46 3.14-12.95 6.31-18.78 10.54-1.04.75-.04 2.49 1.01 1.73z"/><path d="m127.68 499.68c-.14 5.49-.28 10.99-.43 16.48-.14 5.25-.01 10.63-1.32 15.76-.32 1.25 1.61 1.78 1.93.53 1.32-5.15 1.24-10.52 1.38-15.79.15-5.66.29-11.32.44-16.98.03-1.28-1.97-1.28-2 0z"/><path d="m124.87 441.7c1.29-10.97 2.14-21.99 2.55-33.03.05-1.29-1.95-1.29-2 0-.41 11.04-1.26 22.06-2.55 33.03-.15 1.28 1.85 1.26 2 0z"/><path d="m124.3 442.68c11.83-4.27 23.81-8.08 35.93-11.43 1.24-.34.71-2.27-.53-1.93-12.12 3.35-24.1 7.16-35.93 11.43-1.21.43-.69 2.37.53 1.93z"/><path d="m157.77 431.03c-1.68 13.63-3.59 27.24-5.72 40.81-.2 1.26 1.73 1.8 1.93.53 2.16-13.75 4.1-27.53 5.79-41.34.15-1.27-1.85-1.26-2 0z"/><path d="m164.91 537.31c2.21 13.47 5.27 26.79 9.14 39.88.36 1.23 2.29.71 1.93-.53-3.87-13.09-6.92-26.41-9.14-39.88-.21-1.27-2.14-.73-1.93.53z"/><path d="m176.12 578.24c7.03-5.46 14.06-10.91 21.08-16.37 1.02-.79-.41-2.19-1.41-1.41-7.03 5.46-14.06 10.91-21.08 16.37-1.02.79.4 2.19 1.41 1.41z"/><path d="m201.51 564.17c.81 4.51.64 9.11.6 13.67-.04 4.53.23 9.01.91 13.49.19 1.27 2.12.73 1.93-.53-.7-4.62-.88-9.25-.83-13.91.05-4.44.11-8.87-.68-13.25-.23-1.27-2.16-.73-1.93.53z"/><path d="m204.58 589.45c4.38-2.96 8.86-5.78 13.44-8.43 2.22-1.29 4.46-2.54 6.72-3.76 1.16-.63 2.33-1.24 3.51-1.85 1.16-.6 2.53-1.6 3.82-1.85 1.26-.25.73-2.18-.53-1.93-1.12.22-2.25 1-3.26 1.52-1.25.64-2.49 1.28-3.73 1.94-2.4 1.28-4.78 2.6-7.14 3.96-4.71 2.73-9.33 5.62-13.84 8.67-1.06.72-.06 2.45 1.01 1.73z"/><path d="m230.83 573.1c.44 6.21.9 12.42 1.91 18.56.21 1.27 2.14.73 1.93-.53-.98-5.97-1.41-12-1.84-18.03-.09-1.28-2.09-1.29-2 0z"/><path d="m234.47 592.1c3.35-2.45 6.93-4.57 10.44-6.77 3.6-2.25 7.19-4.49 10.79-6.74 1.09-.68.09-2.41-1.01-1.73-3.6 2.25-7.19 4.49-10.79 6.74-3.52 2.19-7.1 4.32-10.44 6.77-1.03.76-.03 2.49 1.01 1.73z"/><path d="m254.13 578.6c.8 2.48 1.61 4.96 2.41 7.44.17.51.69.85 1.23.7.5-.14.87-.71.7-1.23-.8-2.48-1.61-4.96-2.41-7.44-.17-.51-.69-.85-1.23-.7-.51.14-.87.72-.7 1.23z"/><path d="m177.95 505.12c8.96-6.24 18.39-11.78 28.2-16.56 1.16-.56.14-2.29-1.01-1.73-9.82 4.78-19.25 10.31-28.2 16.56-1.05.73-.05 2.46 1.01 1.73z"/><path d="m204.6 487.65c-.65 4.69-1.02 9.41-1.06 14.15-.01 1.29 1.99 1.29 2 0 .05-4.55.37-9.11.99-13.62.07-.54-.13-1.07-.7-1.23-.47-.13-1.16.17-1.23.7z"/><path d="m55.09 373.35c4.94.14 9.88.41 14.82.81 1.28.1 1.28-1.9 0-2-4.93-.4-9.87-.67-14.82-.81-1.29-.04-1.29 1.96 0 2z"/><path d="m69.26 373.78c-3.5 9.18-7 18.37-10.49 27.55-.46 1.2 1.47 1.72 1.93.53 3.5-9.18 7-18.37 10.49-27.55.46-1.2-1.47-1.72-1.93-.53z"/><path d="m61.49 401.32c5.31-3.45 10.73-6.71 16.27-9.79 1.13-.62.12-2.35-1.01-1.73-5.54 3.07-10.96 6.33-16.27 9.79-1.07.7-.07 2.43 1.01 1.73z"/><path d="m76.37 391.76c-2.36 13.76-3.73 27.67-4.06 41.63-.03 1.29 1.97 1.29 2 0 .33-13.78 1.65-27.52 3.99-41.1.21-1.25-1.71-1.79-1.93-.53z"/><path d="m82.2 317.25c9.8-1.64 19.5-3.8 29.07-6.49 1.24-.35.71-2.28-.53-1.93-9.57 2.69-19.27 4.85-29.07 6.49-1.27.21-.73 2.14.53 1.93z"/><path d="m107.81 311.16c-3.99 12.88-8.24 25.67-12.73 38.39-.43 1.22 1.5 1.74 1.93.53 4.49-12.71 8.73-25.51 12.73-38.39.38-1.23-1.55-1.76-1.93-.53z"/><path d="m95.7 351.73c2.47-.02 4.94-.04 7.4-.06 2.38-.02 4.78-.1 7.15.15 1.28.13 1.27-1.87 0-2-2.37-.25-4.77-.17-7.15-.15-2.47.02-4.94.04-7.4.06-1.29.01-1.29 2.01 0 2z"/><path d="m44.84 239.74c3.01-.11 5.96.47 8.93.81 2.89.33 6.01-.18 8.79.77 1.22.42 1.74-1.51.53-1.93-2.87-.99-6.01-.5-8.99-.81-3.09-.33-6.15-.96-9.27-.84-1.28.04-1.28 2.04.01 2z"/><path d="m61.02 241.16c-6.88 11.67-14.26 23.04-22.12 34.07-.75 1.05.99 2.05 1.73 1.01 7.86-11.03 15.24-22.4 22.12-34.07.66-1.11-1.07-2.12-1.73-1.01z"/><path d="m40.28 276.08c8.7-1.93 17.49-3.48 26.33-4.62 1.26-.16 1.27-2.16 0-2-9.02 1.17-17.98 2.72-26.86 4.69-1.26.28-.73 2.21.53 1.93z"/><path d="m65.99 270.24c-8.52 13.06-16.95 26.18-25.29 39.36-.69 1.09 1.04 2.1 1.73 1.01 8.34-13.18 16.77-26.29 25.29-39.36.71-1.08-1.02-2.08-1.73-1.01z"/><path d="m81.76 73.93c4.34 9.76 8.68 19.51 13.03 29.27.52 1.17 2.25.16 1.73-1.01-4.34-9.76-8.68-19.51-13.03-29.27-.52-1.17-2.25-.16-1.73 1.01z"/><path d="m93.77 102.68c-9.9 3-19.76 6.12-29.58 9.35-1.22.4-.7 2.33.53 1.93 9.82-3.24 19.68-6.36 29.58-9.35 1.23-.37.7-2.3-.53-1.93z"/><path d="m64.57 113.93c7.57 4.76 14.97 9.77 22.2 15.03 1.04.76 2.04-.98 1.01-1.73-7.23-5.26-14.63-10.28-22.2-15.03-1.1-.68-2.1 1.05-1.01 1.73z"/><path d="m86.26 126.97c-9.65 2.56-19.3 5.12-28.94 7.69-1.24.33-.72 2.26.53 1.93 9.65-2.56 19.3-5.12 28.94-7.69 1.25-.33.72-2.26-.53-1.93z"/><path d="m57.85 137.23c8.82 4.77 18.02 8.82 27.49 12.1 1.22.42 1.74-1.51.53-1.93-9.32-3.23-18.34-7.21-27.02-11.9-1.12-.61-2.13 1.12-1 1.73z"/><path d="m88.93 182.44c7.37 1.67 14.71 3.44 22.03 5.31 1.25.32 1.78-1.61.53-1.93-7.32-1.87-14.66-3.65-22.03-5.31-1.25-.28-1.79 1.65-.53 1.93z"/><path d="m109.13 185.86c-6.66 6.37-13.33 12.75-19.99 19.12-.93.89.48 2.3 1.41 1.41 6.66-6.37 13.33-12.75 19.99-19.12.94-.88-.48-2.3-1.41-1.41z"/><path d="m90.86 207.04c6.61 1.06 13.23 2.13 19.84 3.19 1.26.2 1.8-1.72.53-1.93-6.61-1.06-13.23-2.13-19.84-3.19-1.26-.2-1.8 1.72-.53 1.93z"/><path d="m108.85 208.94c-5.28 5.95-10.55 11.91-15.83 17.86-.85.96.56 2.38 1.41 1.41 5.28-5.95 10.55-11.91 15.83-17.86.85-.95-.56-2.37-1.41-1.41z"/><path d="m94.94 228.4c5.78.88 11.57 1.76 17.35 2.64 1.26.19 1.8-1.74.53-1.93-5.78-.88-11.57-1.76-17.35-2.64-1.25-.19-1.8 1.73-.53 1.93z"/><path d="m119.58 70.68c15.22-8.9 32.52-14.1 50.13-15.09 4.95-.28 9.92-.21 14.86.17 1.28.1 1.28-1.9 0-2-17.84-1.38-35.96 1.55-52.47 8.45-4.66 1.95-9.18 4.19-13.53 6.74-1.11.65-.1 2.38 1.01 1.73z"/><path d="m141.47 101.53c9.98-7.19 21.44-12.1 33.53-14.37 1.26-.24.73-2.17-.53-1.93-12.24 2.3-23.9 7.29-34.01 14.58-1.03.74-.03 2.48 1.01 1.72z"/><path d="m195.3 85.41c17.76 1.44 35.5 5.64 51.89 12.65 4.54 1.94 8.98 4.13 13.27 6.57 1.12.64 2.13-1.09 1.01-1.73-15.78-9-33.52-14.62-51.38-17.65-4.9-.83-9.84-1.45-14.79-1.85-1.28-.1-1.27 1.9 0 2.01z"/><path d="m224.36 58.04c18.2 2.19 35.93 8.08 51.85 17.16 2.24 1.28 4.45 2.62 6.62 4.02 1.02.66 2.04 1.34 3.04 2.03.53.37 1.06.73 1.59 1.11.27.19 1.76 1.05 1.77 1.31.1-.24.2-.47.29-.71-.04.04-.09.09-.13.13.24-.1.47-.2.71-.29.13.09.27.18.4.27v1.01c.03-.04.06-.09.09-.13.73-1.07-1-2.07-1.73-1.01-.03.04-.06.09-.09.13-.19.28-.18.73 0 1.01 1.11 1.73 3.39-.08 2.02-1.68-.7-.82-1.8-1.41-2.68-2.02-1.17-.82-2.36-1.63-3.56-2.42-4.38-2.87-8.92-5.49-13.59-7.85-9.3-4.69-19.11-8.36-29.22-10.89-5.72-1.43-11.53-2.48-17.39-3.19-1.26-.14-1.25 1.86.01 2.01z"/><path d="m262.15 39.84c19.88 3.85 39.13 10.73 56.92 20.4 5.05 2.75 9.97 5.71 14.75 8.88 1.08.71 2.08-1.02 1.01-1.73-17.02-11.27-35.77-19.9-55.4-25.5-5.52-1.57-11.11-2.9-16.75-3.99-1.25-.23-1.79 1.69-.53 1.94z"/><path d="m363.45 83.51c19.67 5.1 38.42 13.51 55.31 24.8 4.82 3.22 9.49 6.68 13.98 10.36.99.81 2.41-.6 1.41-1.41-15.93-13.04-33.99-23.35-53.32-30.42-5.53-2.02-11.16-3.77-16.86-5.25-1.23-.34-1.76 1.59-.52 1.92z"/><path d="m320.3 99.85c14.87 5.24 29.15 12.08 42.54 20.4 3.76 2.34 7.45 4.79 11.07 7.35 1.05.75 2.05-.99 1.01-1.73-12.95-9.17-26.87-16.92-41.49-23.08-4.15-1.75-8.36-3.37-12.61-4.87-1.2-.43-1.73 1.5-.52 1.93z"/><path d="m186.59 53.88c-3.32-7.73-6.3-15.6-8.94-23.58-.4-1.22-2.33-.7-1.93.53 2.69 8.15 5.75 16.17 9.14 24.06.51 1.18 2.23.16 1.73-1.01z"/><path d="m175.42 30.9c-5.62 7.76-11.24 15.52-16.86 23.27-.76 1.04.98 2.04 1.73 1.01 5.62-7.76 11.24-15.52 16.86-23.27.75-1.05-.98-2.05-1.73-1.01z"/><path d="m160.08 53.89c-3.44-6.42-6.87-12.84-10.31-19.26-.61-1.14-2.33-.13-1.73 1.01 3.44 6.42 6.87 12.84 10.31 19.26.61 1.13 2.34.12 1.73-1.01z"/><path d="m147.86 35.68c-5.46 8.29-10.54 16.84-15.21 25.6-.61 1.14 1.12 2.15 1.73 1.01 4.67-8.77 9.75-17.31 15.21-25.6.71-1.08-1.02-2.08-1.73-1.01z"/><path d="m132.93 60.88c-7.92-3.31-15.49-7.4-22.62-12.18-1.07-.72-2.07 1.01-1.01 1.73 7.28 4.88 15.01 9.01 23.1 12.38 1.18.5 1.7-1.44.53-1.93z"/><path d="m279.79 41.19c.27-2.48-.08-5.04-1.02-7.35-.2-.5-.67-.85-1.23-.7-.47.13-.9.73-.7 1.23.89 2.19 1.21 4.47.95 6.82-.06.54.5 1 1 1 .59 0 .94-.46 1-1z"/><path d="m279.81 42.13c4.32-1.38 8.64-2.75 12.96-4.13 1.22-.39.7-2.32-.53-1.93-4.32 1.38-8.64 2.75-12.96 4.13-1.23.39-.71 2.32.53 1.93z"/><path d="m291.46 37.03c2.2 4.3 4.88 8.38 7.38 12.51.66 1.1 2.39.1 1.73-1.01-2.5-4.13-5.18-8.21-7.38-12.51-.59-1.15-2.32-.14-1.73 1.01z"/><path d="m299.94 50.39c8.19-2.78 16.37-5.57 24.56-8.35 1.21-.41.69-2.34-.53-1.93-8.19 2.78-16.37 5.57-24.56 8.35-1.21.41-.69 2.34.53 1.93z"/><path d="m333.76 65.69c-2.92-8.85-5.83-17.69-8.75-26.54-.2-.59-.9-.95-1.47-.6-.75.47-1.19 1.19-1.09 2.09.14 1.26 2.14 1.28 2 0 .03-.12.07-.24.1-.37-.49-.2-.98-.4-1.47-.6 2.92 8.85 5.83 17.69 8.75 26.54.4 1.23 2.33.71 1.93-.52z"/><path d="m411.07 73.85c-4.35 7.08-8.7 14.17-13.05 21.25-.68 1.1 1.05 2.11 1.73 1.01 4.35-7.08 8.7-14.17 13.05-21.25.67-1.1-1.06-2.11-1.73-1.01z"/><path d="m400.73 96.27c13.58-4.66 27.66-7.77 41.94-9.22 1.27-.13 1.28-2.13 0-2-14.46 1.47-28.72 4.57-42.47 9.3-1.21.41-.69 2.34.53 1.92z"/><path d="m441.24 86.11c-5.51 8.23-10.66 16.69-15.43 25.37-.62 1.13 1.11 2.14 1.73 1.01 4.77-8.68 9.92-17.14 15.43-25.37.72-1.08-1.01-2.08-1.73-1.01z"/><path d="m485.91 112.58c-19.57-2.92-39.45-3.45-59.14-1.52-1.27.12-1.28 2.13 0 2 19.51-1.92 39.22-1.45 58.61 1.44 1.26.19 1.8-1.73.53-1.92z"/><path d="m320.26 98.3c-4.71 8.43-8.84 17.17-12.38 26.15-.47 1.2 1.46 1.72 1.93.53 3.48-8.82 7.55-17.4 12.18-25.67.63-1.13-1.1-2.14-1.73-1.01z"/><path d="m310.09 124.97c11.38-6.13 23.53-10.73 36.12-13.69 1.25-.29.72-2.22-.53-1.93-12.75 3-25.07 7.68-36.59 13.89-1.14.61-.13 2.34 1 1.73z"/><path d="m345.15 111.41c-.34 2.54-1.29 4.95-2.12 7.36-.86 2.47-1.46 4.9-1.72 7.51-.13 1.28 1.87 1.27 2 0 .26-2.6.96-5.01 1.82-7.47.85-2.43 1.68-4.83 2.02-7.4.07-.54-.51-.99-1-1-.6-.01-.93.46-1 1z"/><path d="m225.64 57.32c-2.28 9.9-3.88 19.94-4.82 30.05-.12 1.28 1.88 1.27 2 0 .92-9.94 2.51-19.79 4.75-29.52.28-1.26-1.65-1.79-1.93-.53z"/><path d="m223.45 88c13.38-7.33 27.41-13.4 41.92-18.11 1.22-.4.7-2.33-.53-1.93-14.67 4.77-28.87 10.9-42.39 18.32-1.14.61-.13 2.34 1 1.72z"/><path d="m264.17 69.81c-1.5 11.1-2.73 22.23-3.69 33.39-.11 1.28 1.89 1.27 2 0 .94-10.98 2.14-21.94 3.61-32.86.17-1.25-1.75-1.8-1.92-.53z"/><circle cx="129.77" cy="139.7" r="5"/><circle cx="146.92" cy="139.59" r="5"/><circle cx="164.07" cy="139.59" r="5"/><path d="m641.79 191.62c-14.15 4.55-28.55 8.28-42.98 11.8-1.25.31-.72 2.23.53 1.93 14.43-3.53 28.83-7.26 42.98-11.8 1.22-.4.7-2.33-.53-1.93z"/><path d="m637.03 208.39c-4.31 1.73-8.85 2.72-13.23 4.21-1.21.41-.69 2.34.53 1.93 4.39-1.48 8.93-2.48 13.23-4.21.5-.2.86-.67.7-1.23-.14-.48-.73-.9-1.23-.7z"/><path d="m614.56 216.08c-5.57 1.45-11.13 2.93-16.7 4.38-1.24.32-.72 2.25.53 1.93 5.57-1.45 11.13-2.93 16.7-4.38 1.24-.32.72-2.25-.53-1.93z"/><path d="m626.96 227.6c-9.29 2.81-18.62 5.56-27.64 9.16-1.18.47-.67 2.41.53 1.93 9.03-3.6 18.35-6.35 27.64-9.16 1.23-.37.71-2.3-.53-1.93z"/><path d="m619.43 243.62c-7.2 3.2-14.61 5.89-21.81 9.08-1.17.52-.16 2.25 1.01 1.73 7.2-3.2 14.61-5.88 21.81-9.08 1.17-.53.16-2.25-1.01-1.73z"/><path d="m644.09 220.94c-1.5-4.25-3.49-8.31-5.93-12.1-.7-1.08-2.43-.08-1.73 1.01 2.35 3.64 4.28 7.53 5.73 11.62.43 1.21 2.36.69 1.93-.53z"/><path d="m639.38 210.71c4.35-1.85 8.87-3.29 13.48-4.35 1.25-.29.72-2.22-.53-1.93-4.78 1.1-9.44 2.63-13.95 4.55-.5.21-.6.94-.36 1.37.29.52.87.57 1.36.36z"/><path d="m644.32 195.41c2.17 3.67 4.74 7.1 7.66 10.21.88.94 2.29-.48 1.41-1.41-2.8-2.99-5.26-6.28-7.34-9.81-.65-1.11-2.38-.11-1.73 1.01z"/><path d="m627.95 229.68c1.4 4.75 3.1 9.4 5.07 13.95.22.5.94.6 1.37.36.51-.29.57-.88.36-1.37-1.9-4.38-3.52-8.89-4.87-13.47-.36-1.23-2.29-.71-1.93.53z"/><path d="m633.57 242.41c-4.41.69-8.81 1.39-13.22 2.08-.53.08-.83.75-.7 1.23.16.57.69.78 1.23.7 4.41-.69 8.81-1.39 13.22-2.08.53-.08.83-.75.7-1.23-.16-.57-.69-.79-1.23-.7z"/><path d="m619.31 246.06c1.66 3.82 3.46 7.57 5.41 11.25.6 1.14 2.33.13 1.73-1.01-1.95-3.68-3.75-7.43-5.41-11.25-.22-.5-.94-.61-1.37-.36-.51.3-.57.87-.36 1.37z"/><path d="m625.1 255.42c-3.59.01-7.18.18-10.76.51-.54.05-1 .42-1 1 0 .5.46 1.05 1 1 3.58-.33 7.17-.5 10.76-.51 1.29-.01 1.29-2.01 0-2z"/><path d="m606.2 266.59c.75 3.43 1.51 6.87 2.26 10.3.28 1.26 2.2.72 1.93-.53-.75-3.43-1.51-6.87-2.26-10.3-.27-1.26-2.2-.73-1.93.53z"/><path d="m609.5 275.6c-3.44-.11-6.87.04-10.29.45-.54.06-1 .41-1 1 0 .49.46 1.06 1 1 3.41-.41 6.85-.56 10.29-.45 1.29.04 1.29-1.96 0-2z"/><path d="m638.3 128.12c1.29 0 1.29-2 0-2-1.28 0-1.29 2 0 2z"/><path d="m642.05 134.64c1.29 0 1.29-2 0-2-1.28 0-1.29 2 0 2z"/><path d="m644.62 142.14c1.29 0 1.29-2 0-2s-1.29 2 0 2z"/><path d="m649.97 147.19c-1.21-10.34-5.35-20.09-11.95-28.14-.82-1-2.22.43-1.41 1.41 6.23 7.6 10.22 16.96 11.37 26.72.14 1.28 2.14 1.29 1.99.01z"/><path d="m657.06 147.17c-2.43-1.84-4.97-3.53-7.62-5.05-1.12-.64-2.13 1.08-1.01 1.73 2.64 1.52 5.19 3.21 7.62 5.05.43.33 1.12.07 1.37-.36.3-.51.07-1.04-.36-1.37z"/><path d="m654.04 137.74c-.44.45-.9.88-1.38 1.29-.23.2-.47.39-.71.59-.06.04-.11.09-.17.13.09-.07-.08.06-.1.07-.13.1-.26.19-.39.29-1.02.74-2.09 1.4-3.21 1.97-.47.24-.64.93-.36 1.37.31.48.87.61 1.37.36 2.35-1.2 4.5-2.78 6.36-4.65.37-.37.4-1.05 0-1.41-.4-.37-1.02-.4-1.41-.01z"/><path d="m655.13 137.23c-2.66-1.05-5.3-2.14-7.93-3.27-.5-.21-1.07-.15-1.37.36-.25.42-.14 1.15.36 1.37 2.79 1.19 5.59 2.35 8.41 3.47.5.2 1.1-.22 1.23-.7.15-.57-.2-1.03-.7-1.23z"/><path d="m651.69 128.21c-1.83 2.16-3.8 4.18-5.92 6.06-.39.35-.38 1.06 0 1.41.42.38 1 .37 1.41 0 2.12-1.88 4.09-3.9 5.92-6.06.34-.4.42-1.03 0-1.41-.37-.34-1.05-.42-1.41 0z"/><path d="m652.49 127.48c-3.48-.8-6.96-1.59-10.44-2.39-1.25-.29-1.79 1.64-.53 1.93 3.48.8 6.96 1.59 10.44 2.39 1.25.28 1.79-1.65.53-1.93z"/><path d="m643.21 113.28c-.82 4.27-1.32 8.6-1.48 12.95-.05 1.29 1.95 1.29 2 0 .16-4.17.62-8.32 1.41-12.42.24-1.26-1.69-1.79-1.93-.53z"/><path d="m591.67 114.74c11.48-3.26 23.64-3.62 35.29-1.04 1.25.28 1.79-1.65.53-1.93-12-2.66-24.53-2.32-36.35 1.04-1.24.35-.71 2.28.53 1.93z"/><path d="m602.23 122.6c7.18-.78 14.43-.6 21.56.59 1.26.21 1.8-1.72.53-1.93-7.31-1.22-14.72-1.47-22.09-.66-1.26.14-1.28 2.14 0 2z"/><path d="m606.4 131.63c3.91-.11 7.8.34 11.58 1.36 1.24.33 1.78-1.59.53-1.93-3.94-1.06-8.03-1.54-12.11-1.43-1.29.04-1.29 2.04 0 2z"/><path d="m591.92 104.39c-.76 3.33-1.52 6.67-2.28 10-.29 1.25 1.64 1.79 1.93.53.76-3.33 1.52-6.67 2.28-10 .29-1.25-1.64-1.79-1.93-.53z"/><path d="m592.71 105.87c2.04 2.57 4.4 4.85 7.02 6.83.43.33 1.12.07 1.37-.36.3-.51.07-1.04-.36-1.37-2.43-1.84-4.69-4.09-6.61-6.51-.34-.42-1.06-.35-1.41 0-.43.41-.34.98-.01 1.41z"/><path d="m602.58 102.79c-1.26 2.64-2.36 5.35-3.29 8.13-.17.51.2 1.09.7 1.23.55.15 1.06-.18 1.23-.7.87-2.61 1.9-5.16 3.08-7.65.23-.49.13-1.08-.36-1.37-.43-.26-1.13-.13-1.36.36z"/><path d="m602.6 104.14c2.1 2.1 4.05 4.34 5.82 6.72.32.43.87.65 1.37.36.43-.25.68-.93.36-1.37-1.87-2.52-3.91-4.91-6.13-7.13-.92-.91-2.34.51-1.42 1.42z"/><path d="m614.39 102.19c-1.17 1.45-2.3 2.93-3.38 4.45-.51.73-1.01 1.46-1.5 2.2-.29.44-.65.87-.58 1.43.1.78.96 1.12 1.62.77.48-.25.62-.91.36-1.37-.28-.48-.89-.61-1.37-.36-.01.01-.03.02-.04.02.26-.03.51-.07.77-.1-.02-.01-.03-.01-.05-.02.2.15.4.31.6.46-.01-.02-.02-.03-.03-.05.05.17.09.34.14.5 0-.03.01-.06.01-.08-.05.17-.09.34-.14.5.34-.62.78-1.2 1.18-1.79.41-.6.83-1.2 1.26-1.79.83-1.15 1.69-2.28 2.59-3.38.34-.42.41-1 0-1.41-.38-.33-1.1-.41-1.44.02z"/><path d="m613.27 103.38c2.25 2.58 4.42 5.23 6.5 7.95.33.43.86.66 1.37.36.42-.25.69-.94.36-1.37-2.18-2.86-4.45-5.65-6.82-8.36-.36-.41-1.05-.36-1.41 0-.4.41-.35 1.01 0 1.42z"/><path d="m628.34 103.65c-3.01 2.11-5.87 4.43-8.55 6.96-.94.88.48 2.3 1.41 1.41 2.55-2.41 5.27-4.63 8.15-6.64.44-.31.65-.87.36-1.37-.26-.44-.92-.67-1.37-.36z"/><path d="m604.48 117.48c1.29 0 1.29-2 0-2s-1.29 2 0 2z"/><path d="m610.07 117.23c1.29 0 1.29-2 0-2s-1.29 2 0 2z"/><path d="m610.2 121.73c-.13 2.79-.43 5.57-.91 8.33-.09.53.14 1.08.7 1.23.48.13 1.14-.16 1.23-.7.51-2.93.84-5.89.98-8.86.03-.54-.48-1-1-1-.56 0-.97.46-1 1z"/><path d="m617.7 121.68c-1.24 3.01-2.4 6.06-3.48 9.14-.18.51.2 1.09.7 1.23.55.15 1.05-.19 1.23-.7 1.08-3.08 2.23-6.13 3.48-9.14.21-.5-.22-1.1-.7-1.23-.58-.15-1.03.2-1.23.7z"/><path d="m613.3 141.19c.22.44.44.89.65 1.33.58-.34 1.15-.67 1.73-1.01-2.6-3.54-5.18-7.11-7.71-10.7-.31-.44-.87-.65-1.37-.36-.44.25-.67.92-.36 1.37 2.54 3.59 5.11 7.16 7.71 10.7.76 1.03 2.3.16 1.73-1.01-.22-.44-.44-.89-.65-1.33-.24-.48-.93-.62-1.37-.36-.5.29-.6.89-.36 1.37z"/><path d="m608.29 153.9c-2.62-3.83-5.36-7.58-8.21-11.24-.33-.43-1.07-.35-1.41 0-.42.42-.33.99 0 1.41 2.74 3.53 5.37 7.15 7.9 10.84.71 1.05 2.45.05 1.72-1.01z"/><path d="m177.27 122.42c-1.33-5.93-2.37-11.91-3.12-17.94-.16-1.26-2.16-1.28-2 0 .77 6.21 1.83 12.37 3.19 18.47.28 1.26 2.21.73 1.93-.53z"/><path d="m192.56 123.68c-.52-7.57-.27-15.17.73-22.7.17-1.27-1.83-1.26-2 0-1 7.53-1.25 15.12-.73 22.7.09 1.28 2.09 1.29 2 0z"/><path d="m208.75 123.19c-.01-6.89.86-13.73 2.61-20.4.33-1.25-1.6-1.78-1.93-.53-1.79 6.83-2.69 13.87-2.68 20.93 0 1.29 2 1.29 2 0z"/><path d="m224.36 123.04c.52-5.5 1.39-10.97 2.58-16.36.28-1.25-1.65-1.79-1.93-.53-1.23 5.57-2.11 11.22-2.65 16.9-.12 1.27 1.88 1.26 2-.01z"/><path d="m236.9 124.2c.34-2.94.94-5.86 1.77-8.7.2-.68.41-1.36.64-2.04.22-.66.56-1.35.71-2.03.14-.64-.21-1.39-.91-1.48-.65-.08-1.32.45-1.23 1.14.06.5.41 1.05 1 1h.06c1.27-.11 1.28-2.11 0-2-.02 0-.04 0-.06 0 .33.33.67.67 1 1 0-.02-.01-.05-.01-.07-.05.17-.09.34-.14.5.01-.03.02-.05.03-.08-.29.17-.58.33-.86.5.02 0 .05-.01.07-.01-.24-.1-.47-.2-.71-.29.03.03.05.07.08.1-.1-.24-.2-.47-.29-.71.01.2-.19.53-.26.72-.09.24-.17.47-.25.71-.19.55-.37 1.11-.55 1.67-.33 1.08-.63 2.17-.9 3.27-.54 2.24-.93 4.52-1.19 6.81-.06.54.5 1 1 1 .6-.01.94-.47 1-1.01z"/></svg>