<?xml version="1.0" encoding="utf-8"?>
<!-- Generator: Adobe Adobe Illustrator 24.2.0, SVG Export Plug-In . SVG Version: 6.00 Build 0)  -->
<!-- Artist: Yaseen AlGailani 2022  -->
<svg version="1.1" xmlns="http://www.w3.org/2000/svg" xmlns:xlink="http://www.w3.org/1999/xlink" x="0px" y="0px" width="701px"
	 height="610px" viewBox="0 0 701 610" style="enable-background:new 0 0 701 610;" xml:space="preserve">
<style type="text/css">
	.st0{fill:#D5EBE3;}
	.st1{fill:url(#Path_116_1_);stroke:#000000;stroke-width:5;stroke-linejoin:round;}
	.st2{fill:#FFFFFF;stroke:#000000;stroke-width:5.0013;stroke-linejoin:round;stroke-miterlimit:4.001;}
	.st3{fill:url(#Path_116-2_1_);stroke:#000000;stroke-width:4.0005;stroke-linejoin:round;stroke-miterlimit:4.0005;}
	.st4{fill:url(#Path_117-2_1_);stroke:#000000;stroke-width:4.0015;stroke-linejoin:round;stroke-miterlimit:4.0015;}
	.st5{fill:#FFFFFF;stroke:#000000;stroke-width:7;stroke-linecap:round;stroke-linejoin:round;}
	.st6{fill:#EBEBEB;}
	.st7{fill:none;stroke:#000000;stroke-width:7;stroke-linecap:round;}
	.st8{fill:#FFFFFF;}
	.st9{fill:none;stroke:#000000;stroke-width:7;stroke-linecap:round;stroke-linejoin:round;}
	.st10{fill:none;stroke:#000000;stroke-width:7;}
	.st11{fill:#FFFFFF;stroke:#000000;stroke-width:7;}
	.st12{fill:none;stroke:#000000;stroke-width:5;stroke-linecap:round;}
	.st13{fill:none;stroke:#000000;stroke-width:3.0004;stroke-miterlimit:4.0005;}
	.st14{fill:none;stroke:#000000;stroke-width:3.0004;stroke-linecap:round;stroke-miterlimit:4.0005;}
	.st15{fill:url(#SVGID_1_);stroke:#000000;stroke-width:5;}
	.st16{fill:none;}
	.st17{fill:none;stroke:#000000;stroke-width:3;}
	.st18{fill:none;stroke:#000000;stroke-width:3;stroke-linecap:round;}
	.st19{fill:url(#SVGID_2_);stroke:#000000;stroke-width:5;}
</style>
<g id="blub_x5F_bg">
	<path class="st0" d="M442.56,82.91c-18.44-5.11-103.41-55.46-163.44-63.6c-81.29-11.03-96.38,25.55-156,75.19
		C75,134.58,19.36,166.17,16.12,222.68c-3.68,64.23,58.9,117.59,71.16,162.03c10.65,38.56,17.36,102.02,41.7,131.26
		c50.84,61.08,86.65,86.75,149.17,73.89c53.46-10.99,98.78-61.58,151.43-75.99c84.1-23.01,132.11,3.53,186.09-50.44
		c49.66-49.66,65.47-127.75,59.46-197.72S628.26,127.1,564.33,98.03C510.8,73.69,495.5,97.58,442.56,82.91z"/>
</g>
<g id="main_x5F_illust">
	<g id="leaf_x5F_large" transform="translate(1042.073 703.067) rotate(-89)">
		
			<linearGradient id="Path_116_1_" gradientUnits="userSpaceOnUse" x1="-8.118" y1="-970.7974" x2="-9.0505" y2="-970.8219" gradientTransform="matrix(9.0788 346.2019 520.1439 -6.0426 505594.4062 -3897.4153)">
			<stop  offset="0" style="stop-color:#DEFF7D"/>
			<stop  offset="0.582" style="stop-color:#FF5283"/>
			<stop  offset="1" style="stop-color:#00DDFF"/>
		</linearGradient>
		<path id="Path_116" class="st1" d="M491.96-1006.59c0-0.25,35.06,17.18,51.11,53.01c9.37,20.92-6.65,23.72-13.87,17.47
			c-4.7-4.07-24.37-42.66-82.59-69.69c0.1-0.07-38.7-12.18-94.55,1.65c2.79,1.73,72.94,21.23,112.99,86.41
			c11.29,27.95-8.62,31.28-16.61,16.5c-7.99-14.78-47.35-64.85-134.16-91.38c-1.27,0.66-13.56-7.67-68.03,20.51
			c0-0.22,98.5,22.56,150.68,116.84c6.82,13.87-9.66,20.59-17.92,7.91c-8.26-12.68-101.88-98.74-173.86-107.59
			c-0.29,0.17-14.62,2.69-54.85,39.49c-0.19-2.06,112.06,29.75,163.98,113.07c8.87,16.83-7.6,33.94-20.54,15.29
			c-12.94-18.65-74.85-85.24-172.05-101.62c0.12,0.48-62.84,64.08,6.53,141.35s133.48,82.85,133.48,82.85s17.32-8.31,129.77-99.26
			c45.7-36.96,185.71-151.15,218.18-193.33c4.79-6.21,7.15-11.05,5.85-13.37C616.09-970.23,563.04-1001.04,491.96-1006.59z"/>
		<path id="Path_117" class="st2" d="M659.35-830.45c0.25,0.04-6.09-21.92-38.59-43.96c-18.98-12.87-24.92,3.43-20.01,11.63
			c3.19,5.34,38.99,25.19,55.49,87.25c0.77-0.74,0.6,49.42-25.75,108.8c-1.21-3.05-0.54-96.03-62.43-135.01
			c-25.57-15.99-25.51,9.15-12.35,19.59c13.16,10.44,52.29,50.79,63.31,140.91c-0.87,1.14-4.41,32.36-41.65,81.1
			c0.21,0.04,9.43-71.29-40.53-115.21c-10.67-9.15-24.51,1.94-13.46,12.29s43.35,50.31,39.54,122.75
			c-0.22,0.26-11.44,19.7-54.68,52.92c2,0.54-3.57-121.31-76.6-186.96c-15.04-11.67-34.76,1.58-18.64,17.57
			c16.12,15.99,70.94,88.56,70.16,187.15c-0.45-0.21-74.05,50.75-138.1-31.03s-49.23-140.69-49.23-140.69s9.12-18.65,117.2-112.98
			c83.71-71.21,196.36-193.21,225.61-190.35C638.5-945.3,666.26-901.43,659.35-830.45z"/>
	</g>
	<g id="leaf_x5F_sm" transform="matrix(-0.259, -0.966, 0.966, -0.259, 1485.566, 498.648)">
		<linearGradient id="Path_116-2_1_" gradientUnits="userSpaceOnUse" x1="543.8853" y1="-670.1097" x2="419.2026" y2="-869.4753">
			<stop  offset="0" style="stop-color:#FFBC70"/>
			<stop  offset="1" style="stop-color:#6BE1FF"/>
		</linearGradient>
		<path id="Path_116-2" class="st3" d="M542.43-693.77c0,0.11,14.46-20.93,11.85-31.1c-0.25-1.56-1.72-2.62-3.28-2.36
			c-0.69,0.11-1.32,0.47-1.76,1.01c-1.99,1.72-11.89,30.85-24.17,32.4c-12.66,1.28-25.44,0.37-37.79-2.7
			c1.18-0.73,22.35-11.15,39.9-38.42c5.04-7.16-3.88-10.82-6.99-6.95c-3.11,3.87-22.38,30.31-46.72,39.63
			c-0.54-0.28-15.44,1.63-38.54-10.33c0,0.09,31.55-4.79,64.37-47.82c3.03-5.13-4.23-10.47-9.12-4.17
			c-4.9,6.3-35.38,41.31-69.54,43.87c-0.12-0.07-12.36-1.31-29.43-16.92c2.67-0.97,26.7-0.15,69.17-43.86
			c3.32-3.72-1.32-10.22-6.96-6.1c-5.65,4.12-30.9,34.37-71.47,40.8c0.05-0.2-26.66-27.19,2.77-59.97
			c29.43-32.78,56.62-35.14,56.62-35.14s7.35,3.53,55.05,42.11c22.52,18.21,98.61,78.52,95.04,87.69
			C591.69-712.22,579.15-694.73,542.43-693.77z"/>
		<linearGradient id="Path_117-2_1_" gradientUnits="userSpaceOnUse" x1="386.9077" y1="-1013.1894" x2="578.1716" y2="-717.2462">
			<stop  offset="0" style="stop-color:#C9FFFE"/>
			<stop  offset="1" style="stop-color:#FFCB6B"/>
		</linearGradient>
		<path id="Path_117-2" class="st4" d="M613.32-781.48c0.1-0.02-7.43,16.02-21.22,25.37c-8.05,5.46-12.54-2.12-9.5-5.92
			c3.82-3.2,19.59-15.03,25.89-34.11c0.33,0.31,4.2-14.95-6.98-40.15c-0.52,1.29-5.09,37.33-30.3,57.39
			c-10.85,6.78-16.43-0.81-8.12-7.2c8.32-6.39,31.28-40.21,29.6-67.02c-0.37-0.48-1.87-13.73-17.67-34.41
			c0.09-0.02,4,30.24-17.19,48.87c-4.53,3.88-10.4-0.83-5.71-5.21c4.69-4.39,18.39-21.34,16.77-52.07
			c-0.09-0.11-4.85-8.36-23.2-22.45c0.85-0.23-1.51,51.47-32.5,79.31c-6.38,4.95-14.75-0.67-7.91-7.45
			c6.84-6.78,30.09-37.57,29.77-79.4c-0.19,0.09-31.42-21.53-58.59,13.16s-20.89,59.68-20.89,59.68s3.87,7.91,49.72,47.93
			c35.51,30.21,90.87,86.51,97.84,79.96C603.1-724.9,616.24-751.37,613.32-781.48z"/>
	</g>
	<g id="web_x5F_page" transform="translate(24.705 12)">
		<path id="Rectangle_72" class="st5" d="M95.25,114.35h470c3.87,0,7,3.13,7,7v266c0,3.87-3.13,7-7,7h-470c-3.87,0-7-3.13-7-7v-266
			C88.25,117.48,91.38,114.35,95.25,114.35z"/>
		<path class="st6" d="M198.53,184.73v-10.77c0-5.31,4.31-9.62,9.62-9.62h244.59c5.31,0,9.62,4.31,9.62,9.62v10.77
			c0,5.31-4.31,9.62-9.62,9.62H208.15C202.84,194.35,198.53,190.04,198.53,184.73z"/>
		<line id="Line_1" class="st7" x1="90.75" y1="140.85" x2="568.75" y2="140.85"/>
		<g id="scroll" transform="translate(0 16)">
			<g id="Rectangle_74" transform="translate(1203 312)">
				<path class="st8" d="M-983.75-113.65h223c14.36,0,26,11.64,26,26v280c0,19.88-16.12,36-36,36h-239l0,0v-316
					C-1009.75-102.01-998.11-113.65-983.75-113.65z"/>
				<path class="st9" d="M-983.75-110.15h223c12.43,0,22.5,10.07,22.5,22.5v280c0,17.95-14.55,32.5-32.5,32.5l0,0h-232
					c-1.93,0-3.5-1.57-3.5-3.5v-309C-1006.25-100.08-996.18-110.15-983.75-110.15z"/>
			</g>
			<path id="Path_111" class="st9" d="M234.92,259.44l12.47-14.28l13.83,14.28l15.03-14.28l15.07,14.28l14.06-14.28l13.64,14.28
				l15.42-14.28l14.15,14.28"/>
			<line id="Line_3" class="st7" x1="234.75" y1="297.85" x2="424.75" y2="297.85"/>
			<line id="Line_4" class="st7" x1="234.75" y1="332.85" x2="424.75" y2="332.85"/>
			<line id="Line_5" class="st7" x1="234.75" y1="367.85" x2="386.75" y2="367.85"/>
			<line id="Line_6" class="st7" x1="234.75" y1="401.85" x2="419.75" y2="401.85"/>
			<line id="Line_7" class="st7" x1="234.75" y1="436.85" x2="412.75" y2="436.85"/>
			<g id="Rectangle_82" transform="translate(1167 582)">
				<path class="st8" d="M-973.75-113.65h239l0,0v72l0,0h-239c-19.88,0-36-16.12-36-36l0,0
					C-1009.75-97.54-993.63-113.65-973.75-113.65z"/>
				<path class="st10" d="M-973.75-110.15h232c1.93,0,3.5,1.57,3.5,3.5l0,0v58c0,1.93-1.57,3.5-3.5,3.5h-232
					c-17.95,0-32.5-14.55-32.5-32.5l0,0C-1006.25-95.6-991.7-110.15-973.75-110.15z"/>
			</g>
			<g id="Path_110" transform="translate(1406 582)">
				<path class="st8" d="M-973.75-45.15c-4.39,0-8.64-0.86-12.65-2.55c-3.87-1.64-7.35-3.98-10.33-6.97
					c-2.99-2.99-5.33-6.46-6.97-10.33c-1.69-4-2.55-8.26-2.55-12.65c0-2.37,0.26-4.74,0.77-7.02c0.5-2.26,1.27-4.52,2.28-6.72
					c1.13-2.47,2.63-4.82,4.45-7c1.84-2.2,3.96-4.17,6.31-5.85c2.6-1.86,5.49-3.32,8.61-4.33c3.25-1.05,6.64-1.58,10.09-1.58
					c3.48,0,6.86,0.55,10.32,1.68c3.4,1.11,6.83,2.97,9.91,5.38c1.77,1.38,3.34,2.91,4.93,4.82c2.28,2.73,4.08,5.86,5.34,9.31
					c1.33,3.62,2,7.43,2,11.31c0,4.39-0.86,8.64-2.55,12.65c-1.64,3.87-3.98,7.35-6.97,10.33c-2.99,2.99-6.46,5.33-10.33,6.97
					C-965.11-46.01-969.36-45.15-973.75-45.15z"/>
				<path d="M-973.75-106.65c-6.01,0-11.93,1.87-16.65,5.26c-4.18,3-7.6,7.07-9.61,11.47c-1.84,4-2.73,8.02-2.73,12.28
					c0,15.99,13.01,29,29,29c15.99,0,29-13.01,29-29c0-6.82-2.32-13.35-6.53-18.38c-1.43-1.71-2.83-3.08-4.4-4.31
					c-2.76-2.16-5.82-3.82-8.84-4.81C-967.62-106.16-970.64-106.65-973.75-106.65 M-973.75-113.65c3.87,0,7.61,0.61,11.41,1.86
					c3.78,1.24,7.57,3.29,10.97,5.94c1.92,1.5,3.68,3.21,5.46,5.33c4.98,5.94,8.16,14.03,8.16,22.87c0,19.88-16.12,36-36,36
					c-19.88,0-36-16.12-36-36c0-5.32,1.15-10.37,3.37-15.2c2.53-5.51,6.68-10.5,11.9-14.24
					C-988.8-111.17-981.57-113.65-973.75-113.65z"/>
			</g>
		</g>
		<g id="mug" transform="translate(-28 -5)">
			<g id="Group_34" transform="translate(8 -56)">
				<g id="Rectangle_79" transform="translate(1525 469)">
					<path class="st8" d="M-996.75-113.65h81c7.18,0,13,5.82,13,13v97c0,22.09-17.91,40-40,40h-27c-22.09,0-40-17.91-40-40v-97
						C-1009.75-107.83-1003.93-113.65-996.75-113.65z"/>
					<path class="st10" d="M-996.75-110.15h68.37h5.7h6.93c5.25,0,9.5,4.25,9.5,9.5v97c0,20.16-16.34,36.5-36.5,36.5h-27
						c-20.16,0-36.5-16.34-36.5-36.5v-97C-1006.25-105.9-1002-110.15-996.75-110.15z"/>
				</g>
				<g>
					<g>
						<path class="st11" d="M638.25,384.85h-16c-1.93,0-3.5,1.57-3.5,3.5v16c0-1.93,1.57-3.5,3.5-3.5h11c0.28,0,0.5,0.22,0.5,0.5v42
							c0,4.14-3.36,7.5-7.5,7.5h-4c-1.93,0-3.5-1.57-3.5-3.5v17c0,1.93,1.57,3.5,3.5,3.5h8c9.11,0,16.5-7.39,16.5-16.5v-58
							C646.75,388.65,642.94,384.85,638.25,384.85z"/>
					</g>
				</g>
			</g>
			<g id="Group_36" transform="translate(-37)">
				<line id="Line_8" class="st12" x1="597.71" y1="300.06" x2="597.71" y2="337.06"/>
				<g id="Path_113" transform="translate(1590 442)">
					<path class="st8" d="M-984.75-81.15h-15c-4.14,0-7.5-3.36-7.5-7.5v-15c0-4.14,3.36-7.5,7.5-7.5h15c4.14,0,7.5,3.36,7.5,7.5v15
						C-977.25-84.52-980.62-81.15-984.75-81.15z"/>
					<path d="M-999.75-108.65c-2.76,0-5,2.24-5,5v15c0,2.76,2.24,5,5,5h15c2.76,0,5-2.24,5-5v-15c0-2.76-2.24-5-5-5H-999.75
						 M-999.75-113.65h15c5.52,0,10,4.48,10,10v15c0,5.52-4.48,10-10,10h-15c-5.52,0-10-4.48-10-10v-15
						C-1009.75-109.18-1005.28-113.65-999.75-113.65z"/>
				</g>
				<g id="Group_35" transform="matrix(0.966, -0.259, 0.259, 0.966, -59.956, 434.975)">
					<path id="Path_112" class="st13" d="M660.29,89.42c9.29-5.19-5.63-11.88-5.63-11.88S651.01,94.61,660.29,89.42z"/>
					<line id="Line_9" class="st14" x1="655.7" y1="79.4" x2="662.29" y2="92.67"/>
				</g>
			</g>
		</g>
		<g id="mag" transform="translate(0 7)">
			<g id="Ellipse_9" transform="translate(1496 274)">
				<circle class="st16" cx="-1056.7" cy="-101.65" r="8"/>
				<circle class="st17" cx="-1056.7" cy="-101.65" r="6.5"/>
			</g>
			<line id="Line_10" class="st18" x1="445.8" y1="175.85" x2="449.8" y2="177.85"/>
		</g>
	</g>
</g>
<g id="leaf_x5F_patterns">
	<g>
		<g>
			<path d="M643.69,114.05c3.62,4.88,6.44,10.26,8.4,16.01c2.08,6.13,3.25,12.53,4.11,18.93c0.17,1.27,2.1,0.73,1.93-0.53
				c-1.71-12.69-4.99-24.99-12.71-35.42C644.66,112.01,642.92,113.01,643.69,114.05L643.69,114.05z"/>
		</g>
	</g>
	<g>
		<g>
			<path d="M659.62,161.23c1.52,9.03,1.2,18.29-0.89,27.2c-0.29,1.25,1.63,1.79,1.93,0.53c2.18-9.28,2.47-18.87,0.89-28.27
				C661.34,159.43,659.41,159.97,659.62,161.23L659.62,161.23z"/>
		</g>
	</g>
	<g>
		<g>
			<path d="M654.16,198.76c-2.27,8.16-5.8,15.89-10.47,22.96c-0.71,1.08,1.02,2.08,1.73,1.01c4.76-7.2,8.36-15.12,10.67-23.44
				C656.43,198.05,654.51,197.52,654.16,198.76L654.16,198.76z"/>
		</g>
	</g>
	<g>
		<g>
			<path d="M638.13,234.48c-4.16,9.9-10.19,18.96-17.66,26.66c-0.9,0.92,0.52,2.34,1.41,1.41c7.73-7.97,13.87-17.31,18.18-27.55
				C640.56,233.82,638.62,233.31,638.13,234.48L638.13,234.48z"/>
		</g>
	</g>
	<g>
		<g>
			<path d="M613.73,271.19c-4.24,5.18-9.16,9.78-14.65,13.61c-1.05,0.73-0.05,2.47,1.01,1.73c5.63-3.93,10.71-8.61,15.06-13.93
				C615.95,271.61,614.54,270.19,613.73,271.19L613.73,271.19z"/>
		</g>
	</g>
	<g>
		<g>
			<path d="M667.2,259.31c-2.59,9.67-8.15,18.32-15.84,24.73c-0.99,0.82,0.43,2.23,1.41,1.41c7.94-6.61,13.68-15.64,16.36-25.61
				C669.46,258.59,667.53,258.06,667.2,259.31L667.2,259.31z"/>
		</g>
	</g>
	<g>
		<g>
			<path d="M642.4,292.62c-5.82,7.06-12.96,12.91-21.04,17.21c-1.14,0.61-0.13,2.33,1.01,1.73c8.21-4.38,15.52-10.34,21.45-17.52
				C644.63,293.05,643.22,291.63,642.4,292.62L642.4,292.62z"/>
		</g>
	</g>
	<g>
		<g>
			<path d="M678.97,220.15c-0.96,8.54-3.21,16.92-6.65,24.79c-0.51,1.17,1.21,2.19,1.73,1.01c3.59-8.23,5.91-16.89,6.92-25.8
				C681.12,218.87,679.11,218.88,678.97,220.15L678.97,220.15z"/>
		</g>
	</g>
	<g>
		<g>
			<path d="M668.15,208.56c-2.24,8.42-6.62,16.14-12.71,22.36c-0.9,0.92,0.51,2.34,1.41,1.41c6.33-6.47,10.9-14.5,13.23-23.25
				C670.41,207.85,668.48,207.32,668.15,208.56L668.15,208.56z"/>
		</g>
	</g>
	<g>
		<g>
			<path d="M663.5,221.7c2.17,7.55,4.69,14.99,7.55,22.3c0.46,1.19,2.4,0.67,1.93-0.53c-2.86-7.31-5.38-14.75-7.55-22.3
				C665.07,219.93,663.14,220.45,663.5,221.7L663.5,221.7z"/>
		</g>
	</g>
	<g>
		<g>
			<path d="M664.09,222.61c4.55,1.99,9.2,3.71,13.95,5.14c1.24,0.37,1.76-1.56,0.53-1.93c-4.58-1.38-9.09-3.02-13.48-4.94
				c-0.5-0.22-1.07-0.14-1.37,0.36C663.48,221.67,663.6,222.4,664.09,222.61L664.09,222.61z"/>
		</g>
	</g>
	<g>
		<g>
			<path d="M668.51,210.62c2.52,5.48,5.44,10.76,8.75,15.8c0.7,1.07,2.44,0.07,1.73-1.01c-3.31-5.04-6.23-10.32-8.75-15.8
				C669.7,208.45,667.98,209.46,668.51,210.62L668.51,210.62z"/>
		</g>
	</g>
	<g>
		<g>
			<path d="M650.2,222.42c1.29,0,1.29-2,0-2C648.91,220.42,648.91,222.42,650.2,222.42L650.2,222.42z"/>
		</g>
	</g>
	<g>
		<g>
			<path d="M652.19,218.55c1.29,0,1.29-2,0-2C650.9,216.55,650.9,218.55,652.19,218.55L652.19,218.55z"/>
		</g>
	</g>
	<g>
		<g>
			<path d="M654.3,214.56c1.29,0,1.29-2,0-2C653.01,212.56,653.01,214.56,654.3,214.56L654.3,214.56z"/>
		</g>
	</g>
	<g>
		<g>
			<path d="M655.96,210.68c1.29,0,1.29-2,0-2C654.67,208.68,654.67,210.68,655.96,210.68L655.96,210.68z"/>
		</g>
	</g>
	<g>
		<g>
			<path d="M657.4,207.25c1.29,0,1.29-2,0-2C656.11,205.25,656.11,207.25,657.4,207.25L657.4,207.25z"/>
		</g>
	</g>
	<g>
		<g>
			<path d="M651.97,226.59c4.69-6.97,8.22-14.65,10.48-22.74c0.35-1.24-1.58-1.77-1.93-0.53c-2.22,7.93-5.68,15.43-10.28,22.26
				C649.52,226.65,651.25,227.66,651.97,226.59L651.97,226.59z"/>
		</g>
	</g>
	<g>
		<g>
			<path d="M655.01,222.84c0.09,0.07,0.19,0.14,0.28,0.21c0.07,0.05,0.08,0.07,0.01,0.01c0.05,0.04,0.09,0.07,0.14,0.11
				c0.2,0.15,0.39,0.31,0.59,0.46c0.38,0.3,0.76,0.6,1.13,0.91c0.75,0.62,1.49,1.24,2.21,1.88c0.39,0.35,1.03,0.42,1.41,0
				c0.35-0.38,0.42-1.04,0-1.41c-1.54-1.36-3.13-2.65-4.76-3.9c-0.19-0.15-0.55-0.16-0.77-0.1c-0.23,0.06-0.48,0.24-0.6,0.46
				C654.38,222,654.57,222.5,655.01,222.84L655.01,222.84z"/>
		</g>
	</g>
	<g>
		<g>
			<path d="M657.28,217.11c1.67,1.36,3.35,2.72,5.02,4.08c0.41,0.33,1.02,0.43,1.41,0c0.34-0.37,0.43-1.06,0-1.41
				c-1.67-1.36-3.35-2.72-5.02-4.08c-0.41-0.33-1.02-0.43-1.41,0C656.94,216.06,656.84,216.75,657.28,217.11L657.28,217.11z"/>
		</g>
	</g>
	<g>
		<g>
			<path d="M659.45,211.31c1.95,1.35,3.76,2.71,5.56,4.16c0.41,0.33,1.02,0.43,1.41,0c0.33-0.36,0.43-1.06,0-1.41
				c-1.93-1.56-3.92-3.06-5.96-4.47c-0.43-0.3-1.13-0.09-1.37,0.36C658.82,210.46,658.99,210.99,659.45,211.31L659.45,211.31z"/>
		</g>
	</g>
	<g>
		<g>
			<path d="M675.36,245.26c3.58-2.81,7.22-5.54,10.91-8.21c0.44-0.32,0.65-0.87,0.36-1.37c-0.25-0.43-0.93-0.68-1.37-0.36
				c-3.83,2.76-7.6,5.6-11.32,8.52c-0.43,0.33-0.35,1.06,0,1.41C674.37,245.68,674.94,245.59,675.36,245.26L675.36,245.26z"/>
		</g>
	</g>
	<g>
		<g>
			<path d="M676.61,249.36c-0.16,0.09-0.32,0.18-0.48,0.27c0.4,0.52,0.81,1.05,1.21,1.57c3.08-2.95,6.99-4.81,10.45-7.26
				c-0.4-0.52-0.81-1.05-1.21-1.57c-0.1,0.09-0.21,0.19-0.31,0.28c-0.96,0.86,0.46,2.27,1.41,1.41c0.1-0.09,0.21-0.19,0.31-0.28
				c0.83-0.75-0.28-2.23-1.21-1.57c-3.61,2.55-7.64,4.5-10.85,7.57c-0.83,0.8,0.23,2.12,1.21,1.57c0.16-0.09,0.32-0.18,0.48-0.27
				C678.74,250.46,677.73,248.73,676.61,249.36L676.61,249.36z"/>
		</g>
	</g>
	<g>
		<g>
			<path d="M679.7,231.55c1.78-1.57,3.59-3.08,5.45-4.56c-0.47,0-0.94,0-1.41,0c0.01,0.01,0.02,0.03,0.03,0.04
				c-0.09-0.15-0.17-0.29-0.26-0.44c0,0.02,0.01,0.03,0.01,0.05c0-0.18,0-0.35,0-0.53c0.02-0.05,0.04-0.09,0.06-0.14
				c0.12-0.12,0.24-0.24,0.36-0.36c-0.01,0.01-0.03,0.02-0.04,0.03c-0.46,0.26-0.65,0.92-0.36,1.37c0.3,0.46,0.88,0.64,1.37,0.36
				c0.67-0.38,0.72-1.23,0.24-1.78c-0.38-0.44-1.01-0.32-1.41,0c-1.86,1.47-3.67,2.99-5.45,4.56c-0.39,0.35-0.38,1.06,0,1.41
				C678.71,231.93,679.28,231.92,679.7,231.55L679.7,231.55z"/>
		</g>
	</g>
	<g>
		<g>
			<path d="M658.28,278.9c0.8,4.48,1.46,8.99,2,13.51c0.06,0.54,0.41,0.99,1,1c0.49,0.01,1.06-0.46,1-1
				c-0.55-4.7-1.24-9.38-2.07-14.04C659.99,277.11,658.06,277.64,658.28,278.9L658.28,278.9z"/>
		</g>
	</g>
	<g>
		<g>
			<path d="M663.84,268.67c1.04,11.59,2.09,23.17,3.13,34.76c0.11,1.27,2.12,1.28,2,0c-1.04-11.59-2.09-23.17-3.13-34.76
				C665.72,267.4,663.72,267.39,663.84,268.67L663.84,268.67z"/>
		</g>
	</g>
	<g>
		<g>
			<path d="M667.3,261.86c2.74,12.41,5.5,24.84,9.65,36.87c0.42,1.21,2.35,0.69,1.93-0.53c-4.15-12.03-6.91-24.46-9.65-36.87
				C668.95,260.07,667.02,260.6,667.3,261.86L667.3,261.86z"/>
		</g>
	</g>
	<g>
		<g>
			<path d="M630.74,304.95c-1.7,9.91-3.14,19.87-4.33,29.86c-0.15,1.28,1.85,1.26,2,0c1.17-9.81,2.59-19.59,4.26-29.33
				C632.88,304.22,630.96,303.68,630.74,304.95L630.74,304.95z"/>
		</g>
	</g>
	<g>
		<g>
			<path d="M638.12,298.6c-1.49,12.82-2.67,25.68-3.53,38.57c-0.09,1.28,1.91,1.28,2,0c0.86-12.88,2.03-25.74,3.53-38.57
				C640.27,297.33,638.27,297.34,638.12,298.6L638.12,298.6z"/>
		</g>
	</g>
	<g>
		<g>
			<path d="M646.52,297.65c-1.23,13.24-2.58,26.48-4.05,39.7c-0.14,1.28,1.86,1.27,2,0c1.47-13.22,2.82-26.45,4.05-39.7
				C648.64,296.36,646.64,296.37,646.52,297.65L646.52,297.65z"/>
		</g>
	</g>
	<g>
		<g>
			<path d="M654.04,306.79c-0.94,9.39-1.89,18.79-2.83,28.18c-0.13,1.28,1.87,1.27,2,0c0.94-9.39,1.89-18.79,2.83-28.18
				C656.16,305.51,654.16,305.52,654.04,306.79L654.04,306.79z"/>
		</g>
	</g>
	<g>
		<g>
			<path d="M643.06,275.14c6.98-7.18,12.89-15.35,17.52-24.23c0.59-1.14-1.13-2.15-1.73-1.01c-4.55,8.74-10.33,16.76-17.2,23.83
				C640.75,274.65,642.16,276.06,643.06,275.14L643.06,275.14z"/>
		</g>
	</g>
	<g>
		<g>
			<path d="M649.72,265.16c-0.14,6.74,0.55,13.47,2.03,20.04c0.28,1.26,2.21,0.72,1.93-0.53c-1.44-6.41-2.09-12.95-1.96-19.51
				C651.74,263.87,649.74,263.87,649.72,265.16L649.72,265.16z"/>
		</g>
	</g>
	<g>
		<g>
			<path d="M650.54,266.22c4.13,1.89,8.33,3.64,12.59,5.22c1.21,0.45,1.73-1.48,0.53-1.93c-4.1-1.53-8.14-3.2-12.12-5.02
				c-0.49-0.22-1.08-0.14-1.37,0.36C649.93,265.28,650.05,265.99,650.54,266.22L650.54,266.22z"/>
		</g>
	</g>
	<g>
		<g>
			<path d="M658.52,252.22c1.54,5.94,2.96,11.9,4.27,17.9c0.27,1.26,2.2,0.73,1.93-0.53c-1.31-5.99-2.73-11.96-4.27-17.9
				C660.12,250.44,658.19,250.97,658.52,252.22L658.52,252.22z"/>
		</g>
	</g>
	<g>
		<g>
			<path d="M599.78,302.57c9.1-7.49,17.29-15.99,24.48-25.33c0.78-1.02-0.95-2.02-1.73-1.01c-7.08,9.19-15.21,17.55-24.16,24.92
				C597.37,301.98,598.79,303.39,599.78,302.57L599.78,302.57z"/>
		</g>
	</g>
	<g>
		<g>
			<path d="M604.44,290.17c1.29,0,1.29-2,0-2C603.15,288.17,603.15,290.17,604.44,290.17L604.44,290.17z"/>
		</g>
	</g>
	<g>
		<g>
			<path d="M608.96,286.02c1.29,0,1.29-2,0-2C607.67,284.02,607.67,286.02,608.96,286.02L608.96,286.02z"/>
		</g>
	</g>
	<g>
		<g>
			<path d="M614.37,281.14c1.29,0,1.29-2,0-2C613.09,279.14,613.08,281.14,614.37,281.14L614.37,281.14z"/>
		</g>
	</g>
	<g>
		<g>
			<path d="M608.68,293.96c1.59,5.17,3.18,10.34,4.77,15.51c0.38,1.23,2.31,0.7,1.93-0.53c-1.59-5.17-3.18-10.34-4.77-15.51
				C610.23,292.2,608.3,292.72,608.68,293.96L608.68,293.96z"/>
		</g>
	</g>
	<g>
		<g>
			<path d="M609.21,294.22c7.88,3.44,15.86,6.64,23.94,9.58c1.21,0.44,1.73-1.49,0.53-1.93c-7.92-2.88-15.74-6-23.46-9.38
				C609.05,291.98,608.03,293.71,609.21,294.22L609.21,294.22z"/>
		</g>
	</g>
	<g>
		<g>
			<path d="M622.53,277.44c3.15,8.67,6.57,17.24,10.25,25.69c0.51,1.18,2.24,0.16,1.73-1.01c-3.61-8.3-6.95-16.71-10.04-25.22
				C624.03,275.71,622.09,276.23,622.53,277.44L622.53,277.44z"/>
		</g>
	</g>
	<g>
		<g>
			<path d="M676.85,168.07c-5.49,3.74-10.87,7.63-16.13,11.69c-0.43,0.33-0.65,0.86-0.36,1.37c0.24,0.42,0.94,0.69,1.37,0.36
				c5.26-4.05,10.64-7.95,16.13-11.69C678.91,169.08,677.91,167.34,676.85,168.07L676.85,168.07z"/>
		</g>
	</g>
	<g>
		<g>
			<path d="M661.5,181.48c8.79,7.09,16.88,14.99,24.18,23.61c0.83,0.98,2.24-0.44,1.41-1.41c-7.3-8.61-15.39-16.52-24.18-23.61
				C661.92,179.27,660.5,180.68,661.5,181.48L661.5,181.48z"/>
		</g>
	</g>
	<g>
		<g>
			<path d="M652.72,160.06c0.29,7.85,0.56,15.8-1.26,23.5c-0.3,1.25,1.63,1.79,1.93,0.53c1.87-7.88,1.63-16,1.34-24.03
				C654.67,158.77,652.67,158.77,652.72,160.06L652.72,160.06z"/>
		</g>
	</g>
	<g>
		<g>
			<path d="M643.23,157.66c1.07,8.02,0.45,16.15-1.84,23.91c-0.37,1.24,1.56,1.77,1.93,0.53c2.34-7.92,3-16.26,1.92-24.44
				C645.07,156.4,643.06,156.38,643.23,157.66L643.23,157.66z"/>
		</g>
	</g>
	<g>
		<g>
			<path d="M648.65,177.19c1.29,0,1.29-2,0-2C647.37,175.19,647.36,177.19,648.65,177.19L648.65,177.19z"/>
		</g>
	</g>
	<g>
		<g>
			<path d="M649.16,172.24c1.29,0,1.29-2,0-2C647.87,170.24,647.87,172.24,649.16,172.24L649.16,172.24z"/>
		</g>
	</g>
	<g>
		<g>
			<path d="M649.54,167.16c1.29,0,1.29-2,0-2C648.26,165.16,648.25,167.16,649.54,167.16L649.54,167.16z"/>
		</g>
	</g>
	<g>
		<g>
			<path d="M653.95,176.85c2.15,0.62,4.31,1.24,6.46,1.86c0.5,0.14,1.11-0.18,1.23-0.7c0.12-0.53-0.16-1.08-0.7-1.23
				c-2.15-0.62-4.31-1.24-6.46-1.86c-0.5-0.14-1.11,0.18-1.23,0.7C653.13,176.16,653.41,176.7,653.95,176.85L653.95,176.85z"/>
		</g>
	</g>
	<g>
		<g>
			<path d="M654.2,169.27c2.33,0.54,4.61,1.25,6.82,2.15c0.5,0.2,1.1-0.22,1.23-0.7c0.16-0.57-0.2-1.03-0.7-1.23
				c-2.22-0.89-4.5-1.61-6.82-2.15c-0.53-0.12-1.08,0.16-1.23,0.7C653.36,168.55,653.67,169.15,654.2,169.27L654.2,169.27z"/>
		</g>
	</g>
	<g>
		<g>
			<path d="M656.05,141.41c4.38,0.81,8.72,1.83,13,3.05c1.24,0.35,1.77-1.58,0.53-1.93c-4.28-1.22-8.62-2.23-13-3.05
				C655.32,139.25,654.78,141.18,656.05,141.41L656.05,141.41z"/>
		</g>
	</g>
	<g>
		<g>
			<path d="M653.02,130.78c3.45,0.46,6.89,1.02,10.31,1.68c0.53,0.1,1.08-0.15,1.23-0.7c0.13-0.49-0.17-1.13-0.7-1.23
				c-3.6-0.69-7.21-1.27-10.84-1.75c-0.54-0.07-1,0.51-1,1C652.02,130.38,652.48,130.71,653.02,130.78L653.02,130.78z"/>
		</g>
	</g>
	<g>
		<g>
			<path d="M649.38,121.13c1.92,0.28,3.83,0.63,5.72,1.04c0.51,0.11,1.11-0.15,1.23-0.7c0.11-0.5-0.15-1.11-0.7-1.23
				c-1.89-0.41-3.8-0.76-5.72-1.04c-0.52-0.08-1.1,0.13-1.23,0.7C648.57,120.37,648.82,121.05,649.38,121.13L649.38,121.13z"/>
		</g>
	</g>
	<g>
		<g>
			<path d="M629.78,261.32c1.29,0,1.29-2,0-2C628.49,259.32,628.49,261.32,629.78,261.32L629.78,261.32z"/>
		</g>
	</g>
	<g>
		<g>
			<path d="M633.48,255.61c1.29,0,1.29-2,0-2C632.19,253.61,632.19,255.61,633.48,255.61L633.48,255.61z"/>
		</g>
	</g>
	<g>
		<g>
			<path d="M637.84,248.55c1.29,0,1.29-2,0-2C636.56,246.55,636.56,248.55,637.84,248.55L637.84,248.55z"/>
		</g>
	</g>
	<g>
		<g>
			<path d="M641.2,242.51c1.29,0,1.29-2,0-2C639.92,240.51,639.92,242.51,641.2,242.51L641.2,242.51z"/>
		</g>
	</g>
	<g>
		<g>
			<path d="M646.59,240.44c-3.84,9.32-9.57,17.79-16.73,24.89c-0.92,0.91,0.5,2.32,1.41,1.41c7.42-7.35,13.26-16.12,17.24-25.77
				C649.01,239.79,647.08,239.27,646.59,240.44L646.59,240.44z"/>
		</g>
	</g>
	<g>
		<g>
			<path d="M636.66,260.34c3.52,2.81,7.1,5.55,10.74,8.2c0.44,0.32,1.12,0.07,1.37-0.36c0.3-0.51,0.08-1.05-0.36-1.37
				c-3.5-2.56-6.95-5.19-10.34-7.89c-0.42-0.34-1-0.41-1.41,0C636.31,259.27,636.23,260,636.66,260.34L636.66,260.34z"/>
		</g>
	</g>
	<g>
		<g>
			<path d="M642.01,252.61c3.48,2.99,7.11,5.81,10.86,8.45c0.44,0.31,1.11,0.08,1.37-0.36c0.29-0.5,0.08-1.06-0.36-1.37
				c-3.61-2.55-7.1-5.26-10.45-8.14c-0.41-0.35-1.01-0.4-1.41,0C641.65,251.56,641.6,252.26,642.01,252.61L642.01,252.61z"/>
		</g>
	</g>
	<g>
		<g>
			<path d="M644.24,194.29c-3.72,7.9-8.11,15.46-13.12,22.6c-0.74,1.06,0.99,2.06,1.73,1.01c5.01-7.14,9.4-14.71,13.12-22.6
				C646.51,194.15,644.79,193.13,644.24,194.29L644.24,194.29z"/>
		</g>
	</g>
	<g>
		<g>
			<path d="M627.51,229.31c-4.41,9.47-10.04,18.33-16.77,26.32c-0.82,0.98,0.58,2.4,1.41,1.41c6.84-8.12,12.6-17.09,17.08-26.72
				C629.78,229.16,628.05,228.15,627.51,229.31L627.51,229.31z"/>
		</g>
	</g>
	<g>
		<g>
			<path d="M606.32,265.15c-2.51,2.51-5.03,5.03-7.54,7.54c-0.91,0.91,0.5,2.33,1.41,1.41c2.51-2.51,5.03-5.03,7.54-7.54
				C608.65,265.65,607.23,264.24,606.32,265.15L606.32,265.15z"/>
		</g>
	</g>
	<g>
		<g>
			<path d="M632.15,128.44c5.06,6.49,8.33,14.34,9.39,22.5c0.16,1.26,2.17,1.27,2,0c-1.13-8.75-4.56-16.95-9.98-23.91
				C632.78,126.01,631.37,127.44,632.15,128.44L632.15,128.44z"/>
		</g>
	</g>
	<g>
		<g>
			<path d="M638.9,139.52c-5.52,1.89-11.05,3.79-16.57,5.68c-1.21,0.41-0.69,2.35,0.53,1.93c5.52-1.89,11.05-3.79,16.57-5.68
				C640.64,141.04,640.12,139.1,638.9,139.52L638.9,139.52z"/>
		</g>
	</g>
	<g>
		<g>
			<path d="M638.32,152.46c-7.72,2.28-15.43,4.55-23.15,6.83c-1.23,0.36-0.71,2.29,0.53,1.93c7.72-2.28,15.43-4.55,23.15-6.83
				C640.08,154.02,639.56,152.09,638.32,152.46L638.32,152.46z"/>
		</g>
	</g>
	<g>
		<g>
			<path d="M643.91,165.19c-11.92,3.67-23.95,6.99-35.87,10.66c-1.23,0.38-0.7,2.31,0.53,1.93c11.92-3.67,23.95-6.99,35.87-10.66
				C645.66,166.74,645.14,164.81,643.91,165.19L643.91,165.19z"/>
		</g>
	</g>
	<g>
		<g>
			<path d="M631.44,181.63c-9.82,2.72-19.65,5.44-29.47,8.16c-1.24,0.34-0.71,2.27,0.53,1.93c9.82-2.72,19.65-5.44,29.47-8.16
				C633.21,183.22,632.68,181.29,631.44,181.63L631.44,181.63z"/>
		</g>
	</g>
	<g>
		<g>
			<path d="M74.69,203.41c-4.58,5.47-8.55,11.41-11.83,17.75c-0.59,1.14,1.14,2.15,1.73,1.01c3.19-6.18,7.05-12,11.51-17.34
				C76.92,203.84,75.52,202.42,74.69,203.41L74.69,203.41z"/>
		</g>
	</g>
	<g>
		<g>
			<path d="M76.9,217.57c-5.37,6.98-10.3,14.29-14.76,21.88c-0.65,1.11,1.07,2.12,1.73,1.01c4.46-7.6,9.39-14.9,14.76-21.88
				C79.41,217.56,77.67,216.56,76.9,217.57L76.9,217.57z"/>
		</g>
	</g>
	<g>
		<g>
			<path d="M79.6,228.71c-6.07,7.6-12.14,15.32-15.79,24.43c-0.48,1.19,1.46,1.71,1.93,0.53c3.51-8.76,9.44-16.24,15.28-23.55
				C81.81,229.13,80.41,227.71,79.6,228.71L79.6,228.71z"/>
		</g>
	</g>
	<g>
		<g>
			<path d="M82.14,240.37c-6.17,7-11.69,14.54-16.47,22.55c-0.66,1.11,1.07,2.11,1.73,1.01c4.7-7.86,10.1-15.28,16.16-22.15
				C84.41,240.82,83,239.4,82.14,240.37L82.14,240.37z"/>
		</g>
	</g>
	<g>
		<g>
			<path d="M85.43,248.7c-7.23,6.74-13.36,14.6-18.15,23.24c-0.62,1.13,1.1,2.14,1.73,1.01c4.71-8.51,10.72-16.21,17.83-22.84
				C87.78,249.24,86.37,247.82,85.43,248.7L85.43,248.7z"/>
		</g>
	</g>
	<g>
		<g>
			<path d="M74.07,337.75c-3.22,6.46-5.96,13.16-8.17,20.04c-0.39,1.23,1.54,1.75,1.93,0.53c2.16-6.72,4.82-13.25,7.97-19.56
				C76.37,337.61,74.65,336.6,74.07,337.75L74.07,337.75z"/>
		</g>
	</g>
	<g>
		<g>
			<path d="M78.98,348.4c-3.92,6.95-7.15,14.27-9.66,21.85c-0.41,1.22,1.52,1.75,1.93,0.53c2.46-7.42,5.62-14.56,9.46-21.37
				C81.34,348.29,79.61,347.28,78.98,348.4L78.98,348.4z"/>
		</g>
	</g>
	<g>
		<g>
			<path d="M84.48,359.02c-4.75,6.82-8.6,14.22-11.5,22.01c-0.45,1.21,1.48,1.73,1.93,0.53c2.84-7.62,6.65-14.85,11.3-21.53
				C86.95,358.98,85.21,357.97,84.48,359.02L84.48,359.02z"/>
		</g>
	</g>
	<g>
		<g>
			<path d="M88.98,367.31c-4.62,6.77-8.61,13.95-11.9,21.46c-0.51,1.17,1.21,2.19,1.73,1.01c3.3-7.51,7.28-14.69,11.9-21.46
				C91.43,367.26,89.7,366.25,88.98,367.31L88.98,367.31z"/>
		</g>
	</g>
	<g>
		<g>
			<path d="M93.06,374.13c-4.95,7.3-9.06,15.12-12.29,23.33c-0.47,1.2,1.46,1.72,1.93,0.53c3.17-8.04,7.24-15.7,12.09-22.85
				C95.51,374.07,93.78,373.07,93.06,374.13L93.06,374.13z"/>
		</g>
	</g>
	<g>
		<g>
			<path d="M108.09,446.58c-2.52,5.7-4.41,11.64-5.59,17.76c-0.24,1.26,1.68,1.8,1.93,0.53c1.15-5.94,2.95-11.75,5.39-17.28
				C110.33,446.42,108.61,445.4,108.09,446.58L108.09,446.58z"/>
		</g>
	</g>
	<g>
		<g>
			<path d="M114.53,455.26c-2.44,6.09-4.6,12.28-6.49,18.57c-0.37,1.24,1.56,1.76,1.93,0.53c1.89-6.28,4.05-12.48,6.49-18.57
				C116.93,454.59,115,454.07,114.53,455.26L114.53,455.26z"/>
		</g>
	</g>
	<g>
		<g>
			<path d="M120.7,463.1c-2.52,6.27-4.67,12.68-6.44,19.2c-0.34,1.24,1.59,1.77,1.93,0.53c1.77-6.52,3.92-12.93,6.44-19.2
				C123.11,462.43,121.18,461.92,120.7,463.1L120.7,463.1z"/>
		</g>
	</g>
	<g>
		<g>
			<path d="M128.53,470.52c-2.38,6.41-4.76,12.83-7.14,19.24c-0.45,1.21,1.48,1.73,1.93,0.53c2.38-6.41,4.76-12.83,7.14-19.24
				C130.9,469.85,128.97,469.33,128.53,470.52L128.53,470.52z"/>
		</g>
	</g>
	<g>
		<g>
			<path d="M135.95,477.76c-3.15,6.36-5.68,13.01-7.54,19.86c-0.34,1.24,1.59,1.77,1.93,0.53c1.81-6.68,4.26-13.17,7.34-19.38
				C138.24,477.62,136.52,476.6,135.95,477.76L135.95,477.76z"/>
		</g>
	</g>
	<g>
		<g>
			<path d="M177.4,522.65c-2.43,5.63-4.34,11.45-5.68,17.44c-0.28,1.25,1.65,1.79,1.93,0.53c1.3-5.81,3.12-11.49,5.48-16.96
				C179.63,522.49,177.91,521.47,177.4,522.65L177.4,522.65z"/>
		</g>
	</g>
	<g>
		<g>
			<path d="M203.39,470.37c-1.91,3.52-3.83,7.04-5.74,10.56c-0.62,1.13,1.11,2.14,1.73,1.01c1.91-3.52,3.83-7.04,5.74-10.56
				C205.73,470.25,204,469.24,203.39,470.37L203.39,470.37z"/>
		</g>
	</g>
	<g>
		<g>
			<path d="M211.41,475.24c-2.58,3.51-4.68,7.32-6.34,11.34c-0.21,0.5,0.22,1.1,0.7,1.23c0.57,0.16,1.02-0.2,1.23-0.7
				c1.59-3.86,3.67-7.51,6.14-10.87c0.32-0.44,0.07-1.12-0.36-1.37C212.27,474.58,211.73,474.8,211.41,475.24L211.41,475.24z"/>
		</g>
	</g>
	<g>
		<g>
			<path d="M217.9,482.42c-1.98,2.47-3.49,5.24-4.46,8.26c-0.16,0.51,0.19,1.09,0.7,1.23c0.54,0.15,1.06-0.18,1.23-0.7
				c0.86-2.67,2.19-5.19,3.94-7.38c0.34-0.42,0.41-1,0-1.41C218.96,482.07,218.24,481.99,217.9,482.42L217.9,482.42z"/>
		</g>
	</g>
	<g>
		<g>
			<path d="M245.16,574.38c1.55-2.41,3.1-4.82,4.65-7.23c0.29-0.45,0.09-1.1-0.36-1.37c-0.48-0.28-1.08-0.1-1.37,0.36
				c-1.55,2.41-3.1,4.82-4.65,7.23c-0.29,0.45-0.09,1.1,0.36,1.37C244.27,575.02,244.86,574.83,245.16,574.38L245.16,574.38z"/>
		</g>
	</g>
	<g>
		<g>
			<path d="M257.3,576.95c2.92-3.18,5.83-6.35,8.75-9.53c0.87-0.95-0.54-2.36-1.41-1.41c-2.92,3.18-5.83,6.35-8.75,9.53
				C255.02,576.48,256.43,577.9,257.3,576.95L257.3,576.95z"/>
		</g>
	</g>
	<g>
		<g>
			<path d="M151.07,419.34c2.96-3.6,6.3-6.86,9.98-9.71c0.43-0.33,0.35-1.07,0-1.41c-0.42-0.42-0.99-0.33-1.41,0
				c-3.68,2.86-7.02,6.12-9.98,9.71c-0.34,0.42-0.41,1.01,0,1.41C150.01,419.69,150.72,419.75,151.07,419.34L151.07,419.34z"/>
		</g>
	</g>
	<g>
		<g>
			<path d="M168.06,414.45c-3.67,4.43-7.12,9.04-10.34,13.81c-0.72,1.07,1.01,2.07,1.73,1.01c3.12-4.63,6.46-9.11,10.02-13.41
				C170.29,414.88,168.88,413.46,168.06,414.45L168.06,414.45z"/>
		</g>
	</g>
	<g>
		<g>
			<path d="M176.77,421.87c-3.77,4.44-7.06,9.27-9.79,14.42c-0.6,1.14,1.12,2.15,1.73,1.01c2.65-4.99,5.82-9.7,9.48-14.01
				C179.01,422.31,177.6,420.89,176.77,421.87L176.77,421.87z"/>
		</g>
	</g>
	<g>
		<g>
			<path d="M111.65,102.67c-3.37-3.07-7.18-5.64-11.31-7.57c-0.49-0.23-1.08-0.14-1.37,0.36c-0.25,0.43-0.13,1.14,0.36,1.37
				c3.98,1.86,7.66,4.29,10.9,7.26C111.18,104.96,112.6,103.55,111.65,102.67L111.65,102.67z"/>
		</g>
	</g>
	<g>
		<g>
			<path d="M106.86,111.04c-3.56-2.41-7.49-4.24-11.61-5.43c-1.24-0.36-1.77,1.57-0.53,1.93c3.97,1.15,7.71,2.91,11.13,5.23
				C106.92,113.49,107.92,111.75,106.86,111.04L106.86,111.04z"/>
		</g>
	</g>
	<g>
		<g>
			<path d="M103.66,118.22c-3.71-1.49-7.53-2.69-11.42-3.59c-1.25-0.29-1.79,1.64-0.53,1.93c3.89,0.9,7.71,2.1,11.42,3.59
				c0.5,0.2,1.1-0.22,1.23-0.7C104.52,118.88,104.16,118.42,103.66,118.22L103.66,118.22z"/>
		</g>
	</g>
	<g>
		<g>
			<path d="M101.08,125.38c-3.85-1.01-7.82-1.53-11.8-1.56c-1.29-0.01-1.29,1.99,0,2c3.81,0.03,7.58,0.53,11.27,1.49
				C101.79,127.64,102.33,125.71,101.08,125.38L101.08,125.38z"/>
		</g>
	</g>
	<g>
		<g>
			<path d="M99.36,132.9c-4.23,0.09-8.49,0.26-12.44,1.93c-0.5,0.21-0.61,0.94-0.36,1.37c0.3,0.52,0.87,0.57,1.37,0.36
				c3.59-1.52,7.6-1.58,11.43-1.66C100.65,134.88,100.65,132.88,99.36,132.9L99.36,132.9z"/>
		</g>
	</g>
	<g>
		<g>
			<path d="M137.88,79.02c-2.55-4.76-4.56-9.78-6.02-14.98c-0.35-1.24-2.28-0.71-1.93,0.53c1.5,5.36,3.59,10.55,6.22,15.46
				C136.77,81.17,138.49,80.16,137.88,79.02L137.88,79.02z"/>
		</g>
	</g>
	<g>
		<g>
			<path d="M148.66,74.88c-1.64-5.17-2.65-10.51-2.96-15.93c-0.08-1.28-2.08-1.29-2,0c0.33,5.59,1.34,11.12,3.03,16.46
				C147.12,76.63,149.05,76.11,148.66,74.88L148.66,74.88z"/>
		</g>
	</g>
	<g>
		<g>
			<path d="M158.38,72.57c-0.97-5.26-1.23-10.63-0.81-15.97c0.1-1.28-1.9-1.28-2,0c-0.43,5.52-0.12,11.06,0.88,16.5
				C156.68,74.37,158.61,73.83,158.38,72.57L158.38,72.57z"/>
		</g>
	</g>
	<g>
		<g>
			<path d="M168.5,71.78c1.46-5.85,3.67-11.47,6.61-16.73c0.63-1.13-1.1-2.14-1.73-1.01c-3.01,5.41-5.31,11.2-6.81,17.21
				C166.26,72.49,168.19,73.03,168.5,71.78L168.5,71.78z"/>
		</g>
	</g>
	<g>
		<g>
			<path d="M296.2,67.33c6.61-3.82,13.77-6.55,21.24-8.13c1.26-0.27,0.73-2.19-0.53-1.93c-7.63,1.61-14.97,4.43-21.72,8.33
				C294.08,66.24,295.08,67.97,296.2,67.33L296.2,67.33z"/>
		</g>
	</g>
	<g>
		<g>
			<path d="M286.36,60.61c5.77-3.3,11.91-5.84,18.32-7.58c1.24-0.34,0.71-2.27-0.53-1.93c-6.57,1.78-12.89,4.4-18.8,7.78
				C284.23,59.52,285.24,61.25,286.36,60.61L286.36,60.61z"/>
		</g>
	</g>
	<g>
		<g>
			<path d="M274.87,54.48c4.17-3.31,8.95-5.81,14.03-7.39c1.22-0.38,0.7-2.31-0.53-1.93c-5.43,1.69-10.46,4.37-14.91,7.9
				c-0.43,0.34-0.35,1.06,0,1.41C273.87,54.9,274.45,54.82,274.87,54.48L274.87,54.48z"/>
		</g>
	</g>
	<g>
		<g>
			<path d="M265.15,50.76c4.04-2.9,8.44-5.27,13.1-7.01c1.2-0.45,0.68-2.38-0.53-1.93c-4.83,1.8-9.4,4.21-13.58,7.21
				c-0.44,0.32-0.64,0.87-0.36,1.37C264.03,50.84,264.72,51.08,265.15,50.76L265.15,50.76z"/>
		</g>
	</g>
	<g>
		<g>
			<path d="M394.92,120.01c10.02-3.48,20.42-5.76,30.98-6.73c1.27-0.12,1.28-2.12,0-2c-10.74,0.99-21.32,3.26-31.51,6.8
				C393.18,118.5,393.7,120.43,394.92,120.01L394.92,120.01z"/>
		</g>
	</g>
	<g>
		<g>
			<path d="M382.57,111.41c4.38-1.71,8.76-3.42,13.13-5.12c4.21-1.64,8.42-3.41,12.9-4.17c1.27-0.21,0.73-2.14-0.53-1.93
				c-4.48,0.76-8.69,2.53-12.9,4.17c-4.38,1.71-8.76,3.42-13.13,5.12C380.85,109.95,381.37,111.88,382.57,111.41L382.57,111.41z"/>
		</g>
	</g>
	<g>
		<g>
			<path d="M370.26,103.4c7.19-3.77,14.65-6.97,22.34-9.59c1.21-0.41,0.69-2.35-0.53-1.93c-7.84,2.67-15.47,5.94-22.81,9.79
				C368.11,102.27,369.12,103.99,370.26,103.4L370.26,103.4z"/>
		</g>
	</g>
	<g>
		<g>
			<path d="M112.67,442.22c3.22,0,3.22-5,0-5C109.46,437.22,109.45,442.22,112.67,442.22L112.67,442.22z"/>
		</g>
	</g>
	<g>
		<g>
			<path d="M118.37,449.63c3.22,0,3.22-5,0-5C115.16,444.63,115.15,449.63,118.37,449.63L118.37,449.63z"/>
		</g>
	</g>
	<g>
		<g>
			<path d="M125.21,457.89c3.22,0,3.22-5,0-5C121.99,452.89,121.99,457.89,125.21,457.89L125.21,457.89z"/>
		</g>
	</g>
	<g>
		<g>
			<path d="M132.05,466.15c3.22,0,3.22-5,0-5C128.83,461.15,128.83,466.15,132.05,466.15L132.05,466.15z"/>
		</g>
	</g>
	<g>
		<g>
			<path d="M139.17,472.99c3.22,0,3.22-5,0-5C135.95,467.99,135.95,472.99,139.17,472.99L139.17,472.99z"/>
		</g>
	</g>
	<g>
		<g>
			<path d="M145.72,478.41c3.22,0,3.22-5,0-5C142.51,473.41,142.5,478.41,145.72,478.41L145.72,478.41z"/>
		</g>
	</g>
	<g>
		<g>
			<path d="M79.54,335.51c3.22,0,3.22-5,0-5C76.32,330.51,76.32,335.51,79.54,335.51L79.54,335.51z"/>
		</g>
	</g>
	<g>
		<g>
			<path d="M83.81,345.19c3.22,0,3.22-5,0-5C80.6,340.19,80.59,345.19,83.81,345.19L83.81,345.19z"/>
		</g>
	</g>
	<g>
		<g>
			<path d="M88.94,355.17c3.22,0,3.22-5,0-5C85.73,350.17,85.72,355.17,88.94,355.17L88.94,355.17z"/>
		</g>
	</g>
	<g>
		<g>
			<path d="M94.36,363.71c3.22,0,3.22-5,0-5C91.14,358.71,91.13,363.71,94.36,363.71L94.36,363.71z"/>
		</g>
	</g>
	<g>
		<g>
			<path d="M98.91,370.55c3.22,0,3.22-5,0-5C95.7,365.55,95.69,370.55,98.91,370.55L98.91,370.55z"/>
		</g>
	</g>
	<g>
		<g>
			<path d="M81.87,198.02c3.22,0,3.22-5,0-5C78.65,193.02,78.65,198.02,81.87,198.02L81.87,198.02z"/>
		</g>
	</g>
	<g>
		<g>
			<path d="M83.01,207.13c3.22,0,3.22-5,0-5C79.79,202.13,79.79,207.13,83.01,207.13L83.01,207.13z"/>
		</g>
	</g>
	<g>
		<g>
			<path d="M84.72,217.11c3.22,0,3.22-5,0-5C81.5,212.11,81.5,217.11,84.72,217.11L84.72,217.11z"/>
		</g>
	</g>
	<g>
		<g>
			<path d="M86.43,227.65c3.22,0,3.22-5,0-5C83.21,222.65,83.2,227.65,86.43,227.65L86.43,227.65z"/>
		</g>
	</g>
	<g>
		<g>
			<path d="M89.85,239.04c3.22,0,3.22-5,0-5C86.63,234.04,86.62,239.04,89.85,239.04L89.85,239.04z"/>
		</g>
	</g>
	<g>
		<g>
			<path d="M91.84,246.74c3.22,0,3.22-5,0-5C88.62,241.74,88.62,246.74,91.84,246.74L91.84,246.74z"/>
		</g>
	</g>
	<g>
		<g>
			<path d="M116.66,110.34c3.22,0,3.22-5,0-5C113.44,105.34,113.43,110.34,116.66,110.34L116.66,110.34z"/>
		</g>
	</g>
	<g>
		<g>
			<path d="M112.95,118.32c3.22,0,3.22-5,0-5C109.74,113.32,109.73,118.32,112.95,118.32L112.95,118.32z"/>
		</g>
	</g>
	<g>
		<g>
			<path d="M111.24,126.29c3.22,0,3.22-5,0-5C108.03,121.29,108.02,126.29,111.24,126.29L111.24,126.29z"/>
		</g>
	</g>
	<g>
		<g>
			<path d="M109.25,133.99c3.22,0,3.22-5,0-5C106.03,128.99,106.03,133.99,109.25,133.99L109.25,133.99z"/>
		</g>
	</g>
	<g>
		<g>
			<path d="M180.08,517.9c3.22,0,3.22-5,0-5C176.86,512.9,176.85,517.9,180.08,517.9L180.08,517.9z"/>
		</g>
	</g>
	<g>
		<g>
			<path d="M208.08,466.09c3.22,0,3.22-5,0-5C204.86,461.09,204.86,466.09,208.08,466.09L208.08,466.09z"/>
		</g>
	</g>
	<g>
		<g>
			<path d="M215.78,471.34c3.22,0,3.22-5,0-5C212.57,466.34,212.56,471.34,215.78,471.34L215.78,471.34z"/>
		</g>
	</g>
	<g>
		<g>
			<path d="M179.93,415.49c3.22,0,3.22-5,0-5C176.71,410.49,176.71,415.49,179.93,415.49L179.93,415.49z"/>
		</g>
	</g>
	<g>
		<g>
			<path d="M141.04,90.44c3.22,0,3.22-5,0-5C137.82,85.44,137.82,90.44,141.04,90.44L141.04,90.44z"/>
		</g>
	</g>
	<g>
		<g>
			<path d="M150.38,86.28c3.22,0,3.22-5,0-5C147.17,81.28,147.16,86.28,150.38,86.28L150.38,86.28z"/>
		</g>
	</g>
	<g>
		<g>
			<path d="M162.15,82.82c3.22,0,3.22-5,0-5C158.93,77.82,158.93,82.82,162.15,82.82L162.15,82.82z"/>
		</g>
	</g>
	<g>
		<g>
			<path d="M155.92,106.09c3.22,0,3.22-5,0-5C152.7,101.09,152.7,106.09,155.92,106.09L155.92,106.09z"/>
		</g>
	</g>
	<g>
		<g>
			<path d="M168.38,100.56c3.22,0,3.22-5,0-5C165.16,95.56,165.15,100.56,168.38,100.56L168.38,100.56z"/>
		</g>
	</g>
	<g>
		<g>
			<path d="M182.22,98.83c3.22,0,3.22-5,0-5C179,93.83,179,98.83,182.22,98.83L182.22,98.83z"/>
		</g>
	</g>
	<g>
		<g>
			<path d="M196.06,96.75c3.22,0,3.22-5,0-5C192.84,91.75,192.84,96.75,196.06,96.75L196.06,96.75z"/>
		</g>
	</g>
	<g>
		<g>
			<path d="M208.17,97.79c3.22,0,3.22-5,0-5C204.95,92.79,204.95,97.79,208.17,97.79L208.17,97.79z"/>
		</g>
	</g>
	<g>
		<g>
			<path d="M219.24,100.56c3.22,0,3.22-5,0-5C216.03,95.56,216.02,100.56,219.24,100.56L219.24,100.56z"/>
		</g>
	</g>
	<g>
		<g>
			<path d="M230.32,104.02c3.22,0,3.22-5,0-5C227.1,99.02,227.09,104.02,230.32,104.02L230.32,104.02z"/>
		</g>
	</g>
	<g>
		<g>
			<path d="M243.47,109.21c3.22,0,3.22-5,0-5C240.25,104.21,240.24,109.21,243.47,109.21L243.47,109.21z"/>
		</g>
	</g>
	<g>
		<g>
			<path d="M245.63,56.18c3.22,0,3.22-5,0-5C242.41,51.18,242.41,56.18,245.63,56.18L245.63,56.18z"/>
		</g>
	</g>
	<g>
		<g>
			<path d="M257.39,59.64c3.22,0,3.22-5,0-5C254.18,54.64,254.17,59.64,257.39,59.64L257.39,59.64z"/>
		</g>
	</g>
	<g>
		<g>
			<path d="M267.77,64.48c3.22,0,3.22-5,0-5C264.56,59.48,264.55,64.48,267.77,64.48L267.77,64.48z"/>
		</g>
	</g>
	<g>
		<g>
			<path d="M277.46,69.67c3.22,0,3.22-5,0-5C274.25,64.67,274.24,69.67,277.46,69.67L277.46,69.67z"/>
		</g>
	</g>
	<g>
		<g>
			<path d="M285.77,74.87c3.22,0,3.22-5,0-5C282.55,69.87,282.55,74.87,285.77,74.87L285.77,74.87z"/>
		</g>
	</g>
	<g>
		<g>
			<path d="M340.7,101.39c3.22,0,3.22-5,0-5C337.48,96.39,337.48,101.39,340.7,101.39L340.7,101.39z"/>
		</g>
	</g>
	<g>
		<g>
			<path d="M352.32,106.46c3.22,0,3.22-5,0-5C349.1,101.46,349.09,106.46,352.32,106.46L352.32,106.46z"/>
		</g>
	</g>
	<g>
		<g>
			<path d="M362.15,111.82c3.22,0,3.22-5,0-5C358.93,106.82,358.93,111.82,362.15,111.82L362.15,111.82z"/>
		</g>
	</g>
	<g>
		<g>
			<path d="M372.28,118.67c3.22,0,3.22-5,0-5C369.06,113.67,369.05,118.67,372.28,118.67L372.28,118.67z"/>
		</g>
	</g>
	<g>
		<g>
			<path d="M380.62,124.63c3.22,0,3.22-5,0-5C377.4,119.63,377.4,124.63,380.62,124.63L380.62,124.63z"/>
		</g>
	</g>
	<g>
		<g>
			<path d="M72.2,331.5c4.71,14.05,11.2,27.49,19.35,39.87c2.35,3.57,4.83,7.04,7.44,10.43c0.77,1.01,2.51,0.01,1.73-1.01
				c-11.55-15-20.57-31.87-26.59-49.82C73.72,329.76,71.79,330.28,72.2,331.5L72.2,331.5z"/>
		</g>
	</g>
	<g>
		<g>
			<path d="M74.23,193.69c1.98,16.79,4,33.8,9.66,49.82c1.58,4.47,3.45,8.83,5.63,13.04c0.59,1.14,2.32,0.13,1.73-1.01
				c-7.67-14.8-11-31.31-13.25-47.7c-0.65-4.71-1.21-9.43-1.76-14.14C76.08,192.43,74.08,192.42,74.23,193.69L74.23,193.69z"/>
		</g>
	</g>
	<g>
		<g>
			<path d="M115.58,95.68c-10.41,13.69-16.7,30.27-18.07,47.4c-0.1,1.28,1.9,1.28,2,0c1.35-16.79,7.61-33,17.8-46.4
				C118.09,95.67,116.35,94.67,115.58,95.68L115.58,95.68z"/>
		</g>
	</g>
	<g>
		<g>
			<path d="M130.28,85.29c13.21-8.18,28.54-12.57,44.08-12.61c1.29,0,1.29-2,0-2c-15.87,0.03-31.59,4.52-45.09,12.88
				C128.18,84.24,129.18,85.97,130.28,85.29L130.28,85.29z"/>
		</g>
	</g>
	<g>
		<g>
			<path d="M251.08,117.4c-5.25-4.52-11.47-7.58-17.93-9.99c-6.99-2.6-14.23-4.66-21.56-6.03c-13.96-2.6-28.61-2.46-42.03,2.55
				c-6.93,2.59-13.36,6.39-18.77,11.45c-0.94,0.88,0.47,2.29,1.41,1.41c9.43-8.81,22.05-13.59,34.79-14.78
				c14.52-1.36,29.1,1.61,42.79,6.31c7.11,2.44,14.13,5.53,19.88,10.48C250.63,119.65,252.05,118.24,251.08,117.4L251.08,117.4z"/>
		</g>
	</g>
	<g>
		<g>
			<path d="M245.95,47.05c16.94,2.39,33.17,8.95,47.03,18.99c3.97,2.88,7.72,6.06,11.25,9.47c0.92,0.9,2.34-0.52,1.41-1.41
				c-12.51-12.13-27.99-21.08-44.72-25.91c-4.73-1.36-9.56-2.39-14.43-3.07C245.22,44.95,244.67,46.88,245.95,47.05L245.95,47.05z"
				/>
		</g>
	</g>
	<g>
		<g>
			<path d="M340.95,91.63c17.46,5.48,33.9,14.16,48.25,25.52c4.02,3.18,7.87,6.58,11.54,10.15c0.92,0.9,2.34-0.51,1.41-1.41
				c-13.3-12.94-28.96-23.43-46.02-30.75c-4.79-2.06-9.68-3.87-14.65-5.43C340.25,89.31,339.72,91.25,340.95,91.63L340.95,91.63z"/>
		</g>
	</g>
	<g>
		<g>
			<path d="M104.02,440.33c9.23,13.75,20.09,26.4,32.33,37.56c3.49,3.18,7.08,6.23,10.78,9.17c1,0.79,2.42-0.61,1.41-1.41
				c-12.85-10.2-24.48-21.92-34.54-34.88c-2.89-3.72-5.63-7.54-8.26-11.45C105.03,438.26,103.3,439.26,104.02,440.33L104.02,440.33z
				"/>
		</g>
	</g>
	<g>
		<g>
			<path d="M171.15,517.54c4.18,3.99,8.85,7.46,13.89,10.3c1.12,0.63,2.13-1.1,1.01-1.73c-4.9-2.75-9.42-6.1-13.48-9.98
				C171.64,515.23,170.22,516.64,171.15,517.54L171.15,517.54z"/>
		</g>
	</g>
	<g>
		<g>
			<path d="M199.02,466.49c6.91,5.54,14.46,10.19,22.54,13.82c1.16,0.52,2.18-1.2,1.01-1.73c-7.91-3.56-15.36-8.09-22.13-13.51
				C199.44,464.28,198.02,465.69,199.02,466.49L199.02,466.49z"/>
		</g>
	</g>
	<g>
		<g>
			<path d="M164.68,409.46c4.6,7.4,11.78,12.52,18.8,17.43c1.06,0.74,2.06-0.99,1.01-1.73c-6.73-4.71-13.67-9.62-18.08-16.71
				C165.73,407.36,164,408.36,164.68,409.46L164.68,409.46z"/>
		</g>
	</g>
	<g>
		<g>
			<g>
				<path d="M98.28,456.85c6.93,14.8,16.34,28.42,27.73,40.15c3.22,3.32,6.61,6.47,10.13,9.47c0.97,0.83,2.4-0.58,1.41-1.41
					c-12.32-10.49-22.87-23-31.08-36.95c-2.35-3.98-4.5-8.08-6.46-12.27C99.46,454.67,97.74,455.69,98.28,456.85L98.28,456.85z"/>
			</g>
		</g>
		<g>
			<g>
				<path d="M111.32,425.54c7.93,14.38,18.09,27.52,30.04,38.78c3.38,3.19,6.91,6.22,10.55,9.1c1,0.79,2.42-0.62,1.41-1.41
					c-12.76-10.07-23.96-22.09-33.03-35.58c-2.59-3.86-5.01-7.83-7.25-11.9C112.42,423.4,110.7,424.41,111.32,425.54L111.32,425.54z
					"/>
			</g>
		</g>
		<g>
			<g>
				<path d="M141.83,410.13c4.21,6.81,9.69,12.69,15.16,18.49c5.1,5.41,10.47,10.81,17.3,13.96c1.16,0.54,2.18-1.19,1.01-1.73
					c-6.69-3.09-11.91-8.36-16.9-13.65c-5.35-5.68-10.72-11.41-14.84-18.08C142.88,408.03,141.15,409.03,141.83,410.13
					L141.83,410.13z"/>
			</g>
		</g>
		<g>
			<g>
				<path d="M164.48,535.1c11.37,10.62,24.25,19.61,38.12,26.67c13.87,7.05,28.71,12.22,43.98,15.22c8.59,1.69,17.31,2.7,26.06,3.01
					c1.29,0.05,1.29-1.95,0-2c-15.32-0.54-30.51-3.28-45.08-8.03c-14.63-4.77-28.6-11.57-41.37-20.15
					c-7.18-4.82-13.96-10.22-20.29-16.13C164.95,532.8,163.54,534.21,164.48,535.1L164.48,535.1z"/>
			</g>
		</g>
		<g>
			<g>
				<path d="M176.17,506.45c3.8,3.23,7.96,5.98,12.44,8.18c1.15,0.57,2.17-1.16,1.01-1.73c-4.32-2.12-8.37-4.75-12.03-7.87
					C176.6,504.21,175.18,505.62,176.17,506.45L176.17,506.45z"/>
			</g>
		</g>
		<g>
			<g>
				<path d="M191.29,477.18c8.36,6.79,17.32,12.78,26.8,17.89c1.13,0.61,2.14-1.12,1.01-1.73c-9.33-5.02-18.17-10.9-26.39-17.57
					C191.71,474.96,190.29,476.37,191.29,477.18L191.29,477.18z"/>
			</g>
		</g>
		<g>
			<g>
				<path d="M206.27,454.92c3.64,3.18,7.74,5.78,12.18,7.69c0.5,0.21,1.07,0.15,1.37-0.36c0.25-0.42,0.14-1.15-0.36-1.37
					c-4.28-1.83-8.26-4.31-11.77-7.37C206.72,452.66,205.3,454.07,206.27,454.92L206.27,454.92z"/>
			</g>
		</g>
		<g>
			<g>
				<path d="M63.79,350.35c2.77,16.07,8.27,31.65,16.21,45.9c2.28,4.08,4.76,8.05,7.42,11.9c0.73,1.05,2.46,0.05,1.73-1.01
					c-9.24-13.33-16.18-28.19-20.45-43.84c-1.21-4.44-2.2-8.94-2.98-13.48C65.5,348.56,63.58,349.09,63.79,350.35L63.79,350.35z"/>
			</g>
		</g>
		<g>
			<g>
				<path d="M80.24,316.68c3.19,14.64,9.12,28.67,17.42,41.14c2.32,3.5,4.84,6.86,7.51,10.1c0.82,0.99,2.23-0.43,1.41-1.41
					c-9.32-11.31-16.52-24.35-21.11-38.26c-1.31-3.97-2.41-8.02-3.3-12.1C81.89,314.89,79.96,315.43,80.24,316.68L80.24,316.68z"/>
			</g>
		</g>
		<g>
			<g>
				<path d="M63.57,206.73c-2.8,18.6-2.28,37.63,1.58,56.05c1.1,5.26,2.48,10.46,4.12,15.58c0.39,1.22,2.32,0.7,1.93-0.53
					c-5.65-17.66-8.12-36.27-7.25-54.79c0.25-5.28,0.76-10.54,1.55-15.77C65.69,206,63.76,205.46,63.57,206.73L63.57,206.73z"/>
			</g>
		</g>
		<g>
			<g>
				<path d="M86.6,181.61c0.1,16.89,2.38,33.77,6.82,50.08c1.28,4.7,2.74,9.35,4.36,13.94c0.43,1.21,2.36,0.69,1.93-0.53
					c-5.6-15.84-9.17-32.38-10.5-49.13c-0.38-4.78-0.58-9.56-0.61-14.35C88.59,180.33,86.59,180.32,86.6,181.61L86.6,181.61z"/>
			</g>
		</g>
		<g>
			<g>
				<path d="M103.46,87.35c-9.24,13.62-15.08,29.41-17.02,45.74c-0.56,4.71-0.78,9.46-0.68,14.21c0.03,1.29,2.03,1.29,2,0
					c-0.36-16.23,3.25-32.48,10.47-47.04c2.04-4.12,4.38-8.1,6.96-11.91C105.92,87.29,104.18,86.29,103.46,87.35L103.46,87.35z"/>
			</g>
		</g>
		<g>
			<g>
				<path d="M124.72,108.23c-4.9,6.28-8.16,13.69-9.36,21.57c-0.19,1.26,1.74,1.8,1.93,0.53c1.14-7.52,4.16-14.68,8.84-20.69
					C126.92,108.64,125.51,107.22,124.72,108.23L124.72,108.23z"/>
			</g>
		</g>
		<g>
			<g>
				<path d="M91.48,482.03c3.15-0.81,6.34-1.5,9.54-2.06c1.61-0.28,3.22-0.53,4.84-0.75c1.55-0.21,3.16-0.5,4.7-0.11
					c1.25,0.32,1.78-1.61,0.53-1.93c-1.62-0.41-3.22-0.22-4.85-0.01c-1.67,0.22-3.34,0.46-5,0.74c-3.46,0.58-6.9,1.32-10.3,2.19
					C89.7,480.42,90.23,482.35,91.48,482.03L91.48,482.03z"/>
			</g>
		</g>
		<g>
			<g>
				<path d="M109.82,479.06c0.42,10.11-0.07,20.25-1.49,30.27c-0.18,1.26,1.75,1.8,1.93,0.53c1.45-10.2,1.99-20.51,1.56-30.81
					C111.77,477.77,109.77,477.77,109.82,479.06L109.82,479.06z"/>
			</g>
		</g>
		<g>
			<g>
				<path d="M110.06,510.13c5.83-4.23,12.32-7.4,18.78-10.54c1.16-0.56,0.14-2.29-1.01-1.73c-6.46,3.14-12.95,6.31-18.78,10.54
					C108.01,509.15,109.01,510.89,110.06,510.13L110.06,510.13z"/>
			</g>
		</g>
		<g>
			<g>
				<path d="M127.68,499.68c-0.14,5.49-0.28,10.99-0.43,16.48c-0.14,5.25-0.01,10.63-1.32,15.76c-0.32,1.25,1.61,1.78,1.93,0.53
					c1.32-5.15,1.24-10.52,1.38-15.79c0.15-5.66,0.29-11.32,0.44-16.98C129.71,498.4,127.71,498.4,127.68,499.68L127.68,499.68z"/>
			</g>
		</g>
		<g>
			<g>
				<path d="M124.87,441.7c1.29-10.97,2.14-21.99,2.55-33.03c0.05-1.29-1.95-1.29-2,0c-0.41,11.04-1.26,22.06-2.55,33.03
					C122.72,442.98,124.72,442.96,124.87,441.7L124.87,441.7z"/>
			</g>
		</g>
		<g>
			<g>
				<path d="M124.3,442.68c11.83-4.27,23.81-8.08,35.93-11.43c1.24-0.34,0.71-2.27-0.53-1.93c-12.12,3.35-24.1,7.16-35.93,11.43
					C122.56,441.18,123.08,443.12,124.3,442.68L124.3,442.68z"/>
			</g>
		</g>
		<g>
			<g>
				<path d="M157.77,431.03c-1.68,13.63-3.59,27.24-5.72,40.81c-0.2,1.26,1.73,1.8,1.93,0.53c2.16-13.75,4.1-27.53,5.79-41.34
					C159.92,429.76,157.92,429.77,157.77,431.03L157.77,431.03z"/>
			</g>
		</g>
		<g>
			<g>
				<path d="M164.91,537.31c2.21,13.47,5.27,26.79,9.14,39.88c0.36,1.23,2.29,0.71,1.93-0.53c-3.87-13.09-6.92-26.41-9.14-39.88
					C166.63,535.51,164.7,536.05,164.91,537.31L164.91,537.31z"/>
			</g>
		</g>
		<g>
			<g>
				<path d="M176.12,578.24c7.03-5.46,14.06-10.91,21.08-16.37c1.02-0.79-0.41-2.19-1.41-1.41c-7.03,5.46-14.06,10.91-21.08,16.37
					C173.69,577.62,175.11,579.02,176.12,578.24L176.12,578.24z"/>
			</g>
		</g>
		<g>
			<g>
				<path d="M201.51,564.17c0.81,4.51,0.64,9.11,0.6,13.67c-0.04,4.53,0.23,9.01,0.91,13.49c0.19,1.27,2.12,0.73,1.93-0.53
					c-0.7-4.62-0.88-9.25-0.83-13.91c0.05-4.44,0.11-8.87-0.68-13.25C203.21,562.37,201.28,562.91,201.51,564.17L201.51,564.17z"/>
			</g>
		</g>
		<g>
			<g>
				<path d="M204.58,589.45c4.38-2.96,8.86-5.78,13.44-8.43c2.22-1.29,4.46-2.54,6.72-3.76c1.16-0.63,2.33-1.24,3.51-1.85
					c1.16-0.6,2.53-1.6,3.82-1.85c1.26-0.25,0.73-2.18-0.53-1.93c-1.12,0.22-2.25,1-3.26,1.52c-1.25,0.64-2.49,1.28-3.73,1.94
					c-2.4,1.28-4.78,2.6-7.14,3.96c-4.71,2.73-9.33,5.62-13.84,8.67C202.51,588.44,203.51,590.17,204.58,589.45L204.58,589.45z"/>
			</g>
		</g>
		<g>
			<g>
				<path d="M230.83,573.1c0.44,6.21,0.9,12.42,1.91,18.56c0.21,1.27,2.14,0.73,1.93-0.53c-0.98-5.97-1.41-12-1.84-18.03
					C232.74,571.82,230.74,571.81,230.83,573.1L230.83,573.1z"/>
			</g>
		</g>
		<g>
			<g>
				<path d="M234.47,592.1c3.35-2.45,6.93-4.57,10.44-6.77c3.6-2.25,7.19-4.49,10.79-6.74c1.09-0.68,0.09-2.41-1.01-1.73
					c-3.6,2.25-7.19,4.49-10.79,6.74c-3.52,2.19-7.1,4.32-10.44,6.77C232.43,591.13,233.43,592.86,234.47,592.1L234.47,592.1z"/>
			</g>
		</g>
		<g>
			<g>
				<path d="M254.13,578.6c0.8,2.48,1.61,4.96,2.41,7.44c0.17,0.51,0.69,0.85,1.23,0.7c0.5-0.14,0.87-0.71,0.7-1.23
					c-0.8-2.48-1.61-4.96-2.41-7.44c-0.17-0.51-0.69-0.85-1.23-0.7C254.32,577.51,253.96,578.09,254.13,578.6L254.13,578.6z"/>
			</g>
		</g>
		<g>
			<g>
				<path d="M177.95,505.12c8.96-6.24,18.39-11.78,28.2-16.56c1.16-0.56,0.14-2.29-1.01-1.73c-9.82,4.78-19.25,10.31-28.2,16.56
					C175.89,504.12,176.89,505.85,177.95,505.12L177.95,505.12z"/>
			</g>
		</g>
		<g>
			<g>
				<path d="M204.6,487.65c-0.65,4.69-1.02,9.41-1.06,14.15c-0.01,1.29,1.99,1.29,2,0c0.05-4.55,0.37-9.11,0.99-13.62
					c0.07-0.54-0.13-1.07-0.7-1.23C205.36,486.82,204.67,487.12,204.6,487.65L204.6,487.65z"/>
			</g>
		</g>
		<g>
			<g>
				<path d="M55.09,373.35c4.94,0.14,9.88,0.41,14.82,0.81c1.28,0.1,1.28-1.9,0-2c-4.93-0.4-9.87-0.67-14.82-0.81
					C53.8,371.31,53.8,373.31,55.09,373.35L55.09,373.35z"/>
			</g>
		</g>
		<g>
			<g>
				<path d="M69.26,373.78c-3.5,9.18-7,18.37-10.49,27.55c-0.46,1.2,1.47,1.72,1.93,0.53c3.5-9.18,7-18.37,10.49-27.55
					C71.65,373.11,69.72,372.59,69.26,373.78L69.26,373.78z"/>
			</g>
		</g>
		<g>
			<g>
				<path d="M61.49,401.32c5.31-3.45,10.73-6.71,16.27-9.79c1.13-0.62,0.12-2.35-1.01-1.73c-5.54,3.07-10.96,6.33-16.27,9.79
					C59.41,400.29,60.41,402.02,61.49,401.32L61.49,401.32z"/>
			</g>
		</g>
		<g>
			<g>
				<path d="M76.37,391.76c-2.36,13.76-3.73,27.67-4.06,41.63c-0.03,1.29,1.97,1.29,2,0c0.33-13.78,1.65-27.52,3.99-41.1
					C78.51,391.04,76.59,390.5,76.37,391.76L76.37,391.76z"/>
			</g>
		</g>
		<g>
			<g>
				<path d="M82.2,317.25c9.8-1.64,19.5-3.8,29.07-6.49c1.24-0.35,0.71-2.28-0.53-1.93c-9.57,2.69-19.27,4.85-29.07,6.49
					C80.4,315.53,80.94,317.46,82.2,317.25L82.2,317.25z"/>
			</g>
		</g>
		<g>
			<g>
				<path d="M107.81,311.16c-3.99,12.88-8.24,25.67-12.73,38.39c-0.43,1.22,1.5,1.74,1.93,0.53c4.49-12.71,8.73-25.51,12.73-38.39
					C110.12,310.46,108.19,309.93,107.81,311.16L107.81,311.16z"/>
			</g>
		</g>
		<g>
			<g>
				<path d="M95.7,351.73c2.47-0.02,4.94-0.04,7.4-0.06c2.38-0.02,4.78-0.1,7.15,0.15c1.28,0.13,1.27-1.87,0-2
					c-2.37-0.25-4.77-0.17-7.15-0.15c-2.47,0.02-4.94,0.04-7.4,0.06C94.41,349.74,94.41,351.74,95.7,351.73L95.7,351.73z"/>
			</g>
		</g>
		<g>
			<g>
				<path d="M44.84,239.74c3.01-0.11,5.96,0.47,8.93,0.81c2.89,0.33,6.01-0.18,8.79,0.77c1.22,0.42,1.74-1.51,0.53-1.93
					c-2.87-0.99-6.01-0.5-8.99-0.81c-3.09-0.33-6.15-0.96-9.27-0.84C43.55,237.78,43.55,239.78,44.84,239.74L44.84,239.74z"/>
			</g>
		</g>
		<g>
			<g>
				<path d="M61.02,241.16c-6.88,11.67-14.26,23.04-22.12,34.07c-0.75,1.05,0.99,2.05,1.73,1.01c7.86-11.03,15.24-22.4,22.12-34.07
					C63.41,241.06,61.68,240.05,61.02,241.16L61.02,241.16z"/>
			</g>
		</g>
		<g>
			<g>
				<path d="M40.28,276.08c8.7-1.93,17.49-3.48,26.33-4.62c1.26-0.16,1.27-2.16,0-2c-9.02,1.17-17.98,2.72-26.86,4.69
					C38.49,274.43,39.02,276.36,40.28,276.08L40.28,276.08z"/>
			</g>
		</g>
		<g>
			<g>
				<path d="M65.99,270.24c-8.52,13.06-16.95,26.18-25.29,39.36c-0.69,1.09,1.04,2.1,1.73,1.01c8.34-13.18,16.77-26.29,25.29-39.36
					C68.43,270.17,66.7,269.17,65.99,270.24L65.99,270.24z"/>
			</g>
		</g>
		<g>
			<g>
				<path d="M81.76,73.93c4.34,9.76,8.68,19.51,13.03,29.27c0.52,1.17,2.25,0.16,1.73-1.01c-4.34-9.76-8.68-19.51-13.03-29.27
					C82.97,71.75,81.24,72.76,81.76,73.93L81.76,73.93z"/>
			</g>
		</g>
		<g>
			<g>
				<path d="M93.77,102.68c-9.9,3-19.76,6.12-29.58,9.35c-1.22,0.4-0.7,2.33,0.53,1.93c9.82-3.24,19.68-6.36,29.58-9.35
					C95.53,104.24,95,102.31,93.77,102.68L93.77,102.68z"/>
			</g>
		</g>
		<g>
			<g>
				<path d="M64.57,113.93c7.57,4.76,14.97,9.77,22.2,15.03c1.04,0.76,2.04-0.98,1.01-1.73c-7.23-5.26-14.63-10.28-22.2-15.03
					C64.48,111.52,63.48,113.25,64.57,113.93L64.57,113.93z"/>
			</g>
		</g>
		<g>
			<g>
				<path d="M86.26,126.97c-9.65,2.56-19.3,5.12-28.94,7.69c-1.24,0.33-0.72,2.26,0.53,1.93c9.65-2.56,19.3-5.12,28.94-7.69
					C88.04,128.57,87.51,126.64,86.26,126.97L86.26,126.97z"/>
			</g>
		</g>
		<g>
			<g>
				<path d="M57.85,137.23c8.82,4.77,18.02,8.82,27.49,12.1c1.22,0.42,1.74-1.51,0.53-1.93c-9.32-3.23-18.34-7.21-27.02-11.9
					C57.73,134.89,56.72,136.62,57.85,137.23L57.85,137.23z"/>
			</g>
		</g>
		<g>
			<g>
				<path d="M88.93,182.44c7.37,1.67,14.71,3.44,22.03,5.31c1.25,0.32,1.78-1.61,0.53-1.93c-7.32-1.87-14.66-3.65-22.03-5.31
					C88.21,180.23,87.67,182.16,88.93,182.44L88.93,182.44z"/>
			</g>
		</g>
		<g>
			<g>
				<path d="M109.13,185.86c-6.66,6.37-13.33,12.75-19.99,19.12c-0.93,0.89,0.48,2.3,1.41,1.41c6.66-6.37,13.33-12.75,19.99-19.12
					C111.48,186.39,110.06,184.97,109.13,185.86L109.13,185.86z"/>
			</g>
		</g>
		<g>
			<g>
				<path d="M90.86,207.04c6.61,1.06,13.23,2.13,19.84,3.19c1.26,0.2,1.8-1.72,0.53-1.93c-6.61-1.06-13.23-2.13-19.84-3.19
					C90.13,204.91,89.59,206.83,90.86,207.04L90.86,207.04z"/>
			</g>
		</g>
		<g>
			<g>
				<path d="M108.85,208.94c-5.28,5.95-10.55,11.91-15.83,17.86c-0.85,0.96,0.56,2.38,1.41,1.41c5.28-5.95,10.55-11.91,15.83-17.86
					C111.11,209.4,109.7,207.98,108.85,208.94L108.85,208.94z"/>
			</g>
		</g>
		<g>
			<g>
				<path d="M94.94,228.4c5.78,0.88,11.57,1.76,17.35,2.64c1.26,0.19,1.8-1.74,0.53-1.93c-5.78-0.88-11.57-1.76-17.35-2.64
					C94.22,226.28,93.67,228.2,94.94,228.4L94.94,228.4z"/>
			</g>
		</g>
		<g>
			<g>
				<path d="M119.58,70.68c15.22-8.9,32.52-14.1,50.13-15.09c4.95-0.28,9.92-0.21,14.86,0.17c1.28,0.1,1.28-1.9,0-2
					c-17.84-1.38-35.96,1.55-52.47,8.45c-4.66,1.95-9.18,4.19-13.53,6.74C117.46,69.6,118.47,71.33,119.58,70.68L119.58,70.68z"/>
			</g>
		</g>
		<g>
			<g>
				<path d="M141.47,101.53c9.98-7.19,21.44-12.1,33.53-14.37c1.26-0.24,0.73-2.17-0.53-1.93c-12.24,2.3-23.9,7.29-34.01,14.58
					C139.43,100.55,140.43,102.29,141.47,101.53L141.47,101.53z"/>
			</g>
		</g>
		<g>
			<g>
				<path d="M195.3,85.41c17.76,1.44,35.5,5.64,51.89,12.65c4.54,1.94,8.98,4.13,13.27,6.57c1.12,0.64,2.13-1.09,1.01-1.73
					c-15.78-9-33.52-14.62-51.38-17.65c-4.9-0.83-9.84-1.45-14.79-1.85C194.02,83.3,194.03,85.3,195.3,85.41L195.3,85.41z"/>
			</g>
		</g>
		<g>
			<g>
				<path d="M224.36,58.04c18.2,2.19,35.93,8.08,51.85,17.16c2.24,1.28,4.45,2.62,6.62,4.02c1.02,0.66,2.04,1.34,3.04,2.03
					c0.53,0.37,1.06,0.73,1.59,1.11c0.27,0.19,1.76,1.05,1.77,1.31c0.1-0.24,0.2-0.47,0.29-0.71c-0.04,0.04-0.09,0.09-0.13,0.13
					c0.24-0.1,0.47-0.2,0.71-0.29c0.13,0.09,0.27,0.18,0.4,0.27c0,0.34,0,0.67,0,1.01c0.03-0.04,0.06-0.09,0.09-0.13
					c0.73-1.07-1-2.07-1.73-1.01c-0.03,0.04-0.06,0.09-0.09,0.13c-0.19,0.28-0.18,0.73,0,1.01c1.11,1.73,3.39-0.08,2.02-1.68
					c-0.7-0.82-1.8-1.41-2.68-2.02c-1.17-0.82-2.36-1.63-3.56-2.42c-4.38-2.87-8.92-5.49-13.59-7.85
					c-9.3-4.69-19.11-8.36-29.22-10.89c-5.72-1.43-11.53-2.48-17.39-3.19C223.09,55.89,223.1,57.89,224.36,58.04L224.36,58.04z"/>
			</g>
		</g>
		<g>
			<g>
				<path d="M262.15,39.84c19.88,3.85,39.13,10.73,56.92,20.4c5.05,2.75,9.97,5.71,14.75,8.88c1.08,0.71,2.08-1.02,1.01-1.73
					c-17.02-11.27-35.77-19.9-55.4-25.5c-5.52-1.57-11.11-2.9-16.75-3.99C261.43,37.67,260.89,39.59,262.15,39.84L262.15,39.84z"/>
			</g>
		</g>
		<g>
			<g>
				<path d="M363.45,83.51c19.67,5.1,38.42,13.51,55.31,24.8c4.82,3.22,9.49,6.68,13.98,10.36c0.99,0.81,2.41-0.6,1.41-1.41
					c-15.93-13.04-33.99-23.35-53.32-30.42c-5.53-2.02-11.16-3.77-16.86-5.25C362.74,81.25,362.21,83.18,363.45,83.51L363.45,83.51z
					"/>
			</g>
		</g>
		<g>
			<g>
				<path d="M320.3,99.85c14.87,5.24,29.15,12.08,42.54,20.4c3.76,2.34,7.45,4.79,11.07,7.35c1.05,0.75,2.05-0.99,1.01-1.73
					c-12.95-9.17-26.87-16.92-41.49-23.08c-4.15-1.75-8.36-3.37-12.61-4.87C319.62,97.49,319.09,99.42,320.3,99.85L320.3,99.85z"/>
			</g>
		</g>
		<g>
			<g>
				<path d="M186.59,53.88c-3.32-7.73-6.3-15.6-8.94-23.58c-0.4-1.22-2.33-0.7-1.93,0.53c2.69,8.15,5.75,16.17,9.14,24.06
					C185.37,56.07,187.09,55.05,186.59,53.88L186.59,53.88z"/>
			</g>
		</g>
		<g>
			<g>
				<path d="M175.42,30.9c-5.62,7.76-11.24,15.52-16.86,23.27c-0.76,1.04,0.98,2.04,1.73,1.01c5.62-7.76,11.24-15.52,16.86-23.27
					C177.9,30.86,176.17,29.86,175.42,30.9L175.42,30.9z"/>
			</g>
		</g>
		<g>
			<g>
				<path d="M160.08,53.89c-3.44-6.42-6.87-12.84-10.31-19.26c-0.61-1.14-2.33-0.13-1.73,1.01c3.44,6.42,6.87,12.84,10.31,19.26
					C158.96,56.03,160.69,55.02,160.08,53.89L160.08,53.89z"/>
			</g>
		</g>
		<g>
			<g>
				<path d="M147.86,35.68c-5.46,8.29-10.54,16.84-15.21,25.6c-0.61,1.14,1.12,2.15,1.73,1.01c4.67-8.77,9.75-17.31,15.21-25.6
					C150.3,35.61,148.57,34.61,147.86,35.68L147.86,35.68z"/>
			</g>
		</g>
		<g>
			<g>
				<path d="M132.93,60.88c-7.92-3.31-15.49-7.4-22.62-12.18c-1.07-0.72-2.07,1.01-1.01,1.73c7.28,4.88,15.01,9.01,23.1,12.38
					C133.58,63.31,134.1,61.37,132.93,60.88L132.93,60.88z"/>
			</g>
		</g>
		<g>
			<g>
				<path d="M279.79,41.19c0.27-2.48-0.08-5.04-1.02-7.35c-0.2-0.5-0.67-0.85-1.23-0.7c-0.47,0.13-0.9,0.73-0.7,1.23
					c0.89,2.19,1.21,4.47,0.95,6.82c-0.06,0.54,0.5,1,1,1C279.38,42.19,279.73,41.73,279.79,41.19L279.79,41.19z"/>
			</g>
		</g>
		<g>
			<g>
				<path d="M279.81,42.13c4.32-1.38,8.64-2.75,12.96-4.13c1.22-0.39,0.7-2.32-0.53-1.93c-4.32,1.38-8.64,2.75-12.96,4.13
					C278.05,40.59,278.57,42.52,279.81,42.13L279.81,42.13z"/>
			</g>
		</g>
		<g>
			<g>
				<path d="M291.46,37.03c2.2,4.3,4.88,8.38,7.38,12.51c0.66,1.1,2.39,0.1,1.73-1.01c-2.5-4.13-5.18-8.21-7.38-12.51
					C292.6,34.87,290.87,35.88,291.46,37.03L291.46,37.03z"/>
			</g>
		</g>
		<g>
			<g>
				<path d="M299.94,50.39c8.19-2.78,16.37-5.57,24.56-8.35c1.21-0.41,0.69-2.34-0.53-1.93c-8.19,2.78-16.37,5.57-24.56,8.35
					C298.2,48.87,298.72,50.8,299.94,50.39L299.94,50.39z"/>
			</g>
		</g>
		<g>
			<g>
				<path d="M333.76,65.69c-2.92-8.85-5.83-17.69-8.75-26.54c-0.2-0.59-0.9-0.95-1.47-0.6c-0.75,0.47-1.19,1.19-1.09,2.09
					c0.14,1.26,2.14,1.28,2,0c0.03-0.12,0.07-0.24,0.1-0.37c-0.49-0.2-0.98-0.4-1.47-0.6c2.92,8.85,5.83,17.69,8.75,26.54
					C332.23,67.44,334.16,66.92,333.76,65.69L333.76,65.69z"/>
			</g>
		</g>
		<g>
			<g>
				<path d="M411.07,73.85c-4.35,7.08-8.7,14.17-13.05,21.25c-0.68,1.1,1.05,2.11,1.73,1.01c4.35-7.08,8.7-14.17,13.05-21.25
					C413.47,73.76,411.74,72.75,411.07,73.85L411.07,73.85z"/>
			</g>
		</g>
		<g>
			<g>
				<path d="M400.73,96.27c13.58-4.66,27.66-7.77,41.94-9.22c1.27-0.13,1.28-2.13,0-2c-14.46,1.47-28.72,4.57-42.47,9.3
					C398.99,94.76,399.51,96.69,400.73,96.27L400.73,96.27z"/>
			</g>
		</g>
		<g>
			<g>
				<path d="M441.24,86.11c-5.51,8.23-10.66,16.69-15.43,25.37c-0.62,1.13,1.11,2.14,1.73,1.01c4.77-8.68,9.92-17.14,15.43-25.37
					C443.69,86.04,441.96,85.04,441.24,86.11L441.24,86.11z"/>
			</g>
		</g>
		<g>
			<g>
				<path d="M485.91,112.58c-19.57-2.92-39.45-3.45-59.14-1.52c-1.27,0.12-1.28,2.13,0,2c19.51-1.92,39.22-1.45,58.61,1.44
					C486.64,114.69,487.18,112.77,485.91,112.58L485.91,112.58z"/>
			</g>
		</g>
		<g>
			<g>
				<path d="M320.26,98.3c-4.71,8.43-8.84,17.17-12.38,26.15c-0.47,1.2,1.46,1.72,1.93,0.53c3.48-8.82,7.55-17.4,12.18-25.67
					C322.62,98.18,320.89,97.17,320.26,98.3L320.26,98.3z"/>
			</g>
		</g>
		<g>
			<g>
				<path d="M310.09,124.97c11.38-6.13,23.53-10.73,36.12-13.69c1.25-0.29,0.72-2.22-0.53-1.93c-12.75,3-25.07,7.68-36.59,13.89
					C307.95,123.85,308.96,125.58,310.09,124.97L310.09,124.97z"/>
			</g>
		</g>
		<g>
			<g>
				<path d="M345.15,111.41c-0.34,2.54-1.29,4.95-2.12,7.36c-0.86,2.47-1.46,4.9-1.72,7.51c-0.13,1.28,1.87,1.27,2,0
					c0.26-2.6,0.96-5.01,1.82-7.47c0.85-2.43,1.68-4.83,2.02-7.4c0.07-0.54-0.51-0.99-1-1C345.55,110.4,345.22,110.87,345.15,111.41
					L345.15,111.41z"/>
			</g>
		</g>
		<g>
			<g>
				<path d="M225.64,57.32c-2.28,9.9-3.88,19.94-4.82,30.05c-0.12,1.28,1.88,1.27,2,0c0.92-9.94,2.51-19.79,4.75-29.52
					C227.85,56.59,225.92,56.06,225.64,57.32L225.64,57.32z"/>
			</g>
		</g>
		<g>
			<g>
				<path d="M223.45,88c13.38-7.33,27.41-13.4,41.92-18.11c1.22-0.4,0.7-2.33-0.53-1.93c-14.67,4.77-28.87,10.9-42.39,18.32
					C221.31,86.89,222.32,88.62,223.45,88L223.45,88z"/>
			</g>
		</g>
		<g>
			<g>
				<path d="M264.17,69.81c-1.5,11.1-2.73,22.23-3.69,33.39c-0.11,1.28,1.89,1.27,2,0c0.94-10.98,2.14-21.94,3.61-32.86
					C266.26,69.09,264.34,68.54,264.17,69.81L264.17,69.81z"/>
			</g>
		</g>
	</g>
	<circle cx="129.77" cy="139.7" r="5"/>
	<circle cx="146.92" cy="139.59" r="5"/>
	<circle cx="164.07" cy="139.59" r="5"/>
	<g>
		<g>
			<path d="M641.79,191.62c-14.15,4.55-28.55,8.28-42.98,11.8c-1.25,0.31-0.72,2.23,0.53,1.93c14.43-3.53,28.83-7.26,42.98-11.8
				C643.54,193.15,643.02,191.22,641.79,191.62L641.79,191.62z"/>
		</g>
	</g>
	<g>
		<g>
			<path d="M637.03,208.39c-4.31,1.73-8.85,2.72-13.23,4.21c-1.21,0.41-0.69,2.34,0.53,1.93c4.39-1.48,8.93-2.48,13.23-4.21
				c0.5-0.2,0.86-0.67,0.7-1.23C638.12,208.61,637.53,208.19,637.03,208.39L637.03,208.39z"/>
		</g>
	</g>
	<g>
		<g>
			<path d="M614.56,216.08c-5.57,1.45-11.13,2.93-16.7,4.38c-1.24,0.32-0.72,2.25,0.53,1.93c5.57-1.45,11.13-2.93,16.7-4.38
				C616.33,217.69,615.81,215.76,614.56,216.08L614.56,216.08z"/>
		</g>
	</g>
	<g>
		<g>
			<path d="M626.96,227.6c-9.29,2.81-18.62,5.56-27.64,9.16c-1.18,0.47-0.67,2.41,0.53,1.93c9.03-3.6,18.35-6.35,27.64-9.16
				C628.72,229.16,628.2,227.23,626.96,227.6L626.96,227.6z"/>
		</g>
	</g>
	<g>
		<g>
			<path d="M619.43,243.62c-7.2,3.2-14.61,5.89-21.81,9.08c-1.17,0.52-0.16,2.25,1.01,1.73c7.2-3.2,14.61-5.88,21.81-9.08
				C621.61,244.82,620.6,243.1,619.43,243.62L619.43,243.62z"/>
		</g>
	</g>
	<g>
		<g>
			<path d="M644.09,220.94c-1.5-4.25-3.49-8.31-5.93-12.1c-0.7-1.08-2.43-0.08-1.73,1.01c2.35,3.64,4.28,7.53,5.73,11.62
				C642.59,222.68,644.52,222.16,644.09,220.94L644.09,220.94z"/>
		</g>
	</g>
	<g>
		<g>
			<path d="M639.38,210.71c4.35-1.85,8.87-3.29,13.48-4.35c1.25-0.29,0.72-2.22-0.53-1.93c-4.78,1.1-9.44,2.63-13.95,4.55
				c-0.5,0.21-0.6,0.94-0.36,1.37C638.31,210.87,638.89,210.92,639.38,210.71L639.38,210.71z"/>
		</g>
	</g>
	<g>
		<g>
			<path d="M644.32,195.41c2.17,3.67,4.74,7.1,7.66,10.21c0.88,0.94,2.29-0.48,1.41-1.41c-2.8-2.99-5.26-6.28-7.34-9.81
				C645.4,193.29,643.67,194.29,644.32,195.41L644.32,195.41z"/>
		</g>
	</g>
	<g>
		<g>
			<path d="M627.95,229.68c1.4,4.75,3.1,9.4,5.07,13.95c0.22,0.5,0.94,0.6,1.37,0.36c0.51-0.29,0.57-0.88,0.36-1.37
				c-1.9-4.38-3.52-8.89-4.87-13.47C629.52,227.92,627.59,228.44,627.95,229.68L627.95,229.68z"/>
		</g>
	</g>
	<g>
		<g>
			<path d="M633.57,242.41c-4.41,0.69-8.81,1.39-13.22,2.08c-0.53,0.08-0.83,0.75-0.7,1.23c0.16,0.57,0.69,0.78,1.23,0.7
				c4.41-0.69,8.81-1.39,13.22-2.08c0.53-0.08,0.83-0.75,0.7-1.23C634.64,242.54,634.11,242.32,633.57,242.41L633.57,242.41z"/>
		</g>
	</g>
	<g>
		<g>
			<path d="M619.31,246.06c1.66,3.82,3.46,7.57,5.41,11.25c0.6,1.14,2.33,0.13,1.73-1.01c-1.95-3.68-3.75-7.43-5.41-11.25
				c-0.22-0.5-0.94-0.61-1.37-0.36C619.16,244.99,619.1,245.56,619.31,246.06L619.31,246.06z"/>
		</g>
	</g>
	<g>
		<g>
			<path d="M625.1,255.42c-3.59,0.01-7.18,0.18-10.76,0.51c-0.54,0.05-1,0.42-1,1c0,0.5,0.46,1.05,1,1
				c3.58-0.33,7.17-0.5,10.76-0.51C626.39,257.41,626.39,255.41,625.1,255.42L625.1,255.42z"/>
		</g>
	</g>
	<g>
		<g>
			<path d="M606.2,266.59c0.75,3.43,1.51,6.87,2.26,10.3c0.28,1.26,2.2,0.72,1.93-0.53c-0.75-3.43-1.51-6.87-2.26-10.3
				C607.86,264.8,605.93,265.33,606.2,266.59L606.2,266.59z"/>
		</g>
	</g>
	<g>
		<g>
			<path d="M609.5,275.6c-3.44-0.11-6.87,0.04-10.29,0.45c-0.54,0.06-1,0.41-1,1c0,0.49,0.46,1.06,1,1
				c3.41-0.41,6.85-0.56,10.29-0.45C610.79,277.64,610.79,275.64,609.5,275.6L609.5,275.6z"/>
		</g>
	</g>
	<g>
		<g>
			<path d="M638.3,128.12c1.29,0,1.29-2,0-2C637.02,126.12,637.01,128.12,638.3,128.12L638.3,128.12z"/>
		</g>
	</g>
	<g>
		<g>
			<path d="M642.05,134.64c1.29,0,1.29-2,0-2C640.77,132.64,640.76,134.64,642.05,134.64L642.05,134.64z"/>
		</g>
	</g>
	<g>
		<g>
			<path d="M644.62,142.14c1.29,0,1.29-2,0-2C643.33,140.14,643.33,142.14,644.62,142.14L644.62,142.14z"/>
		</g>
	</g>
	<g>
		<g>
			<path d="M649.97,147.19c-1.21-10.34-5.35-20.09-11.95-28.14c-0.82-1-2.22,0.43-1.41,1.41c6.23,7.6,10.22,16.96,11.37,26.72
				C648.12,148.46,650.12,148.47,649.97,147.19L649.97,147.19z"/>
		</g>
	</g>
	<g>
		<g>
			<path d="M657.06,147.17c-2.43-1.84-4.97-3.53-7.62-5.05c-1.12-0.64-2.13,1.08-1.01,1.73c2.64,1.52,5.19,3.21,7.62,5.05
				c0.43,0.33,1.12,0.07,1.37-0.36C657.72,148.03,657.49,147.5,657.06,147.17L657.06,147.17z"/>
		</g>
	</g>
	<g>
		<g>
			<path d="M654.04,137.74c-0.44,0.45-0.9,0.88-1.38,1.29c-0.23,0.2-0.47,0.39-0.71,0.59c-0.06,0.04-0.11,0.09-0.17,0.13
				c0.09-0.07-0.08,0.06-0.1,0.07c-0.13,0.1-0.26,0.19-0.39,0.29c-1.02,0.74-2.09,1.4-3.21,1.97c-0.47,0.24-0.64,0.93-0.36,1.37
				c0.31,0.48,0.87,0.61,1.37,0.36c2.35-1.2,4.5-2.78,6.36-4.65c0.37-0.37,0.4-1.05,0-1.41
				C655.05,137.38,654.43,137.35,654.04,137.74L654.04,137.74z"/>
		</g>
	</g>
	<g>
		<g>
			<path d="M655.13,137.23c-2.66-1.05-5.3-2.14-7.93-3.27c-0.5-0.21-1.07-0.15-1.37,0.36c-0.25,0.42-0.14,1.15,0.36,1.37
				c2.79,1.19,5.59,2.35,8.41,3.47c0.5,0.2,1.1-0.22,1.23-0.7C655.98,137.89,655.63,137.43,655.13,137.23L655.13,137.23z"/>
		</g>
	</g>
	<g>
		<g>
			<path d="M651.69,128.21c-1.83,2.16-3.8,4.18-5.92,6.06c-0.39,0.35-0.38,1.06,0,1.41c0.42,0.38,1,0.37,1.41,0
				c2.12-1.88,4.09-3.9,5.92-6.06c0.34-0.4,0.42-1.03,0-1.41C652.73,127.87,652.05,127.79,651.69,128.21L651.69,128.21z"/>
		</g>
	</g>
	<g>
		<g>
			<path d="M652.49,127.48c-3.48-0.8-6.96-1.59-10.44-2.39c-1.25-0.29-1.79,1.64-0.53,1.93c3.48,0.8,6.96,1.59,10.44,2.39
				C653.21,129.69,653.75,127.76,652.49,127.48L652.49,127.48z"/>
		</g>
	</g>
	<g>
		<g>
			<path d="M643.21,113.28c-0.82,4.27-1.32,8.6-1.48,12.95c-0.05,1.29,1.95,1.29,2,0c0.16-4.17,0.62-8.32,1.41-12.42
				C645.38,112.55,643.45,112.02,643.21,113.28L643.21,113.28z"/>
		</g>
	</g>
	<g>
		<g>
			<path d="M591.67,114.74c11.48-3.26,23.64-3.62,35.29-1.04c1.25,0.28,1.79-1.65,0.53-1.93c-12-2.66-24.53-2.32-36.35,1.04
				C589.9,113.16,590.43,115.09,591.67,114.74L591.67,114.74z"/>
		</g>
	</g>
	<g>
		<g>
			<path d="M602.23,122.6c7.18-0.78,14.43-0.6,21.56,0.59c1.26,0.21,1.8-1.72,0.53-1.93c-7.31-1.22-14.72-1.47-22.09-0.66
				C600.97,120.74,600.95,122.74,602.23,122.6L602.23,122.6z"/>
		</g>
	</g>
	<g>
		<g>
			<path d="M606.4,131.63c3.91-0.11,7.8,0.34,11.58,1.36c1.24,0.33,1.78-1.59,0.53-1.93c-3.94-1.06-8.03-1.54-12.11-1.43
				C605.11,129.67,605.11,131.67,606.4,131.63L606.4,131.63z"/>
		</g>
	</g>
	<g>
		<g>
			<path d="M591.92,104.39c-0.76,3.33-1.52,6.67-2.28,10c-0.29,1.25,1.64,1.79,1.93,0.53c0.76-3.33,1.52-6.67,2.28-10
				C594.14,103.67,592.21,103.13,591.92,104.39L591.92,104.39z"/>
		</g>
	</g>
	<g>
		<g>
			<path d="M592.71,105.87c2.04,2.57,4.4,4.85,7.02,6.83c0.43,0.33,1.12,0.07,1.37-0.36c0.3-0.51,0.07-1.04-0.36-1.37
				c-2.43-1.84-4.69-4.09-6.61-6.51c-0.34-0.42-1.06-0.35-1.41,0C592.29,104.87,592.38,105.44,592.71,105.87L592.71,105.87z"/>
		</g>
	</g>
	<g>
		<g>
			<path d="M602.58,102.79c-1.26,2.64-2.36,5.35-3.29,8.13c-0.17,0.51,0.2,1.09,0.7,1.23c0.55,0.15,1.06-0.18,1.23-0.7
				c0.87-2.61,1.9-5.16,3.08-7.65c0.23-0.49,0.13-1.08-0.36-1.37C603.51,102.17,602.81,102.3,602.58,102.79L602.58,102.79z"/>
		</g>
	</g>
	<g>
		<g>
			<path d="M602.6,104.14c2.1,2.1,4.05,4.34,5.82,6.72c0.32,0.43,0.87,0.65,1.37,0.36c0.43-0.25,0.68-0.93,0.36-1.37
				c-1.87-2.52-3.91-4.91-6.13-7.13C603.1,101.81,601.68,103.23,602.6,104.14L602.6,104.14z"/>
		</g>
	</g>
	<g>
		<g>
			<path d="M614.39,102.19c-1.17,1.45-2.3,2.93-3.38,4.45c-0.51,0.73-1.01,1.46-1.5,2.2c-0.29,0.44-0.65,0.87-0.58,1.43
				c0.1,0.78,0.96,1.12,1.62,0.77c0.48-0.25,0.62-0.91,0.36-1.37c-0.28-0.48-0.89-0.61-1.37-0.36c-0.01,0.01-0.03,0.02-0.04,0.02
				c0.26-0.03,0.51-0.07,0.77-0.1c-0.02-0.01-0.03-0.01-0.05-0.02c0.2,0.15,0.4,0.31,0.6,0.46c-0.01-0.02-0.02-0.03-0.03-0.05
				c0.05,0.17,0.09,0.34,0.14,0.5c0-0.03,0.01-0.06,0.01-0.08c-0.05,0.17-0.09,0.34-0.14,0.5c0.34-0.62,0.78-1.2,1.18-1.79
				c0.41-0.6,0.83-1.2,1.26-1.79c0.83-1.15,1.69-2.28,2.59-3.38c0.34-0.42,0.41-1,0-1.41C615.45,101.84,614.73,101.76,614.39,102.19
				L614.39,102.19z"/>
		</g>
	</g>
	<g>
		<g>
			<path d="M613.27,103.38c2.25,2.58,4.42,5.23,6.5,7.95c0.33,0.43,0.86,0.66,1.37,0.36c0.42-0.25,0.69-0.94,0.36-1.37
				c-2.18-2.86-4.45-5.65-6.82-8.36c-0.36-0.41-1.05-0.36-1.41,0C612.87,102.37,612.92,102.97,613.27,103.38L613.27,103.38z"/>
		</g>
	</g>
	<g>
		<g>
			<path d="M628.34,103.65c-3.01,2.11-5.87,4.43-8.55,6.96c-0.94,0.88,0.48,2.3,1.41,1.41c2.55-2.41,5.27-4.63,8.15-6.64
				c0.44-0.31,0.65-0.87,0.36-1.37C629.45,103.57,628.79,103.34,628.34,103.65L628.34,103.65z"/>
		</g>
	</g>
	<g>
		<g>
			<path d="M604.48,117.48c1.29,0,1.29-2,0-2C603.19,115.48,603.19,117.48,604.48,117.48L604.48,117.48z"/>
		</g>
	</g>
	<g>
		<g>
			<path d="M610.07,117.23c1.29,0,1.29-2,0-2C608.78,115.23,608.78,117.23,610.07,117.23L610.07,117.23z"/>
		</g>
	</g>
	<g>
		<g>
			<path d="M610.2,121.73c-0.13,2.79-0.43,5.57-0.91,8.33c-0.09,0.53,0.14,1.08,0.7,1.23c0.48,0.13,1.14-0.16,1.23-0.7
				c0.51-2.93,0.84-5.89,0.98-8.86c0.03-0.54-0.48-1-1-1C610.64,120.73,610.23,121.19,610.2,121.73L610.2,121.73z"/>
		</g>
	</g>
	<g>
		<g>
			<path d="M617.7,121.68c-1.24,3.01-2.4,6.06-3.48,9.14c-0.18,0.51,0.2,1.09,0.7,1.23c0.55,0.15,1.05-0.19,1.23-0.7
				c1.08-3.08,2.23-6.13,3.48-9.14c0.21-0.5-0.22-1.1-0.7-1.23C618.35,120.83,617.9,121.18,617.7,121.68L617.7,121.68z"/>
		</g>
	</g>
	<g>
		<g>
			<path d="M613.3,141.19c0.22,0.44,0.44,0.89,0.65,1.33c0.58-0.34,1.15-0.67,1.73-1.01c-2.6-3.54-5.18-7.11-7.71-10.7
				c-0.31-0.44-0.87-0.65-1.37-0.36c-0.44,0.25-0.67,0.92-0.36,1.37c2.54,3.59,5.11,7.16,7.71,10.7c0.76,1.03,2.3,0.16,1.73-1.01
				c-0.22-0.44-0.44-0.89-0.65-1.33c-0.24-0.48-0.93-0.62-1.37-0.36C613.16,140.11,613.06,140.71,613.3,141.19L613.3,141.19z"/>
		</g>
	</g>
	<g>
		<g>
			<path d="M608.29,153.9c-2.62-3.83-5.36-7.58-8.21-11.24c-0.33-0.43-1.07-0.35-1.41,0c-0.42,0.42-0.33,0.99,0,1.41
				c2.74,3.53,5.37,7.15,7.9,10.84C607.28,155.96,609.02,154.96,608.29,153.9L608.29,153.9z"/>
		</g>
	</g>
	<g>
		<g>
			<path d="M177.27,122.42c-1.33-5.93-2.37-11.91-3.12-17.94c-0.16-1.26-2.16-1.28-2,0c0.77,6.21,1.83,12.37,3.19,18.47
				C175.62,124.21,177.55,123.68,177.27,122.42L177.27,122.42z"/>
		</g>
	</g>
	<g>
		<g>
			<path d="M192.56,123.68c-0.52-7.57-0.27-15.17,0.73-22.7c0.17-1.27-1.83-1.26-2,0c-1,7.53-1.25,15.12-0.73,22.7
				C190.65,124.96,192.65,124.97,192.56,123.68L192.56,123.68z"/>
		</g>
	</g>
	<g>
		<g>
			<path d="M208.75,123.19c-0.01-6.89,0.86-13.73,2.61-20.4c0.33-1.25-1.6-1.78-1.93-0.53c-1.79,6.83-2.69,13.87-2.68,20.93
				C206.75,124.48,208.75,124.48,208.75,123.19L208.75,123.19z"/>
		</g>
	</g>
	<g>
		<g>
			<path d="M224.36,123.04c0.52-5.5,1.39-10.97,2.58-16.36c0.28-1.25-1.65-1.79-1.93-0.53c-1.23,5.57-2.11,11.22-2.65,16.9
				C222.24,124.32,224.24,124.31,224.36,123.04L224.36,123.04z"/>
		</g>
	</g>
	<g>
		<g>
			<path d="M236.9,124.2c0.34-2.94,0.94-5.86,1.77-8.7c0.2-0.68,0.41-1.36,0.64-2.04c0.22-0.66,0.56-1.35,0.71-2.03
				c0.14-0.64-0.21-1.39-0.91-1.48c-0.65-0.08-1.32,0.45-1.23,1.14c0.06,0.5,0.41,1.05,1,1c0.02,0,0.04,0,0.06,0
				c1.27-0.11,1.28-2.11,0-2c-0.02,0-0.04,0-0.06,0c0.33,0.33,0.67,0.67,1,1c0-0.02-0.01-0.05-0.01-0.07
				c-0.05,0.17-0.09,0.34-0.14,0.5c0.01-0.03,0.02-0.05,0.03-0.08c-0.29,0.17-0.58,0.33-0.86,0.5c0.02,0,0.05-0.01,0.07-0.01
				c-0.24-0.1-0.47-0.2-0.71-0.29c0.03,0.03,0.05,0.07,0.08,0.1c-0.1-0.24-0.2-0.47-0.29-0.71c0.01,0.2-0.19,0.53-0.26,0.72
				c-0.09,0.24-0.17,0.47-0.25,0.71c-0.19,0.55-0.37,1.11-0.55,1.67c-0.33,1.08-0.63,2.17-0.9,3.27c-0.54,2.24-0.93,4.52-1.19,6.81
				c-0.06,0.54,0.5,1,1,1C236.5,125.2,236.84,124.74,236.9,124.2L236.9,124.2z"/>
		</g>
	</g>
</g>
</svg>
