<svg enable-background="new 0 0 194.9 80.6" height="80.6" viewBox="0 0 194.9 80.6" width="194.9" xmlns="http://www.w3.org/2000/svg"><path d="m3.2 73.7v-30.7c0-3.8 3.1-6.9 6.9-6.9h43.7c3.8 0 6.9 3.1 6.9 6.9v30.7c0 3.8-3.1 6.9-6.9 6.9h-43.7c-3.8 0-6.9-3.1-6.9-6.9z"/><g enable-background="new" fill="#1f1f1f" transform="translate(421.415 41)"><path d="m-420.7-37.5h17.9c.4 0 .7.3.7.7v3.4c0 .4-.3.7-.7.7-3.3 0-5.9 2.6-5.9 5.9v13.5c0 .4-.3.7-.7.7h-4.7c-.4 0-.7-.3-.7-.7v-18.6c0-.4-.3-.7-.7-.7h-5.2c-.4 0-.7-.3-.7-.7v-3.4c0-.5.3-.8.7-.8z"/><path d="m-397.9-38.8h3.7c.7 0 1.2.5 1.2 1.2v5.2c0 1 1.1 1.5 1.9 1 1.2-.7 2.6-1.1 4.2-1.1 4.5 0 7.5 3.1 7.5 8.5v10.4c0 .7-.5 1.2-1.2 1.2h-3.7c-.7 0-1.2-.5-1.2-1.2v-9.6c0-2.7-1.5-4.2-3.8-4.2s-3.8 1.5-3.8 4.2v9.6c0 .7-.5 1.2-1.2 1.2h-3.7c-.7 0-1.2-.5-1.2-1.2v-23.9c.1-.8.6-1.3 1.3-1.3z"/><path d="m-366.4-12.3c-5.8 0-10-3.9-10-10.2s4.1-10.2 10-10.2c5.8 0 9.9 3.8 9.9 9.9v1.1c0 .4-.3.6-.7.6h-12.3c-.5 0-.8.4-.7.9.5 2 1.9 2.9 3.6 2.9 1.5 0 2.5-.7 3-1.6.1-.2.3-.3.6-.3h5.1c.5 0 .8.5.7 1-1.3 3.4-4.6 5.9-9.2 5.9zm-3-12.1h6c.4 0 .7-.3.6-.8-.3-1.7-1.9-2.7-3.7-2.7-1.7 0-3.1.9-3.6 2.5-.1.6.2 1 .7 1z"/><path d="m-331-29.6h-5.4c-.2 0-.5-.1-.6-.3-1-1.5-2.6-2.2-4.7-2.2-3.9 0-6.5 2.8-6.5 7.1 0 4.6 2.6 7.3 7 7.3 2.6 0 4.6-1.2 5.6-3.4.2-.5-.1-1-.6-1h-5.9c-.4 0-.7-.3-.7-.7v-3.1c0-.4.3-.7.7-.7h11.8c.4 0 .7.3.7.7v4.8.2c-1.5 4.8-6.5 9.5-14.5 8.3-5.4-.9-9.6-5.4-10.1-10.9-.8-8.3 4.6-14.3 12.6-14.3 5.6 0 9.7 2.7 11.3 7.2.1.5-.2 1-.7 1z"/><path d="m-318.7-32.7c2.1 0 3.8.7 4.9 1.7.5.4 1.2.1 1.2-.5v-.2c0-.4.3-.7.7-.7h4.7c.4 0 .7.3.7.7v18.4c0 .4-.3.7-.7.7h-4.7c-.4 0-.7-.3-.7-.7v-2.1c-1.1 1.7-3.2 3.1-6.1 3.1-4.8 0-8.7-4-8.7-10.2 0-6.3 3.8-10.2 8.7-10.2zm1.8 5.3c-2.3 0-4.3 1.7-4.3 4.9s2.1 4.9 4.3 4.9c2.3 0 4.3-1.7 4.3-4.9s-2-4.9-4.3-4.9z"/><path d="m-302.7-37.7c0-1.8 1.5-3.3 3.6-3.3s3.6 1.5 3.6 3.3-1.5 3.3-3.6 3.3-3.6-1.5-3.6-3.3zm2.4 5.3h2.3c1 0 1.9.8 1.9 1.9v16.1c0 1-.8 1.9-1.9 1.9h-2.3c-1 0-1.9-.8-1.9-1.9v-16.1c.1-1 .9-1.9 1.9-1.9z"/><path d="m-290.8-38.8h3.8c.6 0 1.1.5 1.1 1.1v24c0 .6-.5 1.1-1.1 1.1h-3.8c-.6 0-1.1-.5-1.1-1.1v-24c0-.6.5-1.1 1.1-1.1z"/><path d="m-273.7-32.7c2.1 0 3.8.7 4.9 1.7.5.4 1.2.1 1.2-.5v-.2c0-.4.3-.7.7-.7h4.7c.4 0 .7.3.7.7v18.4c0 .4-.3.7-.7.7h-4.7c-.4 0-.7-.3-.7-.7v-2.1c-1.1 1.7-3.2 3.1-6.1 3.1-4.8 0-8.7-4-8.7-10.2 0-6.3 3.9-10.2 8.7-10.2zm1.8 5.3c-2.3 0-4.3 1.7-4.3 4.9s2.1 4.9 4.3 4.9c2.3 0 4.3-1.7 4.3-4.9s-2-4.9-4.3-4.9z"/><path d="m-243.4-23.3c0-2.7-1.5-4.2-3.8-4.2s-3.8 1.5-3.8 4.2v10.1c0 .4-.3.7-.7.7h-4.7c-.4 0-.7-.3-.7-.7v-18.4c0-.4.3-.7.7-.7h4.7c.4 0 .7.3.7.7v.2c0 .6.7.9 1.2.5 1.2-1 2.9-1.6 4.8-1.6 4.6 0 7.6 3.1 7.6 8.5v10.9c0 .4-.3.7-.7.7h-4.6c-.4 0-.7-.3-.7-.7z"/><path d="m-233.7-37.7c0-1.8 1.5-3.3 3.6-3.3s3.6 1.5 3.6 3.3-1.5 3.3-3.6 3.3c-2.2 0-3.6-1.5-3.6-3.3zm4.9 5.3c.9 0 1.7.8 1.7 1.7v16.4c0 .9-.8 1.7-1.7 1.7h-2.7c-.9 0-1.7-.8-1.7-1.7v-13.7c0-2.4 2-4.4 4.4-4.4z"/></g><g fill="#fff"><path d="m18.4 52.7c1.6 0 3 .4 4.1 1.2s1.6 2 1.5 3.6c-.1 1.9-1.1 3.6-2.9 5s-4.1 2.7-6.7 3.9l-.2 1.2c-.1.4-.3.7-.7.9s-.9.4-1.3.4c-.3 0-.5-.1-.7-.2s-.2-.3-.2-.6c.1-.4.1-.8.2-1-.2-.2-.3-.3-.3-.5s.1-.4.2-.6l.2-.3.1-.1c.8-4.6 1.4-8 1.8-10.3-.3-.2-.5-.3-.5-.5 0-.3.2-.5.5-.7.4-2.8.8-5.4 1.1-7.7.1-.3.3-.6.7-.8s.9-.3 1.3-.3c.3 0 .5.1.6.2s.2.3.2.5l-1.1 7.2c.8-.4 1.5-.5 2.1-.5zm3 5c0-1-.4-1.7-1.2-2.3s-1.7-.9-2.8-.9c-.4 0-.8.1-1.3.2-.1.5-.1.8-.2 1.1-.5 3.1-.9 5.9-1.3 8.4.6-.3 1.4-.7 2.2-1.2 1.1-.7 2-1.3 2.7-1.9s1.3-1.3 1.5-2c.3-.4.4-.9.4-1.4z"/><path d="m27.3 44.8c.4-.2.8-.3 1.2-.3.3 0 .5.1.6.2s.2.3.2.5c-.5 4.5-1 9-1.5 13.4l-.8 6.7c0 .3-.3.6-.7.8s-.9.4-1.3.4c-.6 0-.8-.2-.8-.7l1.2-10.1c.5-4.7.9-8.1 1.2-10.1.1-.3.3-.6.7-.8z"/><path d="m40.5 54.6c.3.7.5 1.5.5 2.3 0 1.2-.3 2.4-1 3.6-.5.8-1.1 1.7-2 2.6s-1.9 1.7-3 2.3-2.1.9-3.1.9c-.6 0-1.2-.1-1.8-.4-1.2-.6-1.8-1.8-1.8-3.4 0-1.2.3-2.5.8-3.9s1.1-2.6 1.7-3.6c1.5-2.3 3-3.8 4.6-4.4.4-.2.9-.3 1.4-.3.6 0 1.1.2 1.5.5s.7.8.7 1.4v.1c0 .1 0 .1-.1.2.8.7 1.3 1.4 1.6 2.1zm-5.3-1.6c-.5.4-1.1 1-1.6 1.8-.7.9-1.2 2-1.6 3.2-.2.5-.3 1.1-.5 1.9s-.2 1.5-.2 2.2.1 1.3.3 1.7.5.6 1 .6c.4 0 .8-.1 1.3-.4 1.3-.8 2.4-1.7 3.3-2.9s1.3-2.4 1.3-3.8c-.1-1.8-1.2-3.3-3.3-4.3z"/><path d="m51.8 52.3c.2.4.3.9.3 1.4s-.1 1.5-.4 2.8c-.8 3.5-1.4 6.8-1.8 9.7-.5 2.9-.8 5.8-1 8.6 0 .2 0 .5-.1.6 0 .2-.1.4-.2.7-.2.4-.5.7-.9 1s-.8.5-1.1.5-.6-.1-.7-.4l-.9-1.3c-1.1-1.9-2-3.4-2.8-4.6-.1-.1-.1-.2-.1-.3 0-.3.2-.6.6-.8s.9-.4 1.3-.4.8.1.9.4c.2.4.5.9.8 1.4l.5.9c.4-3 .8-5.9 1.3-8.6-.8 1.1-1.6 2-2.5 2.8s-1.7 1.2-2.4 1.2c-.6 0-1.1-.3-1.5-.8-.3-.4-.5-1-.5-1.9 0-.4 0-.9.1-1.3s.2-1 .4-1.8l.2-.6c.5-2.3 1.3-4.6 2.3-6.8.5-1 1-1.9 1.5-2.5s1.1-1.2 1.9-1.5c.5-.2 1-.3 1.5-.3.8 0 1.5.3 1.9.8l.2.1c.6.3 1 .6 1.2 1zm-4.7 8.3c.4-.9.9-1.9 1.4-3.2s.7-2.3.7-3.1c0-.3 0-.5-.1-.6-.5 0-.8-.1-.9-.5s-.2-.6-.4-.6c-.1 0-.2.1-.3.2s-.2.4-.4.7c-.2.4-.5.9-.8 1.5-.6 1.2-1 2.4-1.4 3.5-.4 1.2-.7 2.3-1 3.2s-.4 1.9-.4 2.8c0 .4 0 .7.1 1.1l.5-.6c.3-.4.7-.8 1.1-1.3.8-1.1 1.4-2.1 1.9-3.1z"/></g><path d="m80.5 68.3h.5v.2h-.5z" fill="none"/></svg>