<svg xmlns="http://www.w3.org/2000/svg" width="36" height="36" viewBox="0 0 36 36">
  <g id="codepen" transform="translate(-1089 -3194)">
    <circle id="circle" cx="18" cy="18" r="18" transform="translate(1089 3194)" fill="none"/>
    <path id="icon" d="M27.976,8.9,14.943.206a1.238,1.238,0,0,0-1.369,0L.541,8.9A1.246,1.246,0,0,0,0,9.914V18.6a1.246,1.246,0,0,0,.541,1.018l13.033,8.69a1.238,1.238,0,0,0,1.369,0l13.033-8.69a1.246,1.246,0,0,0,.541-1.018V9.914A1.246,1.246,0,0,0,27.976,8.9ZM15.484,3.516l9.6,6.4L20.8,12.778,15.484,9.229Zm-2.451,0V9.229L7.718,12.778,3.437,9.914ZM2.451,12.205l3.071,2.053L2.451,16.311ZM13.033,25l-9.6-6.4,4.281-2.864,5.315,3.549Zm1.225-7.846-4.329-2.9,4.329-2.9,4.329,2.9ZM15.484,25V19.287L20.8,15.738,25.08,18.6Zm10.583-8.689L23,14.258l3.071-2.053Z" transform="translate(1093 3198)"/>
  </g>
</svg>
