<svg xmlns="http://www.w3.org/2000/svg" width="36" height="36" viewBox="0 0 36 36">
  <path id="Icon_awesome-codepen" data-name="Icon awesome-codepen" d="M35.317,11.229,18.864.26a1.563,1.563,0,0,0-1.728,0L.683,11.229A1.573,1.573,0,0,0,0,12.515V23.484a1.573,1.573,0,0,0,.683,1.286L17.136,35.74a1.563,1.563,0,0,0,1.728,0l16.453-10.97A1.573,1.573,0,0,0,36,23.484V12.515a1.573,1.573,0,0,0-.683-1.286Zm-15.77-6.79,12.114,8.076-5.4,3.616-6.71-4.48Zm-3.094,0v7.212l-6.71,4.48-5.4-3.616ZM3.094,15.408,6.971,18,3.094,20.591ZM16.453,31.56,4.339,23.484l5.4-3.616,6.71,4.48ZM18,21.655,12.536,18,18,14.343,23.464,18Zm1.547,9.9V24.347l6.71-4.48,5.4,3.616ZM32.906,20.591,29.029,18l3.877-2.592Z"/>
</svg>
