<svg height="36" viewBox="0 0 36 36" width="36" xmlns="http://www.w3.org/2000/svg"><circle cx="18" cy="18" fill="none" r="18"/><path d="m27.976 8.9-13.033-8.694a1.238 1.238 0 0 0 -1.369 0l-13.033 8.694a1.246 1.246 0 0 0 -.541 1.014v8.686a1.246 1.246 0 0 0 .541 1.018l13.033 8.69a1.238 1.238 0 0 0 1.369 0l13.033-8.69a1.246 1.246 0 0 0 .541-1.018v-8.686a1.246 1.246 0 0 0 -.541-1.014zm-12.492-5.384 9.6 6.4-4.284 2.862-5.316-3.549zm-2.451 0v5.713l-5.315 3.549-4.281-2.864zm-10.582 8.689 3.071 2.053-3.071 2.053zm10.582 12.795-9.6-6.4 4.281-2.864 5.315 3.549zm1.225-7.846-4.329-2.9 4.329-2.9 4.329 2.9zm1.226 7.846v-5.713l5.316-3.549 4.28 2.862zm10.583-8.689-3.067-2.053 3.071-2.053z" transform="translate(4 4)"/></svg>