<svg id="linkedin" xmlns="http://www.w3.org/2000/svg" width="36" height="36" viewBox="0 0 36 36">
  <circle id="circle" cx="18" cy="18" r="18" fill="none"/>
  <path id="icon" d="M4.907,21.922H.362V7.286H4.907ZM2.632,5.29A2.645,2.645,0,1,1,5.264,2.633,2.645,2.645,0,0,1,2.632,5.29ZM21.917,21.922H17.382V14.8c0-1.7-.034-3.875-2.363-3.875-2.363,0-2.725,1.845-2.725,3.753v7.247H7.754V7.286h4.359v2h.064a4.776,4.776,0,0,1,4.3-2.363c4.6,0,5.445,3.029,5.445,6.963v8.04Z" transform="translate(7.026 7)"/>
</svg>
