<svg enable-background="new 0 0 40 28" height="28" viewBox="0 0 40 28" width="40" xmlns="http://www.w3.org/2000/svg"><g fill="none" stroke="#fff" stroke-miterlimit="10" stroke-width="2"><path d="m34 17.25v5.17c0 2.53-1.95 4.58-4.37 4.58h-24.26c-2.42 0-4.37-2.05-4.37-4.58v-12.84c0-1.27.49-2.41 1.28-3.23.8-.84 1.88-1.35 3.09-1.35h18.71c-.69 1.17-1.08 2.55-1.08 4 0 4.06 3.05 7.43 6.98 7.93.33.05.67.07 1.02.07.45 0 .91-.04 1.33-.12.49-.08.96-.2 1.42-.37.09.47.17.74.25.74z" stroke-linecap="round" stroke-linejoin="round"/><path d="m1.49 5.9 15.75 14.18 7.66-7.13" stroke-linejoin="round"/><path d="m39 9c0 3.45-2.19 6.39-5.25 7.51-.46.17-.93.29-1.42.37-.42.08-.88.12-1.33.12-.35 0-.69-.02-1.02-.07-3.93-.5-6.98-3.87-6.98-7.93 0-1.45.39-2.83 1.08-4 1.39-2.39 3.96-4 6.92-4 4.41 0 8 3.59 8 8z"/><g stroke-linecap="round"><path d="m28.06 9h5.88"/><path d="m31 6.06v5.88"/></g></g></svg>