<svg xmlns="http://www.w3.org/2000/svg" width="36" height="36" viewBox="0 0 36 36">
  <g id="twiter" transform="translate(-1239 -2771)">
    <circle id="circle" cx="18" cy="18" r="18" transform="translate(1239 2771)" fill="none"/>
    <path id="icon" d="M23.254,8.627c.016.23.016.461.016.691A15.01,15.01,0,0,1,8.157,24.431,15.011,15.011,0,0,1,0,22.047a10.989,10.989,0,0,0,1.283.066,10.638,10.638,0,0,0,6.595-2.269,5.321,5.321,0,0,1-4.967-3.684,6.7,6.7,0,0,0,1,.082,5.618,5.618,0,0,0,1.4-.181,5.313,5.313,0,0,1-4.259-5.213v-.066a5.35,5.35,0,0,0,2.4.674,5.32,5.32,0,0,1-1.645-7.1A15.1,15.1,0,0,0,12.762,9.91a6,6,0,0,1-.132-1.217,5.317,5.317,0,0,1,9.193-3.635,10.458,10.458,0,0,0,3.371-1.283A5.3,5.3,0,0,1,22.859,6.7a10.649,10.649,0,0,0,3.059-.822,11.419,11.419,0,0,1-2.664,2.746Z" transform="translate(1244 2774.619)"/>
  </g>
</svg>
