<svg height="36" viewBox="0 0 36 36" width="36" xmlns="http://www.w3.org/2000/svg"><circle cx="18" cy="18" fill="none" r="18"/><path d="m23.254 8.627c.016.23.016.461.016.691a15.01 15.01 0 0 1 -15.113 15.113 15.011 15.011 0 0 1 -8.157-2.384 10.989 10.989 0 0 0 1.283.066 10.638 10.638 0 0 0 6.595-2.269 5.321 5.321 0 0 1 -4.967-3.684 6.7 6.7 0 0 0 1 .082 5.618 5.618 0 0 0 1.4-.181 5.313 5.313 0 0 1 -4.259-5.213v-.066a5.35 5.35 0 0 0 2.4.674 5.32 5.32 0 0 1 -1.645-7.1 15.1 15.1 0 0 0 10.955 5.554 6 6 0 0 1 -.132-1.217 5.317 5.317 0 0 1 9.193-3.635 10.458 10.458 0 0 0 3.371-1.283 5.3 5.3 0 0 1 -2.335 2.925 10.649 10.649 0 0 0 3.059-.822 11.419 11.419 0 0 1 -2.664 2.746z" transform="translate(5 3.619)"/></svg>